<?xml version="1.0" encoding="utf-8"?>
<!-- Generator: Adobe Illustrator 27.9.0, SVG Export Plug-In . SVG Version: 6.00 Build 0)  -->
<svg version="1.1" xmlns="http://www.w3.org/2000/svg" xmlns:xlink="http://www.w3.org/1999/xlink" x="0px" y="0px"
	 viewBox="0 0 500 500" style="enable-background:new 0 0 500 500;" xml:space="preserve">
<style type="text/css">
	.st0{fill:#782AD5;}
	.st1{opacity:0.7;fill:#FFFFFF;}
	.st2{opacity:0.15;}
	.st3{fill:#263238;}
</style>
<g id="Background_Simple">
	<g>
		<path class="st0" d="M191.01,27.89c45.12-11.97,96.58-11.88,140.46,6.87c15.13,6.47,29.6,14.45,43.33,23.5
			c104.52,68.92,108.5,171.48,90.26,221.15c-10.44,28.42-38.95,45.43-63.19,60.8c-21.48,13.61-59.15,29.96-69.01,55.47
			c-13.31,34.43-31.65,82.62-87.95,65.58c-56.3-17.05-100.24-34.11-144.83-113.87s-61.4-135.51-50.65-186.49
			C63.93,92.17,123.65,45.76,191.01,27.89z"/>
		<path class="st1" d="M191.01,27.89c45.12-11.97,96.58-11.88,140.46,6.87c15.13,6.47,29.6,14.45,43.33,23.5
			c104.52,68.92,108.5,171.48,90.26,221.15c-10.44,28.42-38.95,45.43-63.19,60.8c-21.48,13.61-59.15,29.96-69.01,55.47
			c-13.31,34.43-31.65,82.62-87.95,65.58c-56.3-17.05-100.24-34.11-144.83-113.87s-61.4-135.51-50.65-186.49
			C63.93,92.17,123.65,45.76,191.01,27.89z"/>
	</g>
</g>
<g id="Map">
	<g class="st2">
		<path d="M127.86,125.56C132.08,122.47,128.67,130.75,127.86,125.56L127.86,125.56z M124.44,125.87c1.15,0,1.78-0.75,1.59-1.73
			C125.64,124.34,122.52,125.87,124.44,125.87z M131.28,100.56c0.89-0.46,1.42-1.05,2.5-1.17c-1.59-1.64-3.75-1.33-5.79-1.3
			C128.01,100.26,129.34,101.13,131.28,100.56z M329.97,211.79c-0.74,1.04-0.22,6.77,1.74,4.8
			C332.82,215.51,330.34,212.21,329.97,211.79z M410.98,285.29c0.48,1.71,1.72,3.74,3.18,4.19c0.11-0.35,0.11-0.69,0-1
			c0.37,0,0.72,0,1.09,0c0.06-1.44,0.43-1.75,0.43-3.11C414.68,285.68,410.87,284.52,410.98,285.29
			C411.04,285.53,410.96,285.21,410.98,285.29z M415.05,283.22c0,0.73,0.59,1.24,1.13,1.34
			C416.16,283.46,415.75,283.22,415.05,283.22C415.05,283.3,415.14,283.22,415.05,283.22z M410.26,282.85
			c-0.72,0.39-0.26,1.02,0.26,1.22C410.55,283.95,410.68,282.67,410.26,282.85C410.15,282.89,410.33,282.81,410.26,282.85z
			 M441.75,294.71c2.13,0,2.63-4.37,5.2-4.95c-1.13-2.6,3.14-2.2,0.07-4.25c-2.44-1.61-1.46,1.14-2.9,2.89
			c-1.27,1.57-3.68,1.95-4.6,3.76C438.81,293.57,439.03,295.1,441.75,294.71C441.81,294.71,441.66,294.71,441.75,294.71z
			 M440.1,295.42c-0.22,0.18-0.3,0.31-0.46,0.55c0.35,0,0.7,0,1.05,0C440.75,295.58,440.66,294.97,440.1,295.42
			C440.01,295.5,440.2,295.34,440.1,295.42z M448.46,279.27c0,0.71,0.06,2.56,0.06,2.73c0-0.16-1.04-0.08-1.05,0.77
			c0,1.1,0.76-0.08,0.92,0.61c-0.04-0.08,1.07,2.6,1.7,2.4c0.24-0.08,0.87-1.38,1.26-1.79c1.96-2.04,3.31-4.47-0.65-3.7
			c-0.02-1.18-0.46-3.01-1.2-1.22c-0.81-0.57-0.92-2.42-1.87-3.46C445.87,273.65,448.46,278.54,448.46,279.27z M435.44,253.61
			c1,1.69,1.87,3.07,4,3.32C439.27,255.91,436.3,253.57,435.44,253.61z M393.04,240.74c-1.66,0.33,0.85,0.71,1.44,0.65
			c0-0.2,0-0.39,0-0.57C394.1,240.78,392.54,240.78,393.04,240.74z M407.89,241.47c-1.96,2.66,0.68,9.2-3.68,7.89
			c0.02,0-3.99-2.83-4.07-3.05c-0.76-1.81,0.8-2.77,1.29-4.19c-2.22-0.32-4.38-1.57-6.51-1.57c0.42,0.41,0.37,0.71,1.13,1.2
			c-0.39-0.26-2.63,1.38-3.22,1.79c-1.77,1.24,0.98,1.49-1.98,2.12c-0.98,0.2-1.42-1.3-3.01-0.65c-1.31,0.53-1.48,2.46-2.98,2.46
			c0.22,0.53,0.28,1.38,0.54,1.89c-0.39,0-0.76,0-1.15,0c0-0.31,0-0.65,0-0.98c-1.74-0.1-2.33,3.97-4.31,5.01
			c-1.5,0.79-3.81,1.04-5.46,1.75c-0.72,0.29-1.2,2.89-2.05,0.71c-0.72,2.42-0.89,3.85,0.33,6.22c-2.63-1.3,0.22,3.15,0.76,4.74
			c1.11,3.21,2.18,5.31-0.04,7.41c1.51,0,2.4,1.85,4.34,1.5c1.11-0.16,1.66-1.63,2.9-1.91c0.98-0.28,2.01,0.77,2.85,0.53
			c0.89-0.29,0.91-1.06,1.65-1.38c0.7-0.3,1.48-1.18,2.27-1.55c0.55-0.26,1.04,0.63,1.7,0.37c2.35-0.98,5.01-2.48,7.77-0.9
			c1.65,0.98,3.24,7.89,4.99,1.67c1.26,0.47-0.06,1.42,0.13,2.6c1.55-1.02,0.96,0.41,0.85,1.95c2.55-0.53,1.4,1.93,3.29,3.62
			c0.22,0.2,2.55,1,3.01,1.02c1.3,0.04,0.89-1.4,1.7-1.45c0.81-0.02,0.83,1.69,1.37,1.57c2.63-0.61,5.38-1.71,6.34-4.39
			c0.63-1.75,0.78-3.56,1.77-5.43c2-3.74,2.37-7.67,0.52-11.7c-0.41-0.94-0.94-1.22-1.57-1.95c-0.43-0.51-0.43-1.42-0.72-1.81
			c-0.09-0.1-1.44-0.53-1.78-0.88c-0.42-0.45-0.39-1.53-0.85-2.04c-0.63-0.65-2.18-1.14-2.66-1.79c-1.18-1.61-1.52-4.76-2.4-6.31
			c-0.28-0.49-1.09-0.86-1.51-1.59c-0.5-0.9-0.24-3.09-1.44-3.42C407.95,240.88,407.91,241.16,407.89,241.47z M429.99,238.64
			c0.37,0.63,0.78,0.43,1.26,0.22C431.01,238.15,429.6,237.72,429.99,238.64C430.04,238.74,429.95,238.58,429.99,238.64z
			 M423.55,233.78c0,0.61,1.28,1.39,1.63,1.3c-0.31-0.89-1.26-1.44-1.26-2.3c-0.17-0.02-0.35,0-0.52,0.06
			C423.52,233.27,423.55,233.37,423.55,233.78z M415.97,232.92c0.15,1.85,4.97,0.94,4.53-1.95
			C420.26,231.01,415.97,233.61,415.97,232.92C415.99,233.15,415.97,232.8,415.97,232.92z M393.95,236.55
			c0,0.28,1.89,0.61,0.98-1.38C394.15,235.28,393.82,235.75,393.95,236.55z M387.18,235.67c0.13,0.75,0.85,0.59,1.44,0.3
			C388.12,235.49,387.86,235.83,387.18,235.67z M398.29,232.78c-0.42,0.3-0.8,1-0.8,1.61C397.5,235.57,399.98,231.54,398.29,232.78z
			 M396.45,230.46c1.2-0.59,2.72,0.57,3.88,1.16c0.98,0.51,1.94,0.2,2.63,1.53c0.92,1.77-0.13,1.3,0.07,2.32
			c0.06,0.26-1.29,0.22-0.72,1.4c0.26,0.55,1.78-0.69,2.29-0.55c1.65,0.51,2.29,2.14,4.35,1.45c1.26-0.41,1.2-2.4,3.27-1.59
			c0.81,0.32,1,1.42,1.72,1.87c1.39,0.9,0.7,0.61,2.59,1.1c2.85,0.71,1.9,0.94,0.5-1.22c-0.2-0.33-1.59-0.14-1.83-0.37
			c0.13,0.12-0.78-2.52-0.59-1.85c-0.05-0.22-1.77-1.61,0.45-1.38c-0.43-0.88-2.46-2.5-3.48-3.13c-1.92-1.22-3.42-1.63-5.57-2.34
			c-3.03-1.08-2.86-0.43-5.27,0c-1.5,0.29-3.12-0.51-5.21,0.08C395.74,229.83,396.06,230.69,396.45,230.46
			C396.52,230.44,396.39,230.5,396.45,230.46z M386,227.35c-1.15,0.28,1.04,0.59,1.44,0.51C387.44,227.02,386.63,227.23,386,227.35z
			 M399.61,226.25c0.07,0.65,0.16,0.79,0.13,1.55c0.44,0,0.89,0,1.31,0c-0.2-0.69-0.55-0.36-0.55-1.55
			C400.2,226.25,399.9,226.25,399.61,226.25C399.63,226.35,399.94,226.21,399.61,226.25z M394.08,226.33
			c-0.31-0.04-0.59,0.04-0.85,0.31c1.37,0.87,2.85,2.14,4.66,1.22C396.37,224.79,395.47,226.92,394.08,226.33z M393.77,225.84
			C395.56,223.85,390.68,225.19,393.77,225.84C393.97,225.6,393.65,225.82,393.77,225.84z M392.43,227.63
			c0.48,0.24,0.68,1.59,0.89-0.12C392.66,227.63,392.58,227.7,392.43,227.63z M390.08,229.3c0,0.53,2.76,1.02,3.55,1.02
			C393.47,228.69,390.32,229.14,390.08,229.3z M389.03,229.51c-0.35-0.08-0.7-0.18-1.07-0.26
			C388.59,230.93,389.31,229.69,389.03,229.51C388.86,229.42,389.12,229.57,389.03,229.51z M390.66,221.65
			c-0.94,1.42-1.61,1.63-1.54,3.66c0.13,2.87,0.78-0.61,2.33-0.35c0.09-0.96-0.35-1.79-1.13-1.73
			C390.51,222.67,390.66,222.22,390.66,221.65C390.53,221.86,390.66,221.8,390.66,221.65z M378.31,229.38c0,0,1.35,1.87,1.18,1.67
			c-0.06-0.08,0.2,1.67,0.26,1.87c0.94-0.69,0.72-2.77,0.72-3.91c0.28,0,0.54,0,0.8,0c0.09,0.47,1.52,3.97,2.07,3.68
			c1-0.49-0.85-4.33-1.42-5.15C388,227.55,378.31,223.65,378.31,229.38z M385.92,223.24c-1.02,0.41-6.84-0.45-6.56,2.24
			c1.9-0.98,2.42-0.77,4.46-1.22c0.63-0.16,0.83,0.63,1.59,0.29C385.81,224.34,387.35,222.59,385.92,223.24
			C385.85,223.28,386.18,223.12,385.92,223.24z M384.56,238.78c0,1.26,4.44-1.14,4.92-1.67
			C387.74,236.16,384.85,238.21,384.56,238.78z M384.02,240c-0.54,0.08-0.66,0.3-0.39,0.73c0.26,0,0.52,0,0.78,0
			C384.48,240.37,384.46,239.84,384.02,240C383.83,240.09,384.11,239.96,384.02,240z M379.88,237.05c1.15,1.26,4.73,0.22,6.05-0.39
			C384.87,236.46,380.38,236.46,379.88,237.05z M379.42,237.99c-1.65,0.55,1.37,1.44,1.9,1.4
			C381.1,239.11,379.99,237.87,379.42,237.99C379.21,238.05,379.49,237.97,379.42,237.99z M376.12,236.75
			c-0.94,0.08,2.37,0.31,3.03,0.31c-0.2,0.06-0.24-0.06-0.13-0.39C377.94,236.67,377.16,236.55,376.12,236.75
			C375.96,236.77,376.33,236.73,376.12,236.75z M361.87,234.31c1.5,1.3,3.62,1.69,6.19,1.98c2.04,0.24,4.57,1.4,6.75,1.06
			c-0.61-1.34-1.89-1.71-3.27-1.4c0.09-1.02,0.76-0.53,1.44-0.98C369.23,234.27,365.77,234.19,361.87,234.31z M357.85,232.21
			C357.58,232.88,357.76,233.21,357.85,232.21C357.82,232.33,357.85,232.21,357.85,232.21z M367.19,222.36
			c-1.74,1.34-0.65,3.76,0.33,5.19c1.42,2.14,2.02,1.91,4.73,2.4c2.74,0.53,1.87,1.3,3.42-1.22c0.07-0.12,0.35-2.12,0.65-2.69
			c0.41-0.73,1.9-1.06,2.37-2.16c-1.74-1.24-1.26-1.57-1.65-4.31c1.33,0.08,0.92-0.9,2.24-1.4c0.11,0.35-3.16-2.5-2.88-2.54
			c-1.04,0.08-1.8,2.03-2.61,2.83C371.98,220.23,368.82,223.71,367.19,222.36z M353.32,226.64c0.07,0.96,1.52,3.32,2.37,3.52
			C355.51,228.85,353.32,226.74,353.32,226.64C353.34,226.86,353.32,226.49,353.32,226.64z M351.22,223.44
			c0.33,0.69,0.96,0.89,1.26,1.61c0-0.88-0.22-1.51-1.05-1.89C351.18,223.85,351.4,223.5,351.22,223.44z M350.24,221.55
			c0-0.22-0.41-0.83-0.41-0.18c0,0.59,0.33,0.86,0.79,0.94C350.79,221.94,350.66,221.69,350.24,221.55z M350.7,218.24
			c-0.74,0-1.15-0.81-1.85-0.71c0.31,1.69,2.74,3.36,3.55,4.5c1.28,1.73,2.33,4.29,3.68,6.22c0.93,1.28,3.11,4.8,4.35,4.82
			c2.74,0.08,1.18-2.83,3.35-3.56c-0.24-1.87-1.81-2.56-3.16-1.51C360.46,225.86,353.29,218.56,350.7,218.24
			C350.59,218.24,350.99,218.28,350.7,218.24z M384.69,213.23c-1.42,0.16-2.66,1.22-1.9,2.97c1.15-3.05,2.83,0.45,4.66,1.32
			c-0.65-1.53,0.52-1.85,0.54-1.89c0.04-0.29,0.57-3.99-0.59-3.99C386.2,211.64,386,214.21,384.69,213.23
			C384.48,213.27,384.78,213.31,384.69,213.23z M380.8,206.52c-0.04,0.53,1.48,4.64,2.57,4.41c-0.55,1.34,1.41,2.26,0.93-0.37
			C384.07,209.45,381.91,206.72,380.8,206.52C380.78,206.72,380.88,206.56,380.8,206.52z M382.71,206.31
			c1.65,1.26,2.74,3.68,4.51,4.07c0-2.22-1.87-2.73-1.87-4.7C384.28,205.68,383.74,206.31,382.71,206.31
			C382.91,206.48,382.91,206.31,382.71,206.31z M380.21,207.61c-0.98,2.07-3.49,4.15-4.01,5.86
			C378.38,213.47,380.21,209.99,380.21,207.61C380.17,207.72,380.21,207.86,380.21,207.61z M381.23,199.13
			c-1.94,1.16-1.46,5.51,0.76,6.29C381.89,204.03,384.7,199.13,381.23,199.13z M382.5,190c0-0.69-2.61,1.65-2.22,4.31
			c0.26,0,0.52,0,0.78,0C381.06,192.52,382.5,191.64,382.5,190z M416.05,157.63c-1.31,0.26-2.16,1.44-3.88,1.59
			c-1.89,0.16-2.76-0.24-4.73-1.46c-0.07,0.65-0.85,5.59-1.65,3.78c-0.35,0.67-1.53,3.8,0.39,2.81c0,0.26,0,0.49,0,0.73
			c-1.16,0.22-1.72,4.33-3.01,5.94c0-0.45,0.04-0.69,0-1.16c-0.76,0.81-0.98,1.1-1.31,2.16c-0.3-0.45-0.78,0.32-0.59-0.94
			c-0.85,0.67-1.17,1.59-1.3,2.97c-2.63-1.26-7.52,1.14-7.99,4.31c0.5,0.04,1.2,0,1.52,0c0,1.4-1.4,2.03,0.54,2.64
			c0-1.48,2.16-3.62,0-3.82c0.46-1.51,3.74-1.51,5.12-1.77c-1.5,1.04-3.9,0.04-3.35,2.83c1.22-0.57,2.39-1.18,3.22-2.03
			c0.61,1.55,2.29,0.35,2.03-1c5.2-0.65,4.22-0.94,5.46-5.72c0.68-2.64,1.5-4.72-0.78-6.79c1.54-0.33,4.11,1.26,4.01-0.59
			C410.87,162.37,416.05,159.21,416.05,157.63C415.95,157.63,416.05,157.71,416.05,157.63z M418.49,156.24
			c-0.55,0.1-0.83,0.53-1.33,0.81C417.97,157.59,418.19,157.02,418.49,156.24C418.39,156.26,418.38,156.53,418.49,156.24z
			 M424.92,148.51c-0.15,0.59-0.48,1.14-0.8,1.67C425.2,149.69,424.9,148.76,424.92,148.51z M440.64,140.9
			c-0.13,0-0.37-0.73-0.72-0.43c-0.07,0.26-0.09,0.55-0.07,0.83C440.07,141.37,440.9,141.47,440.64,140.9z M438.86,141.13
			c-0.26-0.81-0.19-1.32-0.87-1.89c0,0.77,0.15,1.44,0.2,2.2C438.66,141.58,438.99,141.6,438.86,141.13
			C438.83,141.03,438.9,141.23,438.86,141.13z M435.43,133.28c0.5,0,0.83-0.65,0.87-1.04c-1.15-0.49-1.26,0.29-1.7,1.04
			C434.87,133.34,435.15,133.34,435.43,133.28z M465.81,123.2c1.11,0.2,2.64,0.73,3.75,0.57
			C468.62,121.74,466.58,123.31,465.81,123.2C466.01,123.23,465.7,123.16,465.81,123.2z M454.18,105.46
			c1.42,0.36,3.18-0.35,4.66-0.35c-0.39-0.66-1.59-1.59-2.59-1.53C455.89,103.6,453.07,105.16,454.18,105.46
			C454.25,105.48,454.05,105.43,454.18,105.46z M413.09,94.41c1.29,0.56,5.57,2.27,5.57-0.38c-1.83-0.1-4.62,0.18-5.38-1.22
			C413.14,92.95,412.68,94.21,413.09,94.41C413.16,94.43,412.98,94.34,413.09,94.41z M405.19,99.04c1.59,0.27,3.01-0.09,4.53,0.5
			C409.2,97.07,406.73,97.7,405.19,99.04z M406.5,97.21c0.87,0-0.74-0.81-1.24-0.79C405.27,97.3,405.8,97.21,406.5,97.21z
			 M401.59,93.96c1.42,2.29,9.45,1.67,9.99-1.22c-1.28-0.26-2.89-1.11-2.89,1.19c-0.28-0.05-0.54-0.05-0.79,0
			c1.39-3.19-1.65-1.37-2.66-1.4C403.19,92.45,402.68,91.37,401.59,93.96z M400.2,93.38c-0.11-0.26-0.11-0.57,0-0.86
			C398.74,92.29,399.48,93.98,400.2,93.38C400.18,93.29,400.07,93.49,400.2,93.38z M399.48,96.49c0.45,1.18,0.39,1.89,1.7,1.7
			C400.83,97.66,399.96,96.85,399.48,96.49z M364.49,85.86c-0.37-0.76-1.48-0.96-2.22-0.57C362.46,85.53,364.81,86.74,364.49,85.86
			C364.44,85.74,364.53,85.96,364.49,85.86z M349.18,89.26c0.44-0.16,0.94,0,1.39,0C350.4,87.44,349.7,88.87,349.18,89.26z
			 M354.9,86.66c0.26,0,6.49-1.46,6.64-1.66c1.54-2.22-3.07-1.99-3.42-2.17c0.31-0.36,0.44-0.37,0.54-0.8
			C355.93,81.51,354.6,86.66,354.9,86.66z M350.7,79.5c-4.58,0.73-3.94,3.57,0.28,4c3.2,0.34,3.42,0.42,3.25-1.69
			c-0.2-2.86-0.02-1.44-2.42-1.44c0.26-0.48,0.24-0.37,0.33-0.85C351.64,79.5,351.18,79.49,350.7,79.5z M346.74,79.79
			c1.83,1.07,4.4-1.73,5.46-2.46c-2.39-1.26-5.66-1.4-7.56,1.37C344.74,78.94,346.3,79.56,346.74,79.79
			C346.83,79.85,346.68,79.74,346.74,79.79z M346.22,80.44c-0.87,0-1.5-0.55-2.4-0.37C343.93,83.01,347.43,80.44,346.22,80.44z
			 M343.52,75.73c-1.98,0-0.44,0.91-0.59,1.16C342.54,77.6,345.48,75.73,343.52,75.73z M292.23,109.66c-1.15-0.21-3.05-1.7-2.22,1.3
			C290.75,110.96,292.1,110.54,292.23,109.66C292.16,109.65,292.21,109.75,292.23,109.66z M297.29,99.18
			c-1.16-0.12-3.57,3.22-3.57,4.98c0.68-0.15,1.15-0.63,1.53,0.28c0.24-0.12,0.33-0.32,0.26-0.57c1.5,0.83,0.46,1.77,1.28,2.17
			c1.05,0.51,3.09,0.33,4.25,0.33c-0.15-1.76-1.92-2.32-2.03-3.95c-0.15-2.01,1.39-3.18,2.5-4.41c2.63-2.88,5.08-4.47,8.93-5.49
			c1.13-0.31,5.9-1.39,5.4-2.75c-0.74-1.98-3.49,0.24-4.47,0.57c-2.39,0.84-10.32,1.07-10.32,4.27c-0.5-0.07-0.94-0.09-1.44,0
			c1.22,2.31-3.09,2.23-2.7,3.77c0.45-0.1,0.57-0.28,1.05-0.22C297.72,98.84,298.37,99.27,297.29,99.18
			C297.11,99.16,297.5,99.2,297.29,99.18z M317.08,99.83c1.03,0,1.61-0.71,1.89-0.87C319.52,98.63,315.43,99.83,317.08,99.83z
			 M307.69,76.89c1.48,2.45,2.48,0.12,4.14-0.21C310.3,75.72,309.13,77.42,307.69,76.89z M304.47,76.89c0,0.84-0.54,0.6-0.92,1.3
			c1.15,0.41,2.37,0.44,3.68,0.18C306.13,76.86,306.25,75.75,304.47,76.89z M304.01,79.5c-0.35,0.11-0.68,0.21-1.05,0.21
			c0.18,1,0.78,0.44,1.51,0.28C304.4,79.61,304.45,79.38,304.01,79.5C303.9,79.54,304.1,79.48,304.01,79.5z M299.4,79.07
			c0.61,0.58,0.7,1.47,1.65,0.14c0,1.62,1.9,0.1,2.16-0.14c0.02-0.2,0-0.39-0.07-0.58C301.97,78.24,300.13,78.81,299.4,79.07z
			 M295.65,79.21c1.09-1.22,3.4-1.75,5.07-1.31c-0.39-2.6,2.16,0.92,2.5-1.51c-0.57,0-1.07,0.1-1.65,0c0.22-0.36,0.65-1.19,0.8-1.37
			c-0.91,0-1.5,0.63-1.98,0.79c0.31-0.11-1.59,0.45-1.77,0.58c-0.48,0.33-0.65,1.06-1.31,1.59
			C296.37,78.71,295.93,78.14,295.65,79.21z M290.4,77.26c-1.94,0-2.42,0.75-4.27,0.36c0.09,1.56,2.51,0.51,3.62,0.51
			c-2.29,1.83,1.57,2.29,2.7,0.65C294.26,76.1,292.54,77.26,290.4,77.26z M252.73,79.72c0.43,1.19,2.81-0.41,3.27,0.94
			c-0.65-0.04-1.31,0.03-1.98,0c1.2,3.67,7.77,0.4,9.28-0.58c-1.48-1.8-3.55-0.31-4.86-0.73c0.24-0.54,0.57-0.44,0.46-1.08
			c-1.55,0.67-1.15,0.09-2.05,1.81C256.28,78.43,252.05,78.05,252.73,79.72C252.77,79.85,252.66,79.56,252.73,79.72z M250.09,85.21
			c0,0.4-3.51,0.16-3.94,1.74c0.85-0.2,3.51-0.88,3.86-0.37c-0.54,0.39-3.4,0.9-3.44,1.16c-0.07,0.49,2.5,1.86,3.05,2.68
			c1.7-1.41,3.33-4.16,3.33-6.11c0.5-0.08,1.39-0.1,1.87,0c-0.22,1.76,0.18,0.51,0.87,1.53c0.5,0.74-0.54,1.37-0.54,2.14
			c1.81-1.24,2,0.41,2.7,0.28c0.72-0.12,2.02-0.98,2.76-1.16c-0.8-1.16-1.61,0.17-1.61-1.52c-0.78,0.11-6.01-3.32-6.16-3.85
			c-0.22,0.11-0.63,0.24-1.05,0c0.17-0.43,0.39-0.7,0.48-1.15c-1.98-1.03-2.03,0.16-2.96,0.45c0.44-0.14-0.7,1.22-0.83,1.26
			c0.3-0.11-0.5-1.72-0.63-1.76c0.19,0.06-2.2,1.02-2.16,0.99c0.26-0.45,0.37-0.93,0.59-1.3c-1.16,0.27-6.06,1.57-2.16,2.17
			c0,0.55,0.09,1.93-0.07,2.39c-0.72-0.4-0.63-1.09-1.51-1.3c0.35,0.77,1.76,3.32,1.76,1.02c0.83,0.08,0.89,1.44,2.05,1.01
			c0.46-0.16,0.72-1.1,1.17-1.15C247.55,84.34,249.96,84.09,250.09,85.21C250.09,85.26,250.05,84.96,250.09,85.21z M412.76,132.03
			c3.29,0,3.85-1.55,6.12-1.02c1.26,0.26-0.24,1.22,1.05,1.59c1.87,0.49,1.26-1.55,2.88-0.16c0.13-0.96,0.7-0.2,1.44-0.28
			c-0.41-1.81-1.04-0.2-0.39-2.1c0.28-0.83,2-2.71,2.59-3.07c2.13-1.3,3.92-0.79,3.92,1.85c2.86-0.59,3.59-4.88,6.31-4.29
			c-1.81,1.63-2.44,4.19-4.46,6.02c-2.55,2.32-5.79,3.6-6.69,6.63c-0.65,2.22-0.59,5.33-0.2,7.36c0.54,2.79,0.26,3.23,2.14,2.14
			c2.02-1.16,2.18-6.18,5.35-5.29c-0.85-1.77-0.2-4.17,1.63-2.89c-0.59-1.44-0.09-2.79-0.26-3.68c-0.11-0.45-0.87-0.12-1.18,0
			c0.06-0.71,1.11-3.5,1.52-3.91c1.09-1.1,1.22-0.47,2.59-0.81c0.74-0.16,0.46,0.57,0.96,0.53c0.68-0.06,0.87-1.28,1.44-1.32
			c0.7-0.02,1.37,0.24,2.09,0.14c1.65-0.2,0.3,1.1,1.59,1.38c0-3.44,7.43-5.55,9.54-6.23c1.9-0.59,2.11,1.85,1.44-1.3
			c-0.59-2.81-1.9-1.69-3.55-2.89c-0.94-0.77,3.9-0.59,3.88-0.57c1.4-0.62,1.85-1.46,1.18-3.04c0.98-0.07,1.13,1.05,1.44,1.09
			c0.19,0.02,2.24,0.43,2.5,0.57c1.33,0.69,1,1.14,2.7,1.59c2.33,0.65,0.54,0.45,1.77-0.08c1.02-0.41,0.2-1.51,0.8-2.08
			c0.52-0.52,4.07,1.13,2.63-1.68c-0.52-1-4.18-1.69-5.07-1.29c0.81,0.61,1.02,2.05-0.33,1.01c-0.48-0.38,0.2-1.82-0.42-2.39
			c-0.33-0.29-0.96-0.05-1.24-0.32c-0.5-0.47-1.9-1.36-2.4-1.67c-1.37-0.8-2.24-1.35-3.68-2.13c-2.96-1.59-9.34-2.81-11.24-0.66
			c3.31,1.47-5.2,2.8-0.67-0.44c-1.37-1.13-2.51,0.42-3.88,0.63c-1.66,0.24-4.59,0.47-6.05-0.34c-0.04,0.52-0.05,1.13,0,1.67
			c-2.09-2.55-1.98-5.5-6.31-5.22c-1.61,0.11-3.16,0.67-4.81,0.31c-2.13-0.49-2.53-1.67-4.4-1.89c0.39-0.53-0.31-0.33,0.65-0.86
			c-2.79-1.73-6.01,2.62-4.79-0.94c-1.39,0-2.79-0.84-4.25-0.87c-2.77-0.06-2.13,0.43-4.68,0.87c0,1.25,1.31,1.18,1.31,2.52
			c-1.07-0.29-2.03-0.47-3.09-0.54c0.24,0.38,0.89,0.94,0.65,1.56c-1.26-0.26-1.5-1.33-2.68-1.58c0.05,0-3.13-0.04-3.29,0.02
			c-1.72,0.5-1.42,2.35-2.76,2.35c0.04,0-2.46-2.37-2.64-2.89c-0.22-0.63,0.72-2.68,0-3.62c-1.13-1.46-2.05,0.12-3.22-0.21
			c-2.61-0.75-3.42-2.71-3.42,1.24c-2.03,0.02-3.18,0.23-5.01-0.59c-0.67-0.31-1.05-1.28-1.89-1.52c-1.59-0.45-4.44,0.39-6.16,0.39
			c0-0.39,0-0.74,0-1.12c-0.61,0.21-1.59,0.89-2.15,0.28c0.15-0.02,2.94-1.51,1.65-1.87c-1.46-0.43-2.27,2.1-4.2,1.74
			c0.28,1.89-2.61,1.73-4.16,1.73c1.66-0.17,8.99-5.08,9.15-6.07c0.7-4.35-6.79-3.98-8.49-3.27c0.33-0.45,0.59-0.54,0.59-1.22
			c-0.98,0.11-1.92-0.22-2.89-0.22c0.15-0.35,0.94-1.4,1.13-1.58c-3.81-0.33-3.96,1.12-6.32,2.45c0.31,0.44,0.24,0.32,0.33,0.78
			c-2.61-0.67-2.81,1.28-4.99,1.55c-0.8,0.08-2.24-0.97-3.42-0.81c-0.22,0.03-2.66,1.67-3.75,1.96c-1.09,0.27-2,0.42-3.33,0.93
			c-0.42,0.18-2.74,1.08-2.98,1.5c-1.09,1.78,2.02,0.58,0.09,2.13c-2.11,1.7-6.05-0.49-8.19,1.6c0.57,1.5,4.38,3.94,2.24,4.12
			c-0.61,0.05-1.41-1.23-1.78-1.36c-1.65-0.64-2.77-0.69-4.4-0.31c0.61,0.33,1.39,0.25,1.39,1.23c-4.9-0.35,0.8,0.9,0.57,2.6
			c-0.8-1.35-2.9-0.47-3.86-1.8c-0.33-0.46,0.05-2.76-0.33-3.62c-0.17,0.14-0.33,0.19-0.54,0.14c0,2.68-1.44,1.6-1.7,3.18
			c0,0.01,0.41,4.44,0.5,4.6c1.4,2.52,1.02,0.24,2.74,0.98c2.13,0.93,2.02,2.15,2.02,3.68c0,0.55,1.66,0.83,1.92,0.88
			c-2.74,1.98-2.18-5.51-5.9-2.19c0,0,0.13,1.98-0.15,2.47c-0.52,0.93-1.07,1.27-1.79,1.7c-2,1.24-1.96,0.73-4.51,0.54
			c0.55-0.9,2.63-0.74,3.68-1.73c0.96-0.94,1.63-1.99,1.63-3.52c-1.52,0.14-2.05-6.46-1.9-8.31c0.28,0,0.59,0,0.85,0
			c0.44-2.42-3.16-3.03-4.73-1.74c-0.2,0.18-2.7,4.61-2.76,4.81c0.43-1.31,0.45,3.14,0.07,2.34c0.33,0.77,0.98,0.58,1.44,1.64
			c0.3,0.69,1.7,0.66,1.44,1.74c-0.44,1.89-2.16-0.69-2.24-0.72c-1.92-0.57-3.4-1.34-5.25-2.02c-0.96-0.36-4.44-2.34-4.99-2.24
			c-2.42,0.41,4.57,3.47-0.11,5.49c0-4.03-7.62,2.92-6.21-1.66c-2.01,1.3-4.31,1.35-6.34,2.85c-0.35,0.26-4.73,4.68-4.44,0.22
			c3.33,0.12-0.55-2.34-2.44-2.34c0.83,0.91,1.42,5.5,0.59,6.06c0.2-0.12-1.96-0.67-2.57-0.54c-0.48,0.1-1.81,1.76-2.76,1.84
			c0.26,0.42,0.98,1.65,0.92,2.26c-1.35-0.77-2.94-0.04-4.07-1.61c-2.72,1.61,1.37,1.81,1.37,2.75c0,0.73-2.05,0.39-2.22,0.28
			c-2.03-1.06-1.02-0.79-1.92-2.44c-0.76-1.43-2.39-3.25-3.61-5c1.09,0.22,12.61,5.25,11.24-0.65c-0.33-1.41-3.46-2.73-4.66-3.21
			c-1.89-0.77-4.7-0.21-5.53-0.77c0.96-2.22-2.92-1.51-3.81-2.41c1.48,0,0.72-0.75-0.04-1.19c-1.9-1.11-1.13,0.28-2.48,0.28
			c0.15-0.32,0.33-1.08,0.41-1.41c-0.43-0.11-1.4-0.11-1.81,0c0.04,0.73-0.09,1.13,0,1.78c-0.33-0.91-0.63-0.73-1.28-1.38
			c-0.24,1.59-0.89,2.26-0.89,0.22c0.22-0.11,0.72-0.01,0.94-0.01c0-0.32,0-0.63,0-0.94c-0.55,0.09-4.12,2.19-2.83,0.65
			c-2.76-0.31-2.51,1.34-1.05,2.24c-0.8-0.35-1.85-0.05-2.68-0.36c0,0.83,0.13,1.06-0.41,1.53c0-1.04-1.37-1.98-2.29-1.88
			c0.37,1.44-0.87,3.68-1.11,1.59c-1.61,1.77-0.11,0.51-0.67,2.39c-1.35-0.6-1.04-0.18-1.44-1.67c-0.55,0.21-0.87,0.86-1.72,1.3
			c0.24,0.48,0.2,0.25,0.2,0.72c-1.24,0-1.98,0.64-2.63,1.59c1.37-0.48,3.38-1.88,4.85-1.08c-1.94,0.49-4.81,4.12-5.18,6.73
			c-0.65,0.06-1.63,0.76-2.18,1.35c0.33,0,0.72,0,1.05,0c-0.15,1.42-3.15,2.85-4.07,2.62c0,0.59-0.09,0.35,0.13,1.08
			c-3.57,0.81-4.01,3.09-4.73,5.94c2.96-0.1-1.05,1.95,1.65,2.2c-0.06,0.81-0.43,0.94-0.33,1.71c2.9,0,3.97,0.37,5.92-2.32
			c1.28,0.24,2.24,5.25,3.36,6.65c0.31,0.41-0.72,1.12,0.09,1.44c1.89,0.81,1.07-0.69,1.87-1.02c1.42-0.55,2.2-1.1,3.42-1.42
			c0.09-0.26,0.09-0.49,0-0.73c-0.7,0.08-0.91,0.06-1.31-0.28c0.41-0.71,2.11-3.05,2.24-3.42c0.43-1.2,2.04-2.24-0.39-2.24
			c0-1.91-1.5-3.7,0.31-6c0.91-1.18,2.59-1.24,3.42-2.46c0.55-0.79,0.57-3.08,1.87-3.98c1-0.68,3.29,0.48,3.46,1.78
			c0.39,2.81-7.86,4.37-4.07,9.22c2.66,3.4,7.32-0.73,10.45,1.24c-1.74,1.95-4.24,1.1-6.31,1.38c-0.79,0.14-3.66,1.18-3.7,1.22
			c0.3,0.12,0.52,0.28,0.8,0.41c-0.63,0-1.05,0.24-1.65,0.45c0.72,2.08,2.09-0.33,2.57-0.08c0.9,0.49,0.98,1.02,1.77,1.61
			c-2.26,3.15-2.11-0.53-3.42,0c-1.59,0.63-1.48,4.41-1.51,5.35c-1.35,0-3.09-0.81-1.96,1.22c-2.03-2.28-3.16,0.16-5.4,0.39
			c-0.76,0.06-4.01-2.03-4.23,0.26c-0.85-0.06-1.68-0.41-2.15-0.79c0.24-2.5,3.49,1.06,3.16-3.4c-0.48,0.24-2.07,0.85-2.37,0.73
			c0.02-0.41,0.26-1.14,0.39-1.55c-0.26,0.12-0.54,0.12-0.78,0c0.3-2.36-0.26-2.79-1.92-0.92c-1.16,1.3-0.31,2.71-0.37,3.97
			c-0.13,3.26,0.74,1.46-1.55,2.93c-1.16,0.75-3.2,1.51-4.51,1.51c1.68,2.38-1.59,2.14-2.83,3.17c-0.13,0.1-1.15,2.69-1.51,2.81
			c-1.24,0.43-2-0.81-2.81-0.73c1.92,3.64-1.89,1.1-3.03,2.08c-1.39,1.18,0.37,0.77,0.81,1.49c0.65,1,1.41,1.4,2.07,2.91
			c3.74,8.2-5.32,3.13-9.01,4.84c0.7,2.62-0.33,5.7,0.26,8.24c0.54,2.28-0.17,0.88,1.65,2.16c1.15,0.81,1.74,0.04,2.83,1.53
			c0.24-0.31,0.2-0.45-0.13-0.43c1.89-0.73,4.23-1.59,5.73-3.11c0.61-0.63,0.91,0.16,1.37-0.55c0.28-0.43-0.55-1.14-0.52-1.18
			c0.22-0.35,0.39-1.79,0.85-2.4c0.61-0.81,3.27-1.67,3.73-2.1c0.55-0.51-0.39-1.57,0.61-2.24c0.83-0.57,2.35,0.71,3.27,0.53
			c0.35-0.04,2.09-2.36,3.03-2.2c1.27,0.24,2.55,2.91,3.61,3.85c3.18,2.73,8.8,6.45,0.87,6.45c2.13,4.09,5.47-0.16,6.38-2.58
			c-0.39,0-0.76,0-1.13,0c-0.02-0.26,0.02-0.51,0.06-0.77c0.55,0.2,1.96,0.51,2.38,0.51c-0.81-1.73-3.09-3.72-5.07-4.05
			c0.2-1.36-1.85-3.07-2.77-2.99c0.28-4.56,2.94-0.51,4.97,1.12c1.39,1.12,3.2,1.89,3.97,3.46c0.48,0.98,1.15,3.58,1.65,4.64
			c-0.54-0.18-0.69-0.3-1.18-0.2c0.42,1.24,1.02,1.83,1.77,0.85c0.8,4.47,3.5-0.32,4.99-0.59c-0.24-0.47-0.55-0.86-1.05-0.86
			c0.11,0.28,0.11,0.59,0,0.86c-0.78,0-2.4-2.67-2.16-3.24c0.79,0.49,1.24,0.77,2.11,0.35c-0.07-0.24-0.24-0.35-0.46-0.35
			c2.98-4.82,4.62,7.69,5.08,7.69c0.52,0,0.41-1.63,0.41-1.85c1.15,1.12,2.07,0.89,2.98,1.04c-0.94-0.14,1.52-0.69,1.46-0.69
			c0.94-0.04,1.37,1.26,2.9,0.85c-0.02-0.43-0.04-0.81,0-1.26c2.88,0.65,3.11,1.75,2.05,5.13c-0.35,1.18-1.7,3.09-2.63,3.54
			c-1.13,0.53-2.18-0.73-3.24-0.12c1.65,0.85,2.79,6.29,4.66,4.19c2.79,3.21,3.48,7.61,5.31,10.99c1.16,2.12,3.55,3.78,4.55,6.22
			c1.35,3.3-0.44,5.29,3.35,5.37c1.7,0,3.72-1.79,5.4-2.56c1.92-0.85,2.87-1.75,4.4-2.52c1.98-1,3.16-0.57,4.53-2.32
			c0.65-0.77,1.98-2.77,2.83-2.38c0-2.03,0.04-2.11,1.39-2.75c-0.15-0.98-1.65-2.07-2.31-2.69c-1.18-1.12,0-2.28-1.7-0.43
			c-0.19-0.88-0.43-2.79-1.05-3.32c-0.72,0.98-0.94,1.06-1.05,2.6c-2.62-0.24-6.73-0.14-1.9-1.1c-0.08-0.33-3.77-1.47-3.96-1.59
			c-0.57-0.45-2.33-2.58-2.48-3.54c-0.5-3.34,0.96-2.24,2.76-0.86c2.22,1.67,2.98,2.44,5.58,3.38c0.44,0.16,1.5-0.16,2.11,0
			c0.46,0.14,0.57,1.28,1.2,1.59c1.17,0.61,4.07,0.9,5.44,0.96c3.16,0.12,4.05-0.18,6.58,1.4c1.37,0.85,1.5,1.93,3.55,2.36
			c-3.62,0,0.54,2.07,1.37,2.38c1.37,0.49,0.65-2.03,2.11,0.22c0.72,1.06,0.15,2.44,0.33,3.62c0.37,2.32,1.13,4.17,1.9,6.35
			c0.52,1.46,1.46,6.27,2.76,7.1c1.37,0.84,2.74-0.67,3.49-2.4c0.52-1.16,0.52-2.5,0.65-3.8c0.07-0.69-0.17-1.95,0.04-2.52
			c0.68-1.93,0.54-0.04,1.81-1.43c2.46-2.6,5.36-6.55,7.64-7.93c0.87-0.55,4.73-1.43,4.79-1.38c0.74,0.53,2.44,4.74,2.44,5.7
			c2.26,0-0.33,2.07,1.31,3.5c1.11,0.96,2.37-1.08,2.57-1.02c1.76,0.53,2.98,5.62,2.94,7.71c-0.02,1.12-1.57,2.3-0.89,4.21
			c0.41,1.14,2,2.2,2.57,3.64c0.68,1.75,2.11,8.04,5.16,6.43c-1.04-1.97-1.04-5.47-2.09-6.92c-1.54-2.01-3.33-1.91-3.75-4.84
			c-0.09-0.67-0.68-3.6,0.31-4.52c1.61-1.44,0.28-0.35,1.85,0.59c1.37,0.81,1.24,0.77,2.46,2.44c0.28,0.39,1.27,0.69,1.42,0.94
			c0.44,0.81-0.13,1.52,0.52,2.77c1.31-2.04,3.31-2.56,4.35-4.13c1.92-2.89,0.72-5.31-0.85-7.55c-2.39-3.42-3.01-7.57,2.5-7.57
			c0.35,1.75-2.03,3.66-1.11,4.56c2.26,2.2,2.74-4.23,2.68-4.19c0.98-0.97,3.11-1.04,4.22-1.42c1.63-0.57,2.16-0.96,3.53-2.1
			c1.9-1.57,5.42-5,5.86-7.83c0.33-2.07-0.67-0.79-0.85-2.2c-0.11-0.77,0.57-0.61,0.33-1.99c-0.3-1.67-2.4-3.74-2.37-4.94
			c0.07-2.3,2.2-1.52,2.96-2.75c0.66-1.08,0.66-1.02-1.3-1.81c-0.87-0.32-0.65,1.12-1.77,1.12c0.31-2.71-2.9-0.81-1.48-3.34
			c-0.09,0.18,2.55-1.1,2.7-1.18c2.89-1.2,2.03-1.59,0.85,1.75c0.85-0.53,3.13-1.85,4.09-1.38c2.01,1,0.42,1.34,0.59,3.17
			c3.11-1.42,2.16,3.99,1.83,5.64c2.22,0.26,4.73-1.36,4.68-3.72c-0.04-2.11-2.48-2.36-1.98-5.31c0.11-0.59,1.09-0.14,1.18-0.43
			c0.04-0.08,0.35-2.36,0.54-2.62c0.44-0.67,1.18-2.03,2.01-2.44c0.48-0.22,2.22,0.2,3.11-0.08c1.18-0.37,1.5-0.69,2.42-1.59
			c1.5-1.4,3.4-4.03,4.42-5.72c1.18-1.93,0.85-3.48,1.65-5.47c2.55-6.59,1.41,6.41,1.41,8.22c0.48-0.53,0.85-0.24,1.27-1.3
			c0.59,0.61,0.07,1.1,1.33,1.16c-0.35-2.65-2.92-4.98,0.65-4.98c0.09,0-1.7-8.99-1.77-10.05c-0.19,0-0.35,0-0.52,0
			c0.09,2.16-0.54,1.99-0.54,3.99c-1.5-0.98-1.2-3.09-3.94-3.99c-0.31,2.2-1.28,1.46-2.11,0c0.07,0.43,0.07,0.73,0,1.16
			c-1.16-0.18,0.02-1-0.85-1.81c-1.85,2.03-0.04-1.04,0.65-1.87c1.04-1.26,2.13-2.12,3.25-3.66
			C407.06,132.24,409.19,132.03,412.76,132.03z M221.09,133.38c-0.61,0.24-1.26,1.02-1.39,1.67
			C220.26,134.88,222.09,133.17,221.09,133.38C220.85,133.46,221.17,133.38,221.09,133.38z M222.48,149.59
			c1.33,0,2.33-1.02,3.09-1.16c1.16-0.2,2.81,0.41,3.75-0.06c1.66-0.83,2.2-2.62,1.76-4.27c-0.28-1.06-1,0.63-1.04,0.59
			c-0.44-0.51-0.37-1.34-0.72-1.67c-0.59-0.57-1.4-1.91-2.18-2.91c-1.18-1.53-1.33-1.16-1.52-2.38c-0.11-0.81,2.92-3.99-1.57-2.52
			c0.37-0.71,0.42-1.3,1.13-1.75c-1.48-1.63-2.13,0.9-2.68,1.38c-0.09,0.08-3.09,1.2-0.74,1.65c-0.2,0.75-0.96,1.85-0.92,2.32
			c0.78,0.1,1.76,0.79,1.96-0.14c-0.19,2.83,1.16,1.26,2.13,3.54c1.09,2.64-1.15,0.83-2.31,2.4c0.44,0.12,0.8,0.08,1.31,0.14
			c0,0.79-1.77,1.12-1.18,1.87c0.37,0.47,2.22-0.22,2.83,0.43C225.33,147.29,221.67,149.59,222.48,149.59z M221.35,142.15
			c2.92-0.47-4.64-4.6-2.88-0.73c-1.39,0.29-3.25,2.42-0.98,2.3c-2.96,4.72,1.16,1.59,3.68,2.2
			C221.26,144.77,221.37,143.55,221.35,142.15z M291.71,252.31c0-2.79,1.81-8.52-1.18-9.83c0,0.98-1.16,3.26-1.7,3.79
			c-1.11,1.12-2.83,0.65-3.96,1.85c-0.87,0.94,0.11,3.85,0,4.62c-0.2,1.46-0.78,1.65-1.05,3.48c-0.35,2.38,0.15,5.9,3.03,5.21
			c2.77-0.67,1.89-1.61,2.37-4.33c0.04-0.32,0.74-3.42,0.8-3.48C290.23,253.27,291.71,252.78,291.71,252.31z M269.87,183.28
			c-1.26-3.3-1.98-2.03-4.73-2.4c-3.98-0.53-7.05-1.93-10.78-2.87c0,3.97,0.07,3.24-2.37,3.27c0.5-0.04-2.15-0.85-1.89-0.73
			c-0.65,0-1.27,0-1.92,0c-0.2-0.37-0.33-0.75-0.39-1.16c-1.16-0.43-4.68-1.06-5.4-2.14c-1.35-1.99,1.52-2.36-0.92-4.09
			c0.65-0.59,0.57-0.67,1.46-0.88c-1.24-2.32-4.64-0.16-6.45-0.12c-1.92,0.04-3.97-0.9-6.43,0.29c-1.66,0.77-2.79,1.85-4.99,1.79
			c-2.66-0.04-4.09-2.07-4.09,1.73c-0.67,0-1.28,0-1.98,0c0.89,3.52-1.44,1.24-1.96,2.4c-0.83,1.85-0.55,4.05-1.31,5.23
			c-0.46,0.69-2.2,1.63-2.9,2.6c-0.76,1-1.66,2.69-2.5,4.03c-0.81,1.34-4.14,4.76-3.68,6.8c0.13,0.57,2-0.24,2.29,0.45
			c0.26,0.55-0.37,0.81-0.26,1.14c0.52,1.51-0.35,3.99-0.46,5.51c-0.13,1.85-0.28,3.44,1.59,5.55c1.98,2.3,3.83,4.19,6.05,6.31
			c0.76,0.73,1.13,2.4,2.76,2.77c1.83,0.37,2.07-0.49,3.81-0.73c1.51-0.2,2.66,0.53,3.7,0.49c2.18-0.08,2.03-1,3.81-1.67
			c1.44-0.53,4.55-0.39,5.38,0c1.31,0.65,0.98,1.71,2.92,2.2c3.37,0.81,3.18-1.02,3.26,2.89c0.04,1.83-0.63,4.17-1.57,5.21
			c4.21,1.46,6.99,10.95,6.31,15.46c-0.67,4.56-3.16,4.74-1.04,9.56c1.31,3.01,1.74,4.8,2.5,8.1c0.76,3.42,3.18,5.74,4.07,8.83
			c0.76,2.64-0.41,3.48,0.8,4.92c3.18,3.82,11.59-0.69,14.07-3.62c0.96-1.14,2.59-3.11,3.15-4.48c0.55-1.34-0.19-3.25,0.13-4.07
			c0.28-0.65,2.37-1.06,3.03-2.04c1.79-2.56-0.91-3.66-0.39-6.35c0.41-2.18,4.07-3.3,5.12-4.35c2.61-2.56,2.76-5.43,2.11-9.3
			c-0.37-2.18-2.2-5.41-1.44-8.06c1-3.56,5.14-7,7.62-9.4c1.83-1.77,3.64-3.8,4.86-6.22c0.83-1.61,1.37-1.75,1.57-3.91
			c0.33-3.4,0.83-2.59-1.83-2.6c-3.7-0.02-4.79,1.53-7.36-1.57c-1.48-1.81-3.86-3.5-5.27-5.51c-1.39-1.97-2.83-6.49-3.68-8.83
			C272.94,190.14,272.2,186.46,269.87,183.28C269.78,183.04,270.02,183.49,269.87,183.28z M136.14,294.04
			c-0.52-0.12-0.48-1.02-0.85-1.02c0.17,0-1.18,1.71-1.18,1.69c0,0.26,2.44,2.34,2.63,2.44c-0.11,0.18-0.17,0.39-0.13,0.59
			c-4.22,0-0.85,4.09-1.52,5.78c0.39-0.06,0.67-0.06,1.05,0c0.02,0.41-0.18,0.63-0.59,0.67c0.68,0.79,0.33,0.33,1,0.51
			c-0.22-0.08,2.77,4.13,3.27,4.48c2.51,1.71,4.9,0.87,7.3,0.67c-0.11-0.85-3.13-1.81-3.75-3.46c-0.59-1.59-1.94-5.7,0.46-5.43
			c0-1.67,3.05-3.54,2.83-4.74c-0.24-1.42-3.29-0.57-2.24-3.4c0.33-0.89,2-0.41,2.37-0.89c0.31-0.45-0.11-1.18,0.33-1.71
			c-0.3,0.37,1.55-3.17,1.31-1.87c0.43-2.32-1.57,0.06-1.13-3.38c3.09,1.36,3.7,0.12,3.24-3.03c2.55,0.08,5.62,0.18,6.79-2.54
			c1.26-2.89-1.15-2.24-1.61-4.76c2.85,0.41,3.92,1.51,6.12-0.65c1.04-1.02,1.85-5.11,3.01-4.92c-0.17,0.57-0.26,0.63-0.13,1.16
			c3.38-1.85,2.44-7.12,4.29-9.54c1.2-1.59,2.87-2.36,4.57-2.89c2.7-0.85,3.44-0.65,4.96-3.56c1.79-3.44,1.05-8.65,2.5-11.41
			c1.05-2.01,3.37-3.21,3.98-5.53c0.43-1.55,0.33-1.44-0.02-2.87c-0.78-3.09-0.74-1.06-2.5-2.58c-1.9-1.63-2.68-1.99-5.05-2.48
			c-1.28-0.29-5.79,0.06-3.9-1.02c-0.7-0.53-1.83-1.3-2.76-1.5c-2.31-0.49-1.79,0.08-3.42,0.85c0.15-0.24,0.83-1.93,0.85-2.07
			c-0.61-0.08-1.46-0.41-2.05-0.61c-0.59-0.2-0.26,1.46-1.5,1.3c0.24-0.61,2.64-3.93,0.39-3.93c0.39-4.39-3.31-4.62-5.77-5.31
			c-2-0.53-6.42-2.77-6.42-5.23c-1.13,0.43-3.14-0.14-1.39-1.02c-1.16-1.65-3.59,0.67-4.27,0.65c-2.51-0.1-3.72-2.42-6.12-2.91
			c0,1.42-0.89,1.1-1.65,1.95c-0.11,0.12,0.22,2.08,0.13,2.4c-1.35-1.22-1-3.82,0.39-4.76c-2.22-0.69-8.43,3.84-8.8,6.92
			c-0.2,1.71,1.42,3.5,0.37,5.86c-0.57,1.3-3,3.99-4.27,4.47c0.22,2.2-0.61,2.6,1.44,2.77c-0.85,1.63-2.85,2.6-1.7,5.27
			c0.28,0.67,1.57,0.81,2.11,1.65c0.52,0.84,1.07,2.08,1.41,2.97c0.72,1.95,1.39,5.21,2.53,6.67c1.57,1.99,3.46,2.56,5.42,4.25
			c3.31,2.87,2.09,8.97,1.55,13.45c-0.3,2.44-1.13,4.78-1.39,7.04c-0.3,2.69,0,5.49-0.98,8.02c-1.09,2.81-1.02,4.46-1.7,7.61
			c0.04-0.18-0.02,2.08,0,1.51c-0.02,0.49-0.89,0.98-0.7,1.59c0.92,3.03,1.72-1.51,2.66-1.59c-0.68,2.12-0.96,3.91-1.2,6.31
			c-0.52-0.96-0.65-0.43-0.83-1.75C135.28,291.52,136.2,293.49,136.14,294.04z M139.44,200.66c2.29-0.57,5.6-0.14,7.9-1.02
			c-1.02-1.38-4.14-0.94-6.07-1.22c-1.22-0.16-3.74-1.75-3.94,0.37C137.2,200.13,138.31,200.9,139.44,200.66
			C139.69,200.6,139.27,200.7,139.44,200.66z M133.26,200.21c-0.54-0.91-1.63-1.22-2.76-1.02
			C131.19,200.21,132.46,201.08,133.26,200.21C133.15,200.05,133.06,200.45,133.26,200.21z M135.63,196.97
			c-1-1.77-5.1-2.83-6.84-3.56c-1.13-0.45-3.7-1.61-5.1-0.71c-1.55,1-1.16,1.14,0.5,2.01c0.72,0.41,1.15-0.83,1.85-0.69
			c0.96,0.16,1.57,1.08,2.09,1.28C130.84,196.38,132.54,196.97,135.63,196.97z M199.14,118.49c1.2-0.21,1.63-0.18,1.96,1.16
			c-0.91-0.18-1.72-0.18-2.63,0c0.04,0.28,0.09,0.59,0.13,0.87c2.68-0.49,0.61,1.18,1.98,1.73c0.3,0.1,3.38,0.45,3.55,0.43
			c2.37-0.12,2.57-0.67,4.6-1.87c1.72-1.04,2.48,0.41,3.01-1.6c0.22-0.79-1.04-0.81-1.31-0.86c0.57-3.6-3.88-0.4-6.08-0.71
			c-0.33-0.03-2.29-0.34-1.94-0.29c-0.94-0.09,0.07-1.63-0.92-0.3C199.09,116.16,198.5,118.63,199.14,118.49
			C199.33,118.45,198.96,118.53,199.14,118.49z M158.63,147.41c-0.52,0.37-3.57,5.78-3.35,6.18c0.46,0.85,2.09,0.04,2.98,0.33
			c1.35,0.45,1.65,1.06,3,1.75c2.05-3.42,0.13-4.6-2.88-5.66C158.35,150.08,160.2,146.44,158.63,147.41
			C158.46,147.54,158.8,147.33,158.63,147.41z M151.53,150.61c-1.31-0.47-1.89-1.08-3.16-0.87
			C149.57,150.53,150.35,152.48,151.53,150.61C151.34,150.55,151.47,150.71,151.53,150.61z M188.64,111.7
			c0.37-0.15,0.78,0.44,1.07,0.53c2.33,0.82,2.33-0.15,4.23-0.98c1.7-0.72,5.92-1.73,6.51-3.48c-2.29,1.97-7.69-2.63-1.94-2.37
			c-0.24-0.01,2.57,3.24,3.22,0.43c0.24-1.04-2.11-3.54-2.85-3.99c0.41-0.4,3,1.68,2.22-1.01c-0.37-1.26-1.04-1.28-2.55-0.72
			c0.3-0.51,0.59-0.47,0.78-0.94c-0.28-0.09-0.54-0.21-0.78-0.38c0.83-0.01,3.22,1.27,4.33,0.45c2.55-1.87-1.57-1.2-1.57-2.11
			c0-0.22,3.88-0.43,4.14-0.94c-0.81-0.88-2.96-2.41-0.39-2.64c0.06-2.34-3.14-2.33-2.77-3.65c0.15-0.54,1.7-0.74,2.11-0.58
			c1.68,0.71,0.3,0.86,1.05,2.53c0.46-3,1.51-3.72-1.78-3.72c0.91-1.11,0.04-0.31,1.57-1.12c-0.92-1.56-3.2-0.06-3.22-0.07
			c-2.35-2.09,5.94-7.73,6.71-8.81c-1.05,0.07-2.07-0.13-3.11-0.16c2.15-0.49,3.37-0.42,5.21-1.74c0.5-0.36,3.16,0.01,1.96-1.94
			c-0.2-0.35-2.96-0.18-3.22-0.15c-1.9,0.25-3.68,0.62-5.27,1.08c-1,0.32-5.12,2.72-5.71,2.6c2.37-3.27,3.66-3.75-0.65-4.46
			c0,1.89-1.24,1.7-2.9,2c0.28-1.54,1.24-0.93,2.24-1.44c-2.44-1.99-6.92,1.1-9.6,0.64c0.72-2.37,11.69-2.56,14.2-2.88
			c0-0.22,0-0.44,0-0.66c-2.52-0.01-3.64-0.43-5.59-0.79c-2.92-0.53-5.77,0.22-8.62-0.1c2.09-1.58,6.34-0.88,9.34-0.88
			c-0.33-2.56-13.48-1.51-15.18-0.91c-1.81,0.66-0.18,1.32-2.46,1.6c-1.33,0.16-2.44-0.7-3.81-0.76c-1.26-0.06-3.75,0.21-5.16,0.8
			c0.43,0.93,1.42,0.53,1.42,1.84c-0.54-0.46-2.9-1.55-2.15,0.06c-0.18-0.4,4.18,2.44,2.94,2.44c-2.77,0-4.86-2.45-7.8-2.45
			c0,0.69,1.81,1.88,2.07,2.92c-1.76-0.55-2.94-2.31-4.83-2.5c0.48,1.05,0.63,3.59-0.92,2.57c0-0.01,0.74-2.1-0.3-2.72
			c-1.24-0.77-5.18,1.9-6.01,1.44c0.91,0.39,2.44,0.93,3.14,1.77c-1.26-0.01-2.31-0.96-3.62-1.13c-0.85-0.13-0.63-0.87-1.76-0.28
			c-1.09,0.56-0.22,1.46-0.52,1.65c-1.04,0.66-3.18,0.93-5.14,2.08c-0.78,0.46-2.66,0.42-2.55,1.89c1.13,0.33,1.7,0,2.76,0
			c0.76,0-0.04,2.72-0.18,2.87c-0.35,0.34-2,0.24-2.51,0.39c-1.35,0.39-3.77,0.22-5.14,1.12c-4.46,2.88,3.77,3.12,6.19,3.12
			c-0.48,2.21-5.45,0.58-5.45,1.84c0,0.62,2.16,1.29,2.63,1.4c-0.37,0-0.41,0-0.52,0.29c0.67,0.59,1.94,1.81,2.92,1.41
			c-0.07-0.15-0.5-0.58-0.28-0.73c1.48-1.01,7.84-0.23,9.6,1.01c2.53,1.79,4.47,5.45,4.72,8.82c0.2,0,0.43,0,0.63,0
			c-2.51,4.96,3.53,0.88,5.25,5.36c-1.63,0.05-3.16-1.2-4.66-0.51c0.37,1.23-0.98,3.23,1.31,3.3c2,0.05,2.64-1.52,0.31-1.91
			c3.31-0.44,2.51,0.98,3.44,3.54c-1.48-0.08-2.64,0.2-2.61,1.8c-3.29-0.47,0.17,4.26,0.37,5.03c-0.07-0.2,0.98-0.5,1.18-0.04
			c0.15,0.39-1.07,0.83-0.74,1.17c-0.52-0.53,0.59,2.03,0.46,1.67c-0.02-0.08,1.28-0.83,1.52-0.81c-1.02,2.28,0,6.12,2.24,7.97
			c1,0.83,5.92,2.93,6.71,2.44c1.09-0.65,0.8-3.13,1.24-4.25c0.28-0.67-0.67-0.87-0.3-1.67c0.18-0.43,1.16-0.14,1.48-0.79
			c1.33-2.69,0.52-5.25,3.85-5.56c-0.09-1.75,0.07-0.5,0.92-1.09C181.54,121.31,188.6,111.71,188.64,111.7z M116.88,89.33
			c1.41,2.38,7.73,1.52,10.06,1.09c0.63,1.74,4.36,0.66,4.22-1.6c-0.35,0.18-0.7,0.35-1.05,0.51c-0.11-0.36-0.22-0.72-0.33-1.08
			c1.5-0.31,1.42-0.73,1.05-2.18c1.89,0.57,3.48,0.26,2.16-1.65c-0.2-0.29,1.98-0.07,1.98-0.37c0-2-3.35-1.35-4.2-0.52
			c-0.09-0.23-0.18-0.48-0.26-0.71c2.15-1.66,4.47,0.64,6.49-1.38c-0.39-0.32-0.78-0.62-1.17-0.93c1.35,0.4,2.64,0.72,4.14,0.06
			c-0.65-0.55-0.55-0.98-1.39-1.37c3.11,0.82,6.77-2.91,9.65-3.75c-0.92-1.02-3.4-0.03-4.99-0.23c1.29-1.84,8.49-0.06,8.95-2.6
			c0.3-1.73-6.25-2.03-7.82-1.59c-0.61-0.67-3.11-1.41-4.68-1.6c-0.61,2.41-7.67-1.11-7.16,1.68c-1.98-0.81-6.34-1.27-7.84,1.08
			c1.66-0.1,3.48,0.27,4.29,1.74c-1.66-0.48-3.88-1.64-5.33-1.95c-1.52-0.33-2.75,0.56-3.18,0.62c-1.59,0.24-4.77,1.17-6.69,1.62
			c-0.02,0.21-0.04,0.44-0.06,0.66c1.63,0.56,1.74,1.6,3.55,2.2c2.59,0.88,2.68-0.65,4.92-0.98c-4.49,2.89,2.48,1.89,3.7,1.56
			c2.51-0.68,4.25-2.29,6.9-2.2c-1.05,0.12-2.07,0.64-2.9,1.43c0.96-0.18,1.78,0.16,2.7,0.15c-1.33,1.09-5.57,1.44-7.49,1.58
			c0,0.24,0,0.5,0,0.72c1.28,0.59,2.03,1.63,3.55,1.6c-2.24,0.67-5.58-1.75-8.1-2.1c0.2,2.36,4.03,4.25,6.19,4.13
			c-0.5,0.64-0.72,1.12-1.13,1.65c-3.75-4.05-9.38,2.24-2.42,0.87c-0.37,0.22-0.74,0.44-1.13,0.65c0.81,1.46,2.31,0.99,3.42-0.28
			c-1.28,3.74-5.05,0.19-7.36,0.52C119.1,88.02,118.19,88.69,116.88,89.33z M117.47,84.62c0.37-0.49,1.04-0.18,0.85-1.52
			c4.2,0.7,3.22-2.15,0.61-3.95c0.15,0.11-8.49-4.67-8.28-3.28c0.61,0.14,1.17-0.35,1.31,0.51c0.02,0.12-2.31,0.45-2.57,0.43
			c0.54,0.4,0.7,0.99,0.92,1.23c-0.63-0.11-1.18,0.11-1.78,0.07c-0.2,0.5-0.44,1.6-0.46,2.25c1.57,1.74,3.88,0.25,5.58,1.81
			c-1.02,0.07-2.05,0.63-3.01,0.79C112.59,84.89,115.18,85.61,117.47,84.62z M114.05,87.09c-0.18,0.34-0.39,0.67-0.59,1.02
			c1.15,0.38,1.96,0.3,2.96-0.22C115.8,86.62,115.19,86.85,114.05,87.09z M115.1,95.84c1.29-0.29,15.83,1.02,13.68-2.67
			c-1.28-2.22-7.01,0.16-8.76,0.11c-3.68-0.09-4.18-4.28-7.47-3.22C113.77,92.37,112.49,94.84,115.1,95.84z M105.97,96.14
			c0.31,0,0.61,0,0.92,0C106.48,95.05,106.48,95.91,105.97,96.14z M108,94.33c0.68,0.66,4.25,2.48,3.88-0.07
			C111.59,92.17,108.61,93.17,108,94.33z M111.24,91.21c1.46-1.68-0.68-2.87-2.24-2.6C105.8,89.17,109.76,91.23,111.24,91.21z
			 M108.54,87.74c1.18-0.02,2.33-0.18,3.48-0.5c0-0.24,0-0.5,0-0.72C110.55,86.3,108.98,86.17,108.54,87.74z M108.8,85.93
			c3.29-0.89-2.2-2.52-3.22-2.17C106.02,85.49,107.09,86.53,108.8,85.93z M105.12,80.52c-0.48-1.01-0.81-1.56-2.03-1.31
			c0,0.29,0,0.58,0,0.86C103.97,80.49,104.3,80.68,105.12,80.52z M104.27,86.73c0.96-3.62-5.53-5.35-7.97-4.34
			c0.94,0.43,1.42,1.24,2.11,1.89c-0.37,0-0.74,0-1.11,0C98.26,85.74,102.4,85.94,104.27,86.73z M101.77,86.88
			c-0.83-0.36-1.09-0.88-2.11-0.58C100.05,87.54,100.7,87.13,101.77,86.88z M101.16,93.18c1.35-0.73,2.16-0.16,2.44,1.52
			c1.76-0.08,3.07-0.75,2.87-2.82c-0.24-2.27-2.31-1.31-4.18-2.11c0.65,0.5,1.35,1.25,1.72,2.02c-0.07-0.13-2.63-1.22-3.11-1.29
			c0.13,0.61,0.15,1.18,0.33,1.8c-1.22-1.03-1.76-2.71-3.48-2.9C97.55,91.59,99.37,92.69,101.16,93.18z M97.35,93.76
			c0.15,0.11,1.44,1.75,1.44,0.06C98.79,92.86,97.53,93.76,97.35,93.76z M97.81,88.32c-0.48-0.85-1.05-1.47-1.9-1.87
			C95.98,87.9,96.63,88.71,97.81,88.32z M132.08,114.29c0.94,0.31,3.55-0.06,2.63-1.7C133.89,111.14,130.95,112.24,132.08,114.29z
			 M110.83,102.06c0.39-0.77,1.04-0.49,1-1.66c1.83,0.72,2.59-1.07,3.55-2.52c-1.35-0.55-4.2-1.59-5.4-0.64
			C108.91,98.09,108.44,102.8,110.83,102.06z M105.04,104.3c3.03,0,3.64-3.01,0.72-4.48c2.22-0.78,0.48-2.27-0.78-2.72
			c-0.22-0.07-2,0.99-3.03,0.76c1.85,2.13,0.43,3.48-1.63,2.24C100.42,101.57,103.82,103.6,105.04,104.3z M97.68,99.75
			c0.55-1.98-1.74-2.38-2.83-1.29C95.89,99.52,96.61,100.25,97.68,99.75z M93.34,98.09C93.45,98.21,94.17,99.13,93.34,98.09
			L93.34,98.09z M86.96,84.93c1.57,0,3.12,0,4.68,0C90.82,83,88.23,83.56,86.96,84.93z M88.29,88.11c1.31-0.01,2.98-0.17,1.83-1.59
			c0.55-0.27,0.76-0.02,1.13-0.72c-1.53-0.16-3.05-0.09-4.35,0.85C87.16,87.63,87.62,87.76,88.29,88.11z M85.98,86.81
			c-0.41-0.94-0.52-1.56-1.78-1.31C84.5,86.69,85.05,86.57,85.98,86.81z M84.66,90.42c-1.87,0.6-3.74,2.72-2.42,3.88
			c1.17,1.04,5.44-0.03,6.9,0.11c-0.5,0.64-3.57,0.02-3.37,1.19c0.28,1.35,2.57,0.51,3.33,0.36c1.61-0.33,7.64-1.19,7.19-3.65
			c0.17,0.95-3.96-2.5-3.61-2.39c-1.92-0.62-2.64,0.61-1.65,2.53c0.37,0.16,0.96-0.09,1.09,0.41C92.32,93.63,85.64,90.8,84.66,90.42
			z M85.05,89.05c0.43,0.2,0.55,0.97,1.59,0.72c-0.02-0.23-0.06-0.49-0.07-0.72C86.07,89.19,85.57,89.19,85.05,89.05z M79.8,92.16
			c-0.22,0.28-0.44,0.58-0.67,0.86c1.44-0.02,1.17,0.27,1.92-1.23C80.63,91.92,80.23,92.04,79.8,92.16z M81.91,90.34
			c1.09-0.42,1.66-1.36,1.83-2.74c-3.98-1.07-5.25,2.95-8.88,3.39c1.7,2.85,4.25,0.26,5.79-1.29
			C81.04,90.96,81.48,90.06,81.91,90.34z M82.82,109.22c2.85-0.25,2.92,1.38,5.14,2.03c2.2,0.66,3.88-1.05,5.84-1.45
			c1.18-0.23,8.99,1.17,6.25-1.22c1.09,0.02,1.44-0.62,2.11-0.95c-2.42-1.83-3.42-1.82-4.64-4.36c-0.46-0.99-2.51-5.78-4.18-3.5
			c-0.76,1.07,2.03,3.56-0.06,3.39c-1.05-0.1-0.98-3.2-2.96-3.33c0.24,0.45,0.43,0.98,0.65,1.44c-0.81,0.37-1.22,0.51-2.09,0.72
			c0.2-0.41,0.3-1,0.44-1.43c-1.46-0.61-2.85-0.31-3.68,0.27c0.65-2.71-1.68-1.41-2.88-0.83c-2.16,1.06-2.24,1.59-3.22,3.44
			c1.44,0.62,3-0.4,4.33,0.72c-1.07,0.12-2.09,0.55-2.88,1.24c1.46,0.86,6.19-0.45,6.97,1.01c0.28,0.54-5.2,0.81-6.05,1.36
			C82.21,108.26,82.52,108.74,82.82,109.22z M93.8,112.05c1.18-0.35,1.92-0.62,2.18-1.73c-1.22,0.24-2.44,0.73-3.49,1.44
			C92.93,111.85,93.37,111.95,93.8,112.05z M75.46,104.23c2.33,0.39,3.27-3.03,5.29-4.17c3.27-1.85,4.07-2.4-0.13-3.35
			c-1.07-0.24-6.49-1.65-7.62-0.61c-0.63,0.58-0.81,4.84-2.2,6.54c1.52,0.1,2.94,1.01,3.55,2.6
			C74.72,104.92,75.09,104.57,75.46,104.23z M20.68,130.43C19.32,128.45,17.91,130.69,20.68,130.43L20.68,130.43z M42.78,128.84
			c0.31-2.3,3.11,0.53,4.55,1c1.87,0.61,3.64,0.16,5.46,0.81c3.2,1.14,5.4,4.35,8.62,4.96c0.3,0.73,0.54,1.46,1.04,2.03
			c0.17,0.2,1.55,0.9,1.72,1.22c1.11,1.83,1.76,3.62,2.72,5.05c1.7,2.52,2.35,2.75,4.77,4.33c1.74,1.14,3.81,3.07,3.55,5.76
			c-1.96-2.64-4.01-6.29-7.36-5.86c1.57,2.07,3.9,2.81,4.9,5.41c1.02,2.69-0.3,5.29-0.3,7.53c-0.04,4.17,1.89,9.99,4.47,13.1
			c1.5,1.81,3.81,1.89,5.18,4.23c1.11,1.85,2.05,4.21,3.09,6.12c0.35,0.61-0.43,0.91,0.37,2.2c0.48,0.77,1.81,1.46,2.46,2.2
			c0.44,0.49,2.61,3.3,2.77,4.35c2.03-2.28-5.9-10.25-6.12-13.53c2.22-0.31,4.75,5.27,6.38,7.2c2.09,2.46,3.98,5.8,6.12,8.48
			c-3.11,2.32,9.23,7.36,11.24,7.69c0.61,0.1,1.29-0.73,2.42-0.36c1.29,0.41,1.87,1.91,2.9,2.58c1.04,0.71,4.42,1.32,4.53,1.16
			c1.79,1.38,2.7,4.09,3.64,5.09c1.37,1.38,4.47,2.44,6.42,3.38c-0.54-3.66,3.11-0.32,3.25-1.55c0.3-2.4-4.57-0.9-5.92-1.87
			c-3.25-2.4,0.22-5.09-1.44-7.75c-1.42-2.26-5.05-0.47-6.8-1.32c1.55-1.87,3.86-7.81,0.52-7.59c-3.03,0.23-1.55,2.54-3.42,4.17
			c-1.72,1.51-4.49,0.53-5.84-0.75c-2.96-2.87-2.85-10.76-1.07-13.65c2.44-3.95,6.32-0.12,9.02-1.06c-0.65-2.48,1.9-2.11,3.49-1.99
			c-0.15-0.02,3.62,0.77,3.14,0.41c1.18,0.91,3.11,7.73,4.35,7.61c1.5-0.14-1.15-9.2,0.87-11.74c1.29-1.65,4.01-2.05,4.79-4.01
			c0.67-1.67-0.3-2.48-0.72-4.56c1.11,0.32,0.54-0.67,1.7,0.65c0.43-1.02,1.35-3.72,2.02-4.43c0.83-0.81,2.98-0.98,4.36-1.4
			c-2.02-4.19,5.64-7.2,8.49-6.47c-0.39-0.08-2.76,0.94-3.09,1.67c-1,2.24,1.78,0.33,1.87,0.31c2.37-0.31,5.03-2.3,5.75-4.62
			c-1.89,0.98-2.42,2.64-4.73,1.3c-3.07-1.83-0.11-3.46-0.81-4.68c-1.94-3.3-6.82,2.69-8.86,4.11c0.54-1.1,1.24-2.05,2.11-2.85
			c-0.5-0.12-1.02-0.28-1.52-0.43c2.57,0.63,4.05-2.91,6.25-3.6c1.46-0.47,3.49,0.12,4.97,0c2.31-0.24,2.07-0.53,4.03-1.46
			c1.79-0.81,4.64-1.12,3.79-3.64c-0.87-2.58-3.92-0.75-5.75-0.55c0.87-1.63,2.64-1.28,3.99-2.52c-2.31-0.41-4.4-1.38-5.71-3.62
			c1.42-0.96-2.63-5.76-3.35-7.53c-1.16,1.42-1.16,3.72-3.03,4.19c-1.81,0.43-1.57-1.65-3.61-1.06c1.28-4.84-2.27-6.51-5.7-7.47
			c-3.88-1.12-6.47,1.06-3.72,5.49c-0.3,0-0.61,0-0.92,0c-0.3,0.75-0.09,1.22-0.52,2.03c3.64,1.67,2.81,7.75-1.39,7.59
			c1.2,1.42,2.27,6.73-0.39,7c-2.59,0.2-3.2-5.33-2.96-7.43c-3-0.55-4.81-1.04-7.4-2.5c-1.15-0.63-2.5-1.1-3.51-1.55
			c-0.91-0.43-1.13,0.49-1.9-0.04c-0.59-0.39-0.68-1.83-1.07-2.36c-1.33-1.81-2.02-0.77-1.76-3.72c0.09-1.22,1.2-3.15,2-4.05
			c0.85-0.94,2.85-1.2,2.64-2.56c-0.15-0.9-3.4-1.4-4.05-1.67c1.7,0.18,4.86,1.93,5.33-0.43c2,1.32,2.94-0.18,3.48-2.03
			c-1.81,0.13-3.18-0.84-4.73-1.66c1.18,0.05,7.99,1.87,5.2-1.38c3.03-0.25,0.96,5.08-0.39,5.65c1.11,1.3,1.53,1.63,3.22,1.61
			c-0.09,0,1.55-0.85,2.03-0.96c0.59-0.1,1.24,0.67,1.72,0.59c3.77-0.71-3.64-3.58-4.27-5.08c1.7-0.07,0.67-0.04,1.37-1.01
			c2.59-0.21,3.77-2.62,2.03-4.99c3.53-0.66-0.83-3.19-2.09-3.83c2.16-0.37,4.47,0.76,6.77-0.15c-0.35-0.36-0.7-0.71-1.05-1.09
			c2.4,0.77,4.07,2.38,6.18,4.12c0.89,0.72,2.53,1.83,2.59,3.3c0.07,1.97-3.31,1.89-1.79,4.38c-1.26,0.32-5.73-0.77-5.53,1.67
			c0.2,2.38,3.48-0.22,4.31-0.12c2.64,0.37,2.85,2.38,4.53,3.91c1.66,1.46,4.31,1.26,6.29,2.44c0.07-1.83-2.48-2.75-3.42-4.35
			c1.74,0.94,3.48,1.89,5.12,2.97c0.22-0.45,0.57-1.91,0.72-2.46c-1.61-1.69-3.48-3.21-5.05-5.49c1.2-1.93,1.66-0.59,3.07,0.22
			c2.26,1.31,1.28,2.05,3.07,1.52c-0.13,0.03,2.22-2.04,2.2-2.02c0.76-1.56,0.89-0.4-0.13-1.81c-1.02-1.43-11.06-4.5-6.05-5.65
			c-0.5-0.15-1-0.29-1.52-0.44c0.43-0.35,0.33-0.39,0.92-0.65c-0.78-0.35-1.07-1.01-2.03-1.22c0.15-0.27,0.3-0.53,0.46-0.8
			c-1.85-0.43-2.72-0.89-4.4-1.37c0.3-0.21,0.61-0.44,0.91-0.65c-3.33-0.09-3.53-2.17-5.84-2.97c-1.78-0.61-5.2,1.58-5.95,1.13
			c-1.16-0.67,0.3-1.36-0.46-2.56c-1.29-2.06-1.11-1.8-3.22-1.37c-3.18,0.65-3.01,3.46-1.41,5.78c-3.33,0.48-2.87-4.99-0.48-6.29
			c-2.53-0.11-4.9,0.19-5.92,3.16c-1.37,4.06,1.37,2.22,2.7,4.36c-0.96-0.26-1.53,0.17-2.42,0.13c0.81,1.28,4.47,1.71,6.05,2.24
			c-0.96,0.43-1.46,7.54-4.01,6.08c-1.15-0.65,0.04-2.63,0-2.68c-1.02-1.25-1.94-0.76-2.29-0.98c-0.43-0.26-2.37-0.96-3.12-2.21
			c-1.05-1.71-1.33-6.43-4.55-3.96c-3.03,2.32,3.25,6.5-0.3,5.69c0.54,1.63,1.65,1.55,2.9,0.29c-0.04,2.48-3,1.64-2.11,4.49
			c-1.48-1.11-1.13-0.65-1.05-2.32c-1.39-0.42-0.26-0.07-0.98-1.23c0.28,0,0.55,0,0.85,0c0.07-1.62-0.91-2.6-2.37-2.89
			c-0.37,0.41-1.24,1.44-1.57,1.87c0.68,0.29,1.22,1.08,1.9,1.38c-1.57,3.12-4.62,1.71-7.23,1.05c-1.7-0.43-1.9-1.16-3.55-0.41
			c-2.42,1.13-1.29,1.3-1.65,3.99c-1.07-4.21-6.14-2.8-9.21-3.11c0.26-0.16,0.55-0.89,1.44-1.22c-1.52-1.35-6.62-2.95-8.41-3.34
			c-2.24-0.47-4.42,2.06-5.25-0.93c-0.65,2.41-1.11,0.88-2.14,0.82c-0.33-0.02-0.7-1.64-1.48-1.74c-1.04-0.13-0.39,0.72-0.96,0.84
			c-1.15,0.28-4.31,2.17-5.68,3.03c1.2-1.74,3.16-1.5,4.33-3.04c-2.22,0.01-4.84,1.34-7.06,1.85c-3.74,0.85-5.23-0.84-9.04-1.31
			c-2.87-0.35-5.49-1-8.47-1.26c-3.14-0.28-4.77-1.52-8.03-1.09c0.11-0.26,0.22-0.53,0.33-0.79c-2-0.41-4.7,1-6.47,1.59
			c-2.44,0.8-2.61,2.43-4.31,3.58c-2.42,1.62-4.14-0.1-2.2,2.72c1.22,1.78,3.86,2.02,4.75,4.33c-1.39,0.51-2.88,0.43-2.96-1.29
			c-1.57,1.23-3.35,0.79-4.66,2.52c1.7,0.76,1.68,2.3,3.14,2.71c1.68,0.47,3.9-0.79,5.47-0.96c0.22,5.29-5.36,1.55-6.18,6.23
			c-0.2,1.26,2.44,6.55,4.14,3.46c0.92,0.98,1.18,2.12,0.78,3.46c1.66-0.37,3.53,0.26,4.35-0.85c0.52,0,1.2,0.16,1.9,0.14
			c-1.24,6.06-7.51,5.07-10.45,8.77c4.25,1.14,11.32-6,14.98-8.26c-0.33-0.53-0.65-1.06-0.98-1.59c2.24-0.81,3.07-4.9,5.66-3.05
			c-1.83,0.24-2.85,1.42-2.31,3.34c1.33-0.87,2.83-1.63,4.4-1.75C43.04,129.47,42.91,129.15,42.78,128.84z M37.4,134.76
			c0-0.45,0-0.85,0-1.3c-1.33,1.06-3.27,1.34-2.18,3.26C36.09,136.31,36.88,135.64,37.4,134.76z"/>
	</g>
</g>
<g id="Plant_1_">
</g>
<g id="Character">
</g>
<g id="Device">
</g>
<g id="Books">
</g>
<g id="Table">
</g>
<g id="Text">
	<g>
		<path class="st3" d="M144.9,179.12v-30.9h5.61v12.93h6.3v-12.93h5.65v30.9h-5.65v-13.96h-6.3v13.96H144.9z"/>
		<path class="st3" d="M173.52,179.47c-1.65,0-3-0.31-4.04-0.93c-1.04-0.62-1.81-1.54-2.31-2.75c-0.5-1.21-0.74-2.66-0.74-4.37
			v-6.64c0-1.76,0.25-3.23,0.74-4.43c0.5-1.2,1.27-2.1,2.33-2.71c1.06-0.61,2.4-0.92,4.03-0.92c1.76,0,3.12,0.33,4.1,0.99
			c0.98,0.66,1.68,1.62,2.1,2.88c0.42,1.26,0.63,2.79,0.63,4.6v3.13h-8.78v4.35c0,0.71,0.07,1.3,0.21,1.76
			c0.14,0.46,0.36,0.79,0.67,0.99c0.31,0.2,0.67,0.31,1.11,0.31c0.46,0,0.83-0.11,1.11-0.32c0.28-0.22,0.48-0.53,0.61-0.95
			c0.13-0.42,0.19-0.95,0.19-1.58v-1.83h4.85v1.49c0,2.24-0.56,3.96-1.68,5.15C177.51,178.87,175.81,179.47,173.52,179.47z
			 M171.57,165.77h3.89v-2.1c0-0.76-0.06-1.38-0.19-1.85c-0.13-0.47-0.33-0.81-0.61-1.03c-0.28-0.22-0.67-0.32-1.18-0.32
			c-0.46,0-0.83,0.11-1.11,0.34c-0.28,0.23-0.48,0.61-0.61,1.14c-0.13,0.53-0.19,1.3-0.19,2.29V165.77z"/>
		<path class="st3" d="M184.2,179.12v-30.9h5.15v30.9H184.2z"/>
		<path class="st3" d="M193.82,179.12v-30.9h5.15v30.9H193.82z"/>
		<path class="st3" d="M209.76,179.47c-1.6,0-2.93-0.3-3.97-0.9c-1.04-0.6-1.83-1.47-2.35-2.61c-0.52-1.14-0.78-2.53-0.78-4.16v-7.4
			c0-1.63,0.26-3.01,0.78-4.16c0.52-1.14,1.3-2.02,2.35-2.61c1.04-0.6,2.37-0.9,3.97-0.9c1.6,0,2.93,0.3,3.99,0.9
			c1.06,0.6,1.84,1.47,2.37,2.61c0.52,1.14,0.78,2.53,0.78,4.16v7.4c0,1.63-0.26,3.01-0.78,4.16c-0.52,1.14-1.31,2.02-2.37,2.61
			C212.69,179.17,211.37,179.47,209.76,179.47z M209.8,175.88c0.58,0,1.02-0.17,1.3-0.5c0.28-0.33,0.46-0.78,0.53-1.35
			c0.08-0.57,0.11-1.2,0.11-1.89v-8.09c0-0.69-0.04-1.31-0.11-1.87c-0.08-0.56-0.25-1.01-0.53-1.35c-0.28-0.34-0.71-0.51-1.3-0.51
			c-0.59,0-1.02,0.17-1.3,0.51c-0.28,0.34-0.46,0.8-0.55,1.35c-0.09,0.56-0.13,1.18-0.13,1.87v8.09c0,0.69,0.04,1.32,0.13,1.89
			c0.09,0.57,0.27,1.02,0.55,1.35C208.78,175.72,209.22,175.88,209.8,175.88z"/>
	</g>
	<g>
		<path class="st3" d="M106.2,249.22v-30.2h4.21v13.05h7.75v-13.05h4.21v30.2h-4.21V235.1h-7.75v14.13H106.2z"/>
		<path class="st3" d="M132.71,249.52c-1.59,0-2.85-0.32-3.77-0.97c-0.92-0.65-1.57-1.57-1.96-2.76c-0.39-1.19-0.58-2.6-0.58-4.21
			v-6.26c0-1.61,0.19-3.02,0.58-4.21c0.39-1.19,1.04-2.11,1.96-2.76c0.92-0.65,2.17-0.97,3.77-0.97c1.59,0,2.84,0.32,3.75,0.97
			c0.91,0.65,1.55,1.57,1.94,2.76c0.39,1.19,0.58,2.6,0.58,4.21v6.26c0,1.62-0.19,3.02-0.58,4.21c-0.39,1.19-1.03,2.11-1.94,2.76
			C135.55,249.2,134.3,249.52,132.71,249.52z M132.71,246.58c0.77,0,1.31-0.22,1.62-0.67c0.31-0.45,0.5-1.04,0.56-1.77
			c0.06-0.73,0.09-1.5,0.09-2.29v-6.75c0-0.82-0.03-1.59-0.09-2.31c-0.06-0.72-0.25-1.31-0.56-1.77c-0.31-0.46-0.85-0.69-1.62-0.69
			c-0.77,0-1.32,0.23-1.64,0.69c-0.32,0.46-0.52,1.05-0.58,1.77c-0.06,0.72-0.09,1.49-0.09,2.31v6.75c0,0.8,0.03,1.56,0.09,2.29
			c0.06,0.73,0.25,1.32,0.58,1.77C131.39,246.35,131.94,246.58,132.71,246.58z"/>
		<path class="st3" d="M143,249.22v-30.2h3.99v30.2H143z"/>
		<path class="st3" d="M155.04,249.52c-0.85,0-1.59-0.24-2.24-0.73c-0.65-0.48-1.16-1.11-1.53-1.86c-0.37-0.76-0.56-1.56-0.56-2.4
			c0-1.34,0.22-2.47,0.67-3.39c0.45-0.92,1.06-1.7,1.85-2.33c0.78-0.63,1.69-1.19,2.72-1.66c1.03-0.47,2.12-0.93,3.26-1.38v-1.53
			c0-0.87-0.05-1.59-0.15-2.16c-0.1-0.57-0.3-1-0.62-1.29c-0.31-0.29-0.78-0.43-1.4-0.43c-0.55,0-0.99,0.12-1.32,0.37
			c-0.34,0.25-0.58,0.6-0.73,1.06c-0.15,0.46-0.22,1-0.22,1.62v1.08l-3.95-0.15c0.05-2.39,0.6-4.14,1.64-5.28
			c1.04-1.13,2.66-1.7,4.85-1.7c2.14,0,3.65,0.58,4.55,1.75c0.9,1.17,1.34,2.86,1.34,5.07v9.84c0,0.67,0.02,1.32,0.06,1.94
			c0.04,0.62,0.09,1.2,0.15,1.73s0.12,1.04,0.17,1.51h-3.65c-0.07-0.4-0.17-0.9-0.28-1.51c-0.11-0.61-0.19-1.16-0.24-1.66
			c-0.25,0.84-0.73,1.63-1.43,2.37C157.26,249.16,156.28,249.52,155.04,249.52z M156.6,246.09c0.4,0,0.77-0.11,1.12-0.34
			c0.35-0.22,0.66-0.48,0.93-0.76c0.27-0.29,0.46-0.51,0.56-0.69v-6.11c-0.62,0.35-1.21,0.7-1.75,1.04
			c-0.55,0.35-1.03,0.71-1.44,1.1c-0.41,0.39-0.73,0.82-0.97,1.3c-0.24,0.48-0.35,1.04-0.35,1.66c0,0.87,0.16,1.55,0.48,2.05
			C155.51,245.84,155.98,246.09,156.6,246.09z"/>
	</g>
	<g>
		<path class="st3" d="M344.45,270.08c-1.6,0-2.83-0.33-3.69-0.99c-0.87-0.66-1.47-1.55-1.8-2.67c-0.33-1.12-0.5-2.36-0.5-3.72v-9.4
			c0-1.46,0.17-2.74,0.51-3.85c0.34-1.11,0.95-1.98,1.83-2.6c0.88-0.62,2.09-0.93,3.65-0.93c1.42,0,2.53,0.27,3.34,0.82
			c0.81,0.55,1.39,1.32,1.74,2.32c0.35,1,0.53,2.2,0.53,3.58v1.43h-2.1v-1.37c0-1.03-0.08-1.92-0.25-2.66
			c-0.17-0.74-0.5-1.31-1.01-1.72c-0.51-0.41-1.26-0.61-2.25-0.61c-1.05,0-1.85,0.22-2.38,0.66c-0.54,0.44-0.9,1.06-1.08,1.85
			c-0.18,0.8-0.28,1.72-0.28,2.77v10.07c0,1.17,0.11,2.14,0.34,2.92c0.22,0.78,0.61,1.36,1.15,1.75c0.54,0.39,1.29,0.58,2.25,0.58
			c0.99,0,1.74-0.21,2.25-0.64c0.51-0.43,0.84-1.03,1.01-1.8c0.17-0.77,0.25-1.67,0.25-2.7v-1.55h2.1v1.4
			c0,1.38-0.16,2.61-0.48,3.68c-0.32,1.07-0.89,1.9-1.69,2.5C347.08,269.78,345.93,270.08,344.45,270.08z"/>
		<path class="st3" d="M353.33,250.57v-2.89h2.13v2.89H353.33z M353.33,269.78v-16.88h2.13v16.88H353.33z"/>
		<path class="st3" d="M361.94,270.05c-0.66,0-1.25-0.17-1.75-0.51c-0.51-0.34-0.9-0.79-1.2-1.36c-0.29-0.56-0.44-1.2-0.44-1.9
			c0-0.86,0.13-1.59,0.38-2.19c0.25-0.6,0.65-1.14,1.18-1.62c0.53-0.48,1.24-0.94,2.1-1.4c0.87-0.46,1.92-0.97,3.17-1.53v-1.2
			c0-1.03-0.06-1.84-0.19-2.44c-0.13-0.59-0.34-1.02-0.64-1.27c-0.3-0.25-0.73-0.38-1.27-0.38c-0.45,0-0.85,0.09-1.2,0.26
			c-0.35,0.17-0.63,0.47-0.85,0.89c-0.21,0.42-0.32,1-0.32,1.74v0.58l-2.1-0.03c0.02-1.71,0.38-2.98,1.1-3.81
			c0.71-0.83,1.87-1.24,3.49-1.24c1.5,0,2.56,0.45,3.18,1.36c0.62,0.91,0.93,2.31,0.93,4.22v8.2c0,0.29,0,0.67,0.01,1.12
			c0.01,0.46,0.03,0.89,0.06,1.3c0.03,0.41,0.05,0.72,0.07,0.93h-1.9c-0.06-0.37-0.12-0.78-0.19-1.24
			c-0.07-0.46-0.11-0.82-0.13-1.09c-0.23,0.68-0.65,1.28-1.24,1.81C363.61,269.78,362.86,270.05,361.94,270.05z M362.64,268.24
			c0.43,0,0.81-0.1,1.15-0.31c0.34-0.2,0.65-0.46,0.93-0.77c0.28-0.31,0.5-0.62,0.66-0.93v-5.26c-0.84,0.45-1.55,0.84-2.15,1.18
			c-0.59,0.34-1.08,0.68-1.44,1.01c-0.37,0.33-0.64,0.71-0.82,1.12c-0.18,0.42-0.26,0.91-0.26,1.47c0,0.9,0.19,1.53,0.57,1.91
			C361.67,268.05,362.12,268.24,362.64,268.24z"/>
		<path class="st3" d="M374.82,270.05c-1.15,0-2.05-0.25-2.72-0.74c-0.66-0.5-1.12-1.22-1.39-2.16c-0.26-0.94-0.39-2.1-0.39-3.46
			v-4.67c0-1.36,0.13-2.52,0.39-3.46c0.26-0.94,0.73-1.66,1.39-2.16c0.66-0.5,1.57-0.74,2.72-0.74c1.17,0,2.08,0.25,2.73,0.74
			c0.65,0.5,1.11,1.22,1.37,2.16c0.26,0.94,0.39,2.1,0.39,3.46v4.67c0,1.36-0.13,2.52-0.39,3.46c-0.26,0.94-0.72,1.66-1.37,2.16
			C376.9,269.8,375.99,270.05,374.82,270.05z M374.82,268.44c0.74,0,1.28-0.19,1.62-0.58c0.34-0.39,0.55-0.93,0.63-1.64
			c0.08-0.7,0.12-1.51,0.12-2.42v-4.91c0-0.91-0.04-1.72-0.12-2.41c-0.08-0.69-0.29-1.24-0.63-1.64c-0.34-0.4-0.88-0.6-1.62-0.6
			c-0.74,0-1.28,0.2-1.61,0.6c-0.33,0.4-0.54,0.94-0.63,1.64c-0.09,0.69-0.13,1.49-0.13,2.41v4.91c0,0.92,0.04,1.72,0.13,2.42
			c0.09,0.7,0.3,1.25,0.63,1.64C373.55,268.25,374.08,268.44,374.82,268.44z"/>
	</g>
	<g>
		<path class="st3" d="M167.75,283.52v-23.65H170v10.48h7.45v-10.48h2.22v23.65h-2.22v-11.5H170v11.5H167.75z"/>
		<path class="st3" d="M186.27,283.78c-0.66,0-1.25-0.17-1.75-0.51c-0.51-0.34-0.9-0.79-1.2-1.36c-0.29-0.56-0.44-1.2-0.44-1.9
			c0-0.86,0.13-1.59,0.38-2.19c0.25-0.6,0.65-1.14,1.18-1.62c0.54-0.48,1.24-0.94,2.1-1.4c0.87-0.46,1.92-0.97,3.17-1.53v-1.2
			c0-1.03-0.06-1.84-0.19-2.44c-0.13-0.59-0.34-1.02-0.64-1.27c-0.3-0.25-0.73-0.38-1.27-0.38c-0.45,0-0.85,0.09-1.2,0.26
			c-0.35,0.17-0.63,0.47-0.85,0.89c-0.21,0.42-0.32,1-0.32,1.74v0.58l-2.1-0.03c0.02-1.71,0.38-2.98,1.1-3.81
			c0.71-0.83,1.87-1.24,3.49-1.24c1.5,0,2.56,0.45,3.18,1.36c0.62,0.9,0.93,2.31,0.93,4.22v8.21c0,0.29,0,0.67,0.01,1.12
			c0.01,0.46,0.03,0.89,0.06,1.3c0.03,0.41,0.05,0.72,0.07,0.93h-1.9c-0.06-0.37-0.12-0.78-0.19-1.24
			c-0.07-0.46-0.11-0.82-0.13-1.09c-0.23,0.68-0.65,1.28-1.24,1.81C187.94,283.52,187.18,283.78,186.27,283.78z M186.97,281.97
			c0.43,0,0.81-0.1,1.15-0.31c0.34-0.2,0.65-0.46,0.93-0.77c0.28-0.31,0.5-0.62,0.66-0.93v-5.26c-0.84,0.45-1.55,0.84-2.15,1.18
			c-0.59,0.34-1.08,0.68-1.45,1.01c-0.37,0.33-0.64,0.71-0.82,1.12c-0.18,0.42-0.26,0.91-0.26,1.47c0,0.9,0.19,1.53,0.57,1.91
			C185.99,281.78,186.44,281.97,186.97,281.97z"/>
		<path class="st3" d="M195.26,283.52v-23.65h2.13v23.65H195.26z"/>
		<path class="st3" d="M205.04,283.78c-1.15,0-2.05-0.25-2.72-0.74c-0.66-0.5-1.12-1.22-1.39-2.16c-0.26-0.94-0.39-2.1-0.39-3.46
			v-4.67c0-1.36,0.13-2.52,0.39-3.46c0.26-0.94,0.73-1.66,1.39-2.16c0.66-0.5,1.57-0.75,2.72-0.75c1.17,0,2.08,0.25,2.73,0.75
			c0.65,0.5,1.11,1.22,1.37,2.16c0.26,0.94,0.39,2.1,0.39,3.46v4.67c0,1.36-0.13,2.52-0.39,3.46c-0.26,0.94-0.72,1.66-1.37,2.16
			C207.12,283.53,206.21,283.78,205.04,283.78z M205.04,282.18c0.74,0,1.28-0.19,1.62-0.58c0.34-0.39,0.55-0.93,0.63-1.64
			c0.08-0.7,0.12-1.51,0.12-2.42v-4.91c0-0.92-0.04-1.72-0.12-2.41c-0.08-0.69-0.29-1.24-0.63-1.64c-0.34-0.4-0.88-0.6-1.62-0.6
			c-0.74,0-1.28,0.2-1.61,0.6c-0.33,0.4-0.54,0.94-0.63,1.64c-0.09,0.69-0.13,1.49-0.13,2.41v4.91c0,0.92,0.04,1.72,0.13,2.42
			c0.09,0.7,0.3,1.25,0.63,1.64C203.77,281.98,204.3,282.18,205.04,282.18z"/>
	</g>
	<g>
		<path class="st3" d="M382.21,370.74c-1.77,0.32-4.1,0.46-6.11,0.46c-1.69,0-3.15-0.1-3.94-0.26c-2.43-0.54-3.47-2.07-3.47-3.84
			c0-1.55,0.86-3.09,2.05-4.3l1.17,0.6c-1.12,1.16-1.77,2.45-1.77,3.57c0,1.17,0.78,2.23,2.51,2.61c0.7,0.16,1.89,0.24,3.27,0.24
			c1.95,0,4.28-0.16,6.19-0.54L382.21,370.74z M373.19,360.6c1.04-0.8,2.47-1.79,3.56-2.33v-0.02c-1.53,0.18-5.02,0.26-7.25,0.24
			c0-0.38,0-1.04-0.02-1.41c0.44,0.02,8.15,0.14,11.45-0.64l0.16,1.49c-2.39,0.28-5.46,2.37-6.75,3.39L373.19,360.6z"/>
		<path class="st3" d="M384.34,371.4c1.49-4.26,3.96-11.37,4.74-13.5c0.38-1.08,0.9-2.61,1.04-3.11l2.17,0.56
			c-0.1,0.28-0.38,0.38-0.78,0.38c-1.11,2.75-2.81,7.45-3.55,9.46h0.02c1.19-1.45,2.99-2.47,4.4-2.47c1.75,0,2.59,1.19,2.53,3.05
			l-0.06,2.39c-0.02,1.51,0.78,2.33,2.09,2.33c1.81,0,3.47-2.07,4.4-5.52c0.4,0.28,0.88,0.54,1.31,0.74
			c-1.1,3.84-3.09,6.25-5.76,6.25c-2.13,0-3.51-1.29-3.51-3.33c0-0.38,0.06-2.23,0.06-2.65c0-1.27-0.52-1.93-1.41-1.93
			c-2.31,0-4.64,3.35-5.14,4.66c-0.28,0.7-0.72,1.99-1.1,3.15L384.34,371.4z"/>
		<path class="st3" d="M408.52,355.64c-0.06,0.22-0.26,0.34-0.66,0.32c-0.7,3.27-1.06,6.87-1.06,9.04c0,1.51,0.06,3.03,0.26,3.98
			c0.38-0.98,1.25-3.09,1.53-3.8l0.84,0.88c-0.82,2.03-1.43,3.17-1.71,4.08c-0.1,0.34-0.16,0.66-0.16,0.94
			c0,0.22,0.04,0.42,0.1,0.62l-1.43,0.26c-0.64-1.91-0.88-4.24-0.88-6.91c0-2.63,0.42-6.31,1.06-9.78L408.52,355.64z M421.32,370.32
			c-0.72,0.04-1.47,0.06-2.21,0.06c-1.43,0-2.77-0.08-3.74-0.22c-2.47-0.36-3.62-1.73-3.62-3.33c0-1.39,0.76-2.55,1.89-3.88
			l1.31,0.56c-1,1.04-1.71,2.01-1.71,3.15c0,2.33,3.41,2.33,5.5,2.33c0.84,0,1.75-0.04,2.59-0.1L421.32,370.32z M412.02,358.05
			c2.59-0.06,6.09-0.3,8.76-0.76l0.12,1.41c-2.49,0.42-6.53,0.68-8.84,0.74L412.02,358.05z"/>
		<path class="st3" d="M438.73,358.21c-2.61,0.66-6.25,1.08-8.64,1.17c-0.26,2.51-0.62,4.58-0.94,5.32c1.57-1.27,4-2.13,5.7-2.13
			c2.99,0,4.82,1.61,4.82,4.32c0,4-4.04,5.34-10.56,5.5c-0.08-0.38-0.22-0.98-0.4-1.33c5.76-0.12,9.5-1.1,9.5-4.14
			c0-1.81-1.21-3.05-3.54-3.05c-1.79,0-4.86,1.08-6.19,3.07l-1.41-0.66c0.64-0.72,1.31-3.6,1.61-6.89h-4.7v-1.41
			c0.84,0.02,3.31,0.02,4.82,0.02c0.08-1.15,0.12-2.43,0.12-3.64l2.13,0.2c-0.04,0.34-0.28,0.4-0.64,0.44
			c-0.04,1-0.1,2.03-0.18,2.97c2.13-0.06,5.82-0.52,8.23-1.22L438.73,358.21z"/>
		<path class="st3" d="M444.32,371.68c-0.62-1.45-0.86-4.44-0.86-7.07c0-2.67,0.42-6.03,1.08-9.38l1.95,0.38
			c-0.04,0.2-0.24,0.34-0.52,0.36c-0.72,2.75-1.17,6.33-1.17,8.66c0,1.53,0.02,3.05,0.18,3.8c0.44-1.21,1.25-3.13,1.67-4.08
			l0.9,0.84c-0.66,1.37-2.07,4.42-2.07,5.36c0,0.28,0.06,0.58,0.2,0.96L444.32,371.68z M449.42,359.85
			c1.69,0.02,3.37,0.04,5.06-0.08c-0.08-1.73-0.14-3.21-0.18-4.7l2.03,0.06c-0.02,0.2-0.2,0.36-0.52,0.42
			c0.02,1.29,0.06,2.59,0.1,4.12c1.59-0.16,2.87-0.44,3.94-0.8l0.18,1.41c-0.96,0.3-2.35,0.58-4.06,0.72
			c0.08,2.23,0.18,4.58,0.24,5.86c1.53,0.62,3.05,1.61,4.1,2.55l-0.78,1.29c-0.82-0.82-2.01-1.71-3.25-2.29
			c-0.02,1.71-0.34,3.61-3.35,3.61c-2.35,0-3.92-1.12-3.92-2.89c0-2.05,2.07-2.95,3.92-2.95c0.62,0,1.29,0.08,1.91,0.26
			c-0.06-1.27-0.18-3.37-0.28-5.34c-0.62,0.04-1.47,0.06-2.05,0.06h-3.05L449.42,359.85z M454.93,367.75
			c-0.64-0.2-1.33-0.36-1.99-0.36c-1.23,0-2.69,0.44-2.69,1.71c0,1.12,1.21,1.69,2.67,1.69c1.49,0,2.03-0.72,2.03-2.33
			L454.93,367.75z"/>
	</g>
	<g>
		<path class="st3" d="M356.34,216.8v-23.65h12.09v23.65h-2.22v-21.99h-7.65v21.99H356.34z"/>
		<path class="st3" d="M372.11,222.35v-22.42h2.13v1.4c0.35-0.41,0.79-0.79,1.31-1.14c0.53-0.35,1.17-0.53,1.93-0.53
			c0.82,0,1.47,0.19,1.97,0.57c0.5,0.38,0.88,0.89,1.15,1.53c0.27,0.64,0.46,1.36,0.56,2.16c0.1,0.8,0.15,1.63,0.15,2.48v3.53
			c0,1.44-0.12,2.7-0.36,3.77c-0.24,1.07-0.66,1.9-1.24,2.48c-0.58,0.58-1.4,0.88-2.45,0.88c-0.68,0-1.27-0.17-1.77-0.53
			c-0.5-0.35-0.91-0.71-1.24-1.08v6.89H372.11z M376.9,215.4c0.64,0,1.13-0.21,1.46-0.63c0.33-0.42,0.55-1.03,0.66-1.84
			c0.11-0.81,0.16-1.79,0.16-2.93v-3.59c0-1.11-0.05-2.04-0.16-2.79c-0.11-0.75-0.33-1.32-0.66-1.71c-0.33-0.39-0.83-0.58-1.49-0.58
			c-0.54,0-1.05,0.15-1.5,0.44c-0.46,0.29-0.83,0.58-1.12,0.88v11.5c0.31,0.33,0.7,0.62,1.15,0.88
			C375.85,215.27,376.35,215.4,376.9,215.4z"/>
		<path class="st3" d="M384.28,216.8v-16.88h1.81v12.99l5.64-12.99h1.72v16.88h-1.81v-12.96l-5.58,12.96H384.28z"/>
		<path class="st3" d="M396.72,216.8v-16.88h4.09c1.09,0,1.95,0.19,2.57,0.58c0.62,0.39,1.07,0.89,1.33,1.5
			c0.26,0.61,0.4,1.27,0.42,1.97c0,0.76-0.15,1.48-0.44,2.18c-0.29,0.69-0.87,1.18-1.72,1.47c0.66,0.18,1.17,0.48,1.53,0.92
			c0.36,0.44,0.62,0.95,0.77,1.53c0.16,0.58,0.23,1.2,0.23,1.84c0,0.95-0.13,1.8-0.38,2.54c-0.25,0.74-0.7,1.31-1.34,1.72
			c-0.64,0.41-1.57,0.61-2.77,0.61H396.72z M398.82,207.05h2.13c0.66,0,1.2-0.24,1.61-0.73c0.41-0.49,0.61-1.2,0.61-2.13
			c0-0.88-0.22-1.53-0.66-1.97c-0.44-0.44-1.08-0.66-1.94-0.66h-1.75V207.05z M398.82,215.16h1.84c0.66,0,1.19-0.12,1.59-0.36
			c0.4-0.24,0.69-0.62,0.88-1.12c0.18-0.51,0.28-1.12,0.28-1.84c0-0.9-0.11-1.57-0.34-2.03c-0.22-0.46-0.53-0.77-0.92-0.95
			c-0.39-0.18-0.84-0.26-1.34-0.26h-1.99V215.16z"/>
		<path class="st3" d="M412.34,217.06c-1.05,0-1.91-0.21-2.58-0.63c-0.67-0.42-1.17-1.11-1.49-2.09c-0.32-0.97-0.48-2.27-0.48-3.88
			v-4.26c0-1.67,0.17-2.98,0.5-3.93c0.33-0.94,0.84-1.62,1.52-2.01c0.68-0.4,1.53-0.6,2.54-0.6c1.21,0,2.12,0.25,2.74,0.76
			c0.62,0.51,1.06,1.27,1.3,2.29c0.24,1.02,0.36,2.33,0.36,3.93v1.52h-6.83v2.95c0,1.09,0.08,1.95,0.25,2.58
			c0.17,0.63,0.43,1.09,0.79,1.36c0.36,0.27,0.82,0.41,1.39,0.41c0.43,0,0.82-0.08,1.17-0.25c0.35-0.17,0.63-0.49,0.83-0.96
			c0.2-0.48,0.31-1.15,0.31-2.03v-1.17h2.07v0.93c0,1.54-0.32,2.77-0.96,3.69C415.12,216.6,413.98,217.06,412.34,217.06z
			 M409.92,206.93h4.73v-1.4c0-0.9-0.05-1.66-0.15-2.29c-0.1-0.63-0.31-1.12-0.63-1.46c-0.32-0.34-0.83-0.51-1.53-0.51
			c-0.58,0-1.06,0.13-1.42,0.38c-0.36,0.25-0.62,0.71-0.77,1.36c-0.16,0.65-0.23,1.58-0.23,2.79V206.93z"/>
		<path class="st3" d="M421.72,216.8v-15.24h-3.65v-1.63h9.37v1.63h-3.59v15.24H421.72z"/>
	</g>
	<g>
		<path class="st3" d="M432.39,253.61c-0.87,0-1.6-0.18-2.17-0.55c-0.58-0.36-1.01-0.87-1.3-1.53c-0.29-0.66-0.47-1.42-0.54-2.29
			l1.33-0.4c0.07,0.66,0.19,1.26,0.36,1.8c0.17,0.54,0.44,0.96,0.81,1.27c0.37,0.31,0.88,0.47,1.53,0.47c0.72,0,1.27-0.19,1.67-0.56
			c0.4-0.37,0.6-0.96,0.6-1.77c0-0.7-0.18-1.31-0.53-1.84c-0.35-0.52-0.83-1.07-1.44-1.64l-2.84-2.72c-0.5-0.49-0.87-1-1.11-1.52
			c-0.24-0.52-0.36-1.1-0.36-1.72c0-1.11,0.33-1.97,0.99-2.56c0.66-0.6,1.54-0.89,2.64-0.89c0.57,0,1.08,0.07,1.54,0.22
			c0.46,0.15,0.85,0.38,1.17,0.71c0.32,0.32,0.58,0.74,0.76,1.26c0.19,0.52,0.31,1.15,0.38,1.89l-1.29,0.34
			c-0.05-0.67-0.16-1.25-0.33-1.74s-0.42-0.85-0.77-1.1c-0.35-0.25-0.84-0.38-1.46-0.38c-0.66,0-1.2,0.17-1.63,0.52
			c-0.42,0.34-0.64,0.88-0.64,1.61c0,0.44,0.08,0.83,0.25,1.19c0.17,0.36,0.46,0.74,0.88,1.15l2.84,2.68
			c0.64,0.6,1.18,1.26,1.65,1.99c0.46,0.73,0.7,1.55,0.7,2.46c0,0.81-0.16,1.48-0.47,2.03c-0.31,0.54-0.74,0.95-1.3,1.22
			C433.76,253.48,433.11,253.61,432.39,253.61z"/>
		<path class="st3" d="M439.77,253.59c-0.45,0-0.85-0.12-1.19-0.35c-0.34-0.23-0.62-0.54-0.81-0.92c-0.2-0.38-0.3-0.81-0.3-1.29
			c0-0.58,0.09-1.08,0.26-1.49c0.17-0.41,0.44-0.78,0.8-1.1c0.36-0.32,0.84-0.64,1.43-0.95c0.59-0.31,1.31-0.66,2.15-1.04v-0.81
			c0-0.7-0.04-1.25-0.13-1.66c-0.09-0.4-0.23-0.69-0.44-0.86c-0.21-0.17-0.49-0.26-0.86-0.26c-0.3,0-0.58,0.06-0.81,0.18
			c-0.24,0.12-0.43,0.32-0.58,0.61c-0.15,0.28-0.22,0.68-0.22,1.18v0.4l-1.43-0.02c0.01-1.16,0.26-2.03,0.74-2.59
			c0.48-0.56,1.27-0.84,2.37-0.84c1.02,0,1.74,0.31,2.16,0.92c0.42,0.62,0.64,1.57,0.64,2.87v5.58c0,0.2,0,0.45,0.01,0.76
			c0.01,0.31,0.02,0.61,0.04,0.88c0.02,0.28,0.04,0.49,0.05,0.64h-1.29c-0.04-0.25-0.08-0.53-0.13-0.84
			c-0.05-0.31-0.08-0.56-0.09-0.74c-0.16,0.46-0.44,0.87-0.84,1.23C440.91,253.42,440.4,253.59,439.77,253.59z M440.25,252.36
			c0.29,0,0.55-0.07,0.78-0.21c0.23-0.14,0.44-0.31,0.64-0.53c0.19-0.21,0.34-0.42,0.45-0.64v-3.57c-0.57,0.3-1.06,0.57-1.46,0.8
			c-0.4,0.23-0.73,0.46-0.98,0.69c-0.25,0.23-0.44,0.48-0.56,0.76c-0.12,0.28-0.18,0.62-0.18,1c0,0.61,0.13,1.04,0.39,1.3
			C439.59,252.23,439.89,252.36,440.25,252.36z"/>
		<path class="st3" d="M445.89,253.42v-16.09h1.45v16.09H445.89z"/>
		<path class="st3" d="M451.43,253.42l-2.48-11.48h1.47l1.87,9.81l1.85-9.81h1.41l-2.4,11.48H451.43z"/>
		<path class="st3" d="M459.87,253.59c-0.71,0-1.3-0.14-1.76-0.43c-0.46-0.28-0.79-0.76-1.01-1.42c-0.22-0.66-0.33-1.54-0.33-2.64
			v-2.9c0-1.14,0.11-2.03,0.34-2.67c0.22-0.64,0.57-1.1,1.03-1.37c0.46-0.27,1.04-0.41,1.73-0.41c0.82,0,1.44,0.17,1.87,0.52
			c0.42,0.34,0.72,0.86,0.88,1.56c0.17,0.69,0.25,1.59,0.25,2.67v1.03h-4.65v2.01c0,0.74,0.06,1.33,0.17,1.76
			c0.11,0.43,0.29,0.74,0.54,0.92c0.24,0.19,0.56,0.28,0.94,0.28c0.29,0,0.56-0.06,0.79-0.17c0.24-0.11,0.43-0.33,0.57-0.66
			c0.14-0.32,0.21-0.78,0.21-1.38v-0.79h1.41v0.64c0,1.05-0.22,1.88-0.66,2.51C461.76,253.28,460.98,253.59,459.87,253.59z
			 M458.22,246.7h3.22v-0.95c0-0.61-0.03-1.13-0.1-1.56c-0.07-0.43-0.21-0.76-0.43-0.99c-0.22-0.23-0.57-0.35-1.04-0.35
			c-0.4,0-0.72,0.09-0.96,0.26s-0.42,0.48-0.53,0.92c-0.11,0.44-0.16,1.08-0.16,1.9V246.7z"/>
	</g>
	<g>
		<path class="st3" d="M250.06,138.22c0.32-0.06,0.58-0.16,0.58-0.4c0-0.1-0.06-0.24-0.18-0.4c-0.18-0.14-0.26-0.24-0.26-0.32
			c0-0.06,0.08-0.1,0.26-0.1c0.6,0,1.31,0.34,1.31,0.64c0,0.22-0.24,0.42-0.28,0.66c2.3,0.54,3.32,1.97,3.32,3.42
			c0,1.79-1.59,3.54-4.17,3.54c-2.74,0-4.35-1.67-4.35-3.54C246.29,140.16,247.48,138.62,250.06,138.22z M247.54,141.71
			c0,1.35,1.01,2.68,3.04,2.68c1.99,0,2.98-1.33,2.98-2.68c0-1.33-0.99-2.7-2.98-2.7C248.55,139.01,247.54,140.38,247.54,141.71z
			 M251.63,148.57c-0.02-0.38-0.48-0.56-1.49-0.85c-0.22-0.06-0.38-0.14-0.38-0.24c0-0.1,0.18-0.2,0.64-0.28
			c0.91,0,1.73,0.08,2.11,0.14c0.36,0.08,0.44,0.2,0.44,0.38c0,0.14-0.04,0.3-0.06,0.52c0,0.87,0,2.05,0.02,2.74
			c0.02,0.46,0.28,0.64,0.97,0.68l3.6-0.04c1.49-0.12,0.78-0.58,2.54-0.58c0.66,0,1.49,0.08,1.49,0.68c0,0.24-0.2,0.44-0.54,0.44
			h-7.17c-1.33-0.02-2.07-0.34-2.15-1.33L251.63,148.57z M258.35,136.81c0-0.22-0.52-0.58-1.71-1.09c-0.3-0.1-0.46-0.22-0.46-0.3
			c0-0.12,0.24-0.2,0.71-0.22c0.08,0,2.8,0.34,2.8,0.99c0,0.14-0.08,0.3-0.08,0.5l-0.02,6.24c0.28-0.02,0.6,0,0.89-0.04
			c0.91-0.18,0.5-0.56,2.03-0.56c0.4,0,1.13,0,1.13,0.54c0,0.26-0.22,0.5-0.58,0.5l-3.5,0.08c-0.02,3.6-0.14,4.49-0.34,5.05
			c-0.18,0.38-0.4,0.68-0.58,0.68c-0.18,0-0.3-0.24-0.32-0.89V136.81z"/>
		<path class="st3" d="M267.58,138.75c0-0.38-0.81-0.64-1.57-0.85c-0.2-0.06-0.42-0.14-0.42-0.26c0-0.1,0.16-0.2,0.62-0.32
			c2.36,0.12,2.62,0.36,2.62,0.68c0,0.1-0.02,0.2-0.02,0.32v4.61c-0.02,0.3,0.08,0.46,0.64,0.46c0.75,0,3.87-0.77,5.98-1.97
			c0.18-0.08,0.32-0.12,0.4-0.12c0.04,0,0.06,0,0.06,0.04c0,0.06-0.1,0.18-0.34,0.38c-2.44,1.65-6.34,2.88-6.99,2.88
			c-0.58,0-0.83-1.01-0.91-1.43L267.58,138.75z M275.88,146.36c0.2-0.04,0.32-0.18,0.32-0.34c0-0.12-0.06-0.26-0.2-0.38
			s-0.2-0.22-0.2-0.28c0-0.08,0.06-0.1,0.18-0.1c0.36,0,1.21,0.32,1.21,0.6c0,0.16-0.14,0.32-0.18,0.58
			c2.21,0.36,3.22,1.75,3.22,3.16c0,1.67-1.43,3.36-3.91,3.36c-2.6,0-3.99-1.69-3.99-3.36c0-1.45,1.07-2.9,3.36-3.18L275.88,146.36z
			 M273.44,149.56c0,1.31,0.97,2.6,2.92,2.6c1.79,0,2.68-1.29,2.68-2.6c0-1.29-0.89-2.58-2.68-2.58
			C274.41,146.98,273.44,148.27,273.44,149.56z M279.1,136.71c-0.02-0.2-0.83-0.7-1.77-1.11c-0.2-0.06-0.56-0.18-0.56-0.3
			c0-0.14,0.5-0.26,0.62-0.26c0.42,0,3.08,0.4,3.08,1.03c0,0.18-0.12,0.36-0.14,0.62l-0.04,5.5c0,3.34-0.26,3.93-0.66,4.49
			c-0.08,0.12-0.16,0.16-0.22,0.16c-0.2,0-0.32-0.46-0.32-1.23v-2.34c-0.91,0.02-1.81,0.1-2.46,0.14c-0.36,0.08-0.4,0.24-0.66,0.24
			c-0.36,0-1.75-0.62-1.75-0.79c0-0.08,0.12-0.1,0.34-0.1c0.2,0,1.13,0.04,1.35,0.04c0.93,0,1.91-0.06,3.18-0.14v-3.44
			c-1.19,0.02-2.07,0.08-2.54,0.12c-0.48,0.06-0.5,0.26-0.75,0.26c-0.3,0-1.61-0.5-1.61-0.81c0-0.06,0.08-0.1,0.26-0.1
			c0.1,0,0.22,0.02,0.38,0.04c0.46,0.02,0.83,0.02,1.21,0.02c0.97,0,1.77-0.04,3.06-0.1V136.71z"/>
		<path class="st3" d="M292.62,140.4c1.63-0.1,0.74-0.54,2.88-0.62c0.91,0.02,1.29,0.32,1.29,0.58c0,0.04,0,0.44-0.79,0.44
			c-1.23,0.08-4.95,0.18-7.35,0.28c-0.64,0.14-0.79,0.38-1.17,0.38c-0.48,0-2.11-0.74-2.11-1.03c0-0.06,0.08-0.1,0.28-0.1
			c0.08,0,0.18,0,0.3,0.02c0.99,0.12,2.01,0.16,3.04,0.16C289.5,140.5,292.05,140.4,292.62,140.4z M290.44,142.87
			c0.28-0.06,0.64-0.12,0.64-0.46c0-0.1-0.04-0.2-0.16-0.3c-0.08-0.12-0.14-0.2-0.14-0.28s0.08-0.12,0.22-0.12
			c0.48,0,1.07,0.38,1.07,0.64c0,0.18-0.2,0.34-0.28,0.52c2.32,0.34,3.42,1.73,3.42,3.14c0,1.59-1.41,3.16-3.99,3.16
			c-2.64,0-3.99-1.67-3.99-3.2C287.22,144.58,288.25,143.2,290.44,142.87z M290.38,138.44c-0.6,0-2.05-1.07-2.05-1.29
			c0-0.06,0.06-0.1,0.2-0.1c0.1,0,0.22,0.02,0.4,0.06c1.47,0.28,2.6,0.28,4.11,0.28c0.48,0.02,0.78,0.24,0.78,0.48
			c0,0.28-0.38,0.54-1.27,0.56L290.38,138.44z M288.43,145.89c0,1.19,0.93,2.38,2.8,2.38c1.87,0,2.8-1.19,2.8-2.38
			c0-1.21-0.93-2.42-2.8-2.42C289.36,143.46,288.43,144.67,288.43,145.89z M298.07,136.63c-0.02-0.34-1.09-0.81-1.93-1.19
			c-0.22-0.08-0.36-0.18-0.36-0.26c0-0.12,0.24-0.22,0.83-0.24c0.85,0.14,1.65,0.34,2.29,0.54c0.42,0.16,0.52,0.3,0.52,0.5
			c0,0.16-0.06,0.34-0.06,0.64v7.23h0.99c0.93-0.14,0.62-0.52,1.89-0.52c0.38,0,1.21,0,1.21,0.62c0,0.28-0.24,0.52-0.68,0.52h-3.44
			l-0.02,5.76c-0.02,1.29-0.16,2.11-0.5,2.94c-0.16,0.24-0.32,0.36-0.46,0.36c-0.18,0-0.3-0.26-0.3-0.91V136.63z"/>
		<path class="st3" d="M310.75,139.89c-0.02-0.22-0.48-0.58-1.17-1.05c-0.38-0.2-0.48-0.44,0.3-0.44c0.34,0,2.36,0.72,2.36,1.23
			c0,0.3-1.51,3.14-1.63,3.34c0.36,0.5,0.76,0.97,1.07,1.31c0.7,0.83,1.35,0.58,1.67,2.54c0,0.06,0.02,0.12,0.02,0.16
			c0,0.38-0.2,0.64-0.44,0.64c-0.16,0-0.36-0.12-0.52-0.4c-0.46-0.77-1.13-2.26-2.15-3.83c-1.95,2.56-4.33,4.57-4.89,4.57
			c-0.04,0-0.08-0.02-0.08-0.06c0-0.08,0.14-0.24,0.4-0.46c1.81-1.67,3.77-3.99,4.99-7.41L310.75,139.89z M316.31,138.26
			c0-0.48-0.77-0.87-1.55-1.25c-0.24-0.1-0.48-0.24-0.48-0.36c0-0.1,0.16-0.18,0.66-0.2c0.72,0.06,1.51,0.32,2.07,0.48
			c0.44,0.16,0.54,0.36,0.54,0.56c0,0.16-0.06,0.32-0.06,0.5l-0.04,10.73c-0.04,2.6-0.54,3.3-0.79,3.3c-0.22,0-0.34-0.48-0.34-1.45
			v-7.35l-1.85,0.08c-0.58,0.1-0.68,0.3-0.91,0.3c-0.3,0-1.49-0.52-1.49-0.77c0-0.06,0.12-0.12,0.34-0.12
			c0.14,0,0.81,0.04,0.97,0.04c1.03,0,2.01-0.06,2.94-0.1V138.26z M319.51,136.83c-0.02-0.34-0.75-0.83-1.55-1.27
			c-0.3-0.12-0.46-0.24-0.46-0.34c0-0.12,0.2-0.18,0.66-0.2c0.95,0.18,1.73,0.48,2.21,0.62c0.34,0.16,0.42,0.3,0.42,0.46
			c0,0.14-0.08,0.3-0.08,0.52v14.05c-0.08,1.85-0.44,2.82-0.81,2.94c-0.18,0-0.36-0.2-0.38-1.21V136.83z"/>
		<path class="st3" d="M341.86,150.69c-1.33-0.08-2.98-0.12-4.69-0.12c-3.32,0-6.85,0.14-8.74,0.32c-0.44,0.16-0.56,0.36-0.89,0.36
			c-0.52,0-2.6-0.93-2.6-1.17c0-0.06,0.08-0.1,0.26-0.1c0.06,0,0.16,0,0.28,0.02c1.39,0.2,3.3,0.26,5.26,0.22
			c-0.06-0.4-0.1-1.43-0.2-2.09c-0.08-0.28-0.36-0.4-1.33-0.75c-0.2-0.04-0.34-0.12-0.34-0.2c0-0.1,0.18-0.18,0.62-0.24
			c2.05,0.14,2.32,0.34,2.32,0.64c0,0.1-0.04,0.22-0.04,0.36c0,0.2,0.04,1.87,0.06,2.26c0.68,0.02,2.86-0.04,4.21-0.12
			c0.06-0.46,0.14-1.35,0.18-2.58c-0.04-0.44-0.46-0.62-0.93-0.85c-0.16-0.04-0.28-0.12-0.28-0.18c0-0.08,0.16-0.16,0.6-0.22
			c1.75,0.3,2.12,0.48,2.12,0.71c0,0.16-0.14,0.34-0.22,0.58c-0.1,0.6-0.3,1.69-0.48,2.48c0.4,0,1.13-0.02,1.85-0.14
			c0.68-0.04,0.56-0.38,1.53-0.38c0.54,0,2.19,0.04,2.19,0.79c0,0.22-0.18,0.4-0.58,0.4H341.86z M332.92,137.5
			c0.24,0,0.56-0.2,0.56-0.5c0-0.1-0.04-0.22-0.14-0.34c-0.18-0.16-0.28-0.28-0.28-0.36c0-0.08,0.08-0.12,0.26-0.12
			c0.68,0,1.25,0.4,1.25,0.64c0,0.22-0.3,0.4-0.32,0.68c2.82,0.42,4.13,2.21,4.13,3.99c0,1.99-1.69,3.97-4.67,3.97
			c-2.98,0-4.65-2.05-4.65-4.07C329.06,139.65,330.27,137.92,332.92,137.5z M330.19,141.42c0,1.57,1.17,3.14,3.52,3.14
			c2.32,0,3.5-1.57,3.5-3.14c0-1.57-1.17-3.14-3.5-3.14C331.37,138.28,330.19,139.85,330.19,141.42z"/>
	</g>
	<g>
		<path class="st3" d="M403.13,303.11c-1.3,0-2.39-0.25-3.27-0.76c-0.88-0.51-1.54-1.25-1.98-2.24c-0.45-0.98-0.7-2.19-0.75-3.62
			l3.4-0.67c0.04,0.84,0.14,1.58,0.31,2.22c0.17,0.64,0.43,1.14,0.78,1.49c0.35,0.35,0.81,0.52,1.38,0.52c0.64,0,1.1-0.19,1.37-0.58
			c0.27-0.38,0.4-0.87,0.4-1.46c0-0.95-0.21-1.72-0.64-2.33s-1-1.21-1.71-1.82l-2.73-2.41c-0.77-0.66-1.38-1.4-1.84-2.21
			c-0.45-0.81-0.68-1.82-0.68-3.01c0-1.72,0.5-3.04,1.5-3.97c1-0.93,2.37-1.39,4.1-1.39c1.02,0,1.87,0.16,2.55,0.47
			c0.68,0.31,1.22,0.75,1.62,1.3c0.4,0.55,0.7,1.18,0.9,1.89c0.2,0.71,0.32,1.45,0.38,2.24l-3.38,0.59
			c-0.04-0.68-0.11-1.29-0.23-1.82c-0.12-0.54-0.32-0.96-0.62-1.26c-0.29-0.3-0.73-0.46-1.3-0.46c-0.59,0-1.04,0.19-1.35,0.58
			c-0.31,0.38-0.47,0.86-0.47,1.43c0,0.73,0.15,1.34,0.45,1.81c0.3,0.47,0.74,0.96,1.31,1.46l2.71,2.38
			c0.89,0.75,1.66,1.63,2.29,2.64c0.63,1.01,0.95,2.23,0.95,3.66c0,1.04-0.23,1.96-0.68,2.76c-0.46,0.8-1.09,1.43-1.9,1.89
			C405.17,302.89,404.22,303.11,403.13,303.11z"/>
		<path class="st3" d="M413.66,303.06c-0.7,0-1.29-0.18-1.79-0.55c-0.5-0.37-0.88-0.83-1.15-1.39c-0.27-0.56-0.4-1.15-0.4-1.75
			c0-0.96,0.18-1.78,0.54-2.44c0.36-0.66,0.83-1.21,1.42-1.66c0.59-0.45,1.26-0.83,2.01-1.17c0.75-0.33,1.51-0.63,2.28-0.9v-1.34
			c0-0.45-0.03-0.82-0.09-1.12c-0.06-0.3-0.18-0.54-0.35-0.7c-0.17-0.16-0.43-0.24-0.79-0.24c-0.3,0-0.55,0.07-0.74,0.21
			c-0.19,0.14-0.32,0.34-0.4,0.6c-0.08,0.26-0.13,0.56-0.15,0.9l-0.05,0.94l-3.46-0.13c0.05-1.79,0.5-3.1,1.33-3.95
			c0.83-0.85,2.09-1.27,3.79-1.27c1.55,0,2.68,0.43,3.39,1.29c0.71,0.86,1.06,2.02,1.06,3.48v7.16c0,0.57,0.01,1.09,0.04,1.55
			c0.03,0.46,0.06,0.88,0.11,1.26c0.04,0.38,0.08,0.71,0.12,0.99h-3.27c-0.05-0.36-0.12-0.76-0.2-1.22c-0.08-0.46-0.14-0.79-0.17-1
			c-0.18,0.63-0.52,1.19-1.02,1.7C415.2,302.8,414.52,303.06,413.66,303.06z M415,300.35c0.23,0,0.45-0.06,0.66-0.17
			c0.21-0.12,0.39-0.25,0.55-0.42c0.16-0.16,0.28-0.3,0.35-0.43v-4.32c-0.39,0.23-0.76,0.46-1.11,0.7
			c-0.35,0.23-0.65,0.49-0.91,0.76c-0.26,0.28-0.46,0.58-0.59,0.9c-0.13,0.32-0.2,0.7-0.2,1.13c0,0.57,0.11,1.02,0.34,1.35
			C414.3,300.19,414.61,300.35,415,300.35z"/>
		<path class="st3" d="M423.01,302.82v-21.71h3.62v21.71H423.01z"/>
		<path class="st3" d="M432.02,303.06c-0.61,0-1.11-0.16-1.5-0.47c-0.39-0.31-0.68-0.73-0.86-1.26c-0.18-0.53-0.27-1.08-0.27-1.67
			v-12.33h3.64v11.66c0,0.46,0.08,0.83,0.23,1.09c0.15,0.26,0.43,0.39,0.84,0.39c0.27,0,0.54-0.07,0.82-0.21
			c0.28-0.14,0.55-0.31,0.82-0.51v-12.41h3.65v15.49h-3.65v-1.47c-0.52,0.5-1.09,0.91-1.71,1.23
			C433.4,302.9,432.73,303.06,432.02,303.06z"/>
		<path class="st3" d="M446.68,303.01c-0.98,0-1.76-0.16-2.32-0.48s-0.96-0.79-1.19-1.39c-0.23-0.61-0.35-1.33-0.35-2.17v-9.22
			h-1.55v-2.41h1.55v-4.64h3.67v4.64h2.36v2.41h-2.36v8.9c0,0.54,0.12,0.92,0.35,1.14c0.23,0.22,0.58,0.33,1.05,0.33
			c0.2,0,0.39-0.01,0.58-0.03c0.19-0.02,0.37-0.04,0.55-0.05v2.79c-0.3,0.04-0.66,0.08-1.06,0.12
			C447.55,302.98,447.12,303.01,446.68,303.01z"/>
	</g>
	<g>
		<path class="st3" d="M84.36,307.26V281h1.78v11.83h9.21V281h1.75v26.26h-1.75V294.2h-9.21v13.06H84.36z"/>
		<path class="st3" d="M105.79,307.55c-0.99,0-1.85-0.2-2.56-0.6c-0.71-0.4-1.26-1.12-1.64-2.17c-0.38-1.05-0.57-2.53-0.57-4.46
			v-4.99c0-1.97,0.19-3.46,0.58-4.47c0.39-1.02,0.95-1.71,1.67-2.07c0.72-0.37,1.57-0.55,2.54-0.55c1.17,0,2.09,0.25,2.76,0.75
			c0.67,0.5,1.15,1.29,1.43,2.38s0.42,2.53,0.42,4.33v1.78h-7.68v2.98c0,1.49,0.1,2.66,0.31,3.5c0.21,0.84,0.53,1.44,0.99,1.78
			c0.45,0.35,1.04,0.52,1.75,0.52c0.45,0,0.91-0.08,1.36-0.23c0.45-0.15,0.83-0.51,1.13-1.07c0.3-0.56,0.45-1.44,0.45-2.63v-1.39
			h1.69v1.23c0,1.6-0.33,2.9-0.99,3.89C108.78,307.05,107.56,307.55,105.79,307.55z M102.74,296.43h6v-1.46
			c0-1.12-0.06-2.09-0.18-2.9c-0.12-0.81-0.38-1.44-0.79-1.88c-0.41-0.44-1.06-0.67-1.94-0.67c-0.69,0-1.27,0.15-1.73,0.44
			c-0.46,0.29-0.81,0.83-1.02,1.62c-0.22,0.79-0.32,1.93-0.32,3.42V296.43z"/>
		<path class="st3" d="M112.14,312.29c-0.09,0-0.25-0.01-0.5-0.02c-0.25-0.01-0.41-0.03-0.47-0.05v-1.39
			c0.04,0.02,0.17,0.03,0.39,0.03c0.22,0,0.35,0,0.39,0c0.76,0,1.3-0.14,1.64-0.42c0.33-0.28,0.54-0.63,0.62-1.05
			c0.08-0.42,0.11-0.86,0.11-1.31v-19.55h1.72v19.65c0,1.51-0.35,2.58-1.04,3.19C114.3,311.98,113.35,312.29,112.14,312.29z
			 M114.32,286.06v-2.98h1.72v2.98H114.32z"/>
	</g>
</g>
</svg>
