<?xml version="1.0" encoding="utf-8"?>
<!-- Generator: Adobe Illustrator 27.9.0, SVG Export Plug-In . SVG Version: 6.00 Build 0)  -->
<svg version="1.1" id="Layer_1" xmlns="http://www.w3.org/2000/svg" xmlns:xlink="http://www.w3.org/1999/xlink" x="0px" y="0px"
	 viewBox="0 0 500 500" style="enable-background:new 0 0 500 500;" xml:space="preserve">
<style type="text/css">
	.st0{fill:none;stroke:#263238;stroke-linecap:round;stroke-linejoin:round;stroke-miterlimit:10;}
	.st1{fill:#782AD5;}
	.st2{fill:none;stroke:#263238;stroke-linecap:round;stroke-miterlimit:10;}
	.st3{fill:#263238;stroke:#263238;stroke-linecap:round;stroke-miterlimit:10;}
	.st4{fill:none;stroke:#263238;stroke-miterlimit:10;}
	.st5{fill:#8B5E3C;}
	.st6{fill:#263238;stroke:#263238;stroke-miterlimit:10;}
	.st7{fill:#FFFFFF;stroke:#263238;stroke-miterlimit:10;}
	.st8{fill:none;stroke:#737373;stroke-miterlimit:10;}
	.st9{fill:#263238;}
	.st10{fill:#9C9C9C;stroke:#263238;stroke-miterlimit:10;}
	.st11{fill:#BABABA;stroke:#263238;stroke-miterlimit:10;}
</style>
<g id="Background_Simple">
</g>
<g id="Map">
</g>
<g id="Plant_1_">
	<g>
		<g>
			<g>
				<line class="st0" x1="49.53" y1="407.67" x2="49.56" y2="358.91"/>
				<polyline class="st0" points="27.64,370.5 49.12,387.42 64.16,368.33 				"/>
				<path class="st1" d="M49.21,366.38c0,0-5.11-4.37-7.09-11.43c-1.97-7.07,7.58-19.91,7.58-19.91s6.27,13.04,6.94,19.19
					C57.31,360.38,49.21,366.38,49.21,366.38z"/>
				<path class="st1" d="M58.73,375.01c0,0,0.04-7.06,0.77-10.98c0.73-3.93,6.29-6.41,10.33-7.4c4.04-0.98,11.79,0.17,11.79,0.17
					s-0.85,7.66-7.23,12.76C68.01,374.66,58.73,375.01,58.73,375.01z"/>
				<path class="st1" d="M38.25,378.01c0,0,2.14-3.72-5.87-11.83s-21.26-1.44-21.26-1.44s6.39,9.31,10.41,12.36
					S38.25,378.01,38.25,378.01z"/>
				<path class="st1" d="M48.92,397.32c0,0-4.4-6.28-12.35-8.04s-12.9-0.48-12.9-0.48s5.08,10.41,10.91,11.86
					C40.42,402.11,48.92,397.32,48.92,397.32z"/>
				<path class="st1" d="M48.92,397.32c0,0,0.92-2.31,4.26-4.41c3.34-2.1,12.21-2.65,12.21-2.65s-0.23,4.43-5.48,6.82
					C54.65,399.48,48.92,397.32,48.92,397.32z"/>
			</g>
			<line class="st2" x1="38.25" y1="378.01" x2="18.36" y2="365.84"/>
			<line class="st2" x1="49.21" y1="366.38" x2="49.21" y2="345.7"/>
			<line class="st2" x1="58.73" y1="375.01" x2="69.55" y2="362.96"/>
			<polyline class="st2" points="36.86,395.24 48.92,397.32 56.19,395.03 			"/>
		</g>
		<polygon class="st3" points="62.83,402.79 32.8,402.79 35.3,426.17 60.33,426.17 		"/>
	</g>
</g>
<g>
	<path class="st1" d="M258.84,276.06l2.62,13.11c0,0-17.7,5.24-29.83,8.19s-18.86,5.05-17.88,11.27c0.98,6.23,0,20,0,20
		l-13.26,58.53l-0.98,4.26l27.53,4.59l4.92-16.39c0,0,2.95,5.24,2.95,8.85s-3.28,37.8-3.28,37.8H333.9l11.47-71.56
		c0,0,8.19-37.37,8.85-42.94s3.61-11.8-1.31-16.06c-4.92-4.26-49.82-6.88-50.8-7.21c-0.98-0.33-3.61-1.31-3.61-1.31l-0.98-9.51
		c0,0-7.54,3.93-16.39,3.93s-21.96-8.85-21.96-8.85L258.84,276.06z"/>
	<path class="st4" d="M263.03,379.89c0,0,18.44,7.76,31.06,9.38"/>
	<path class="st4" d="M231.64,336.05c0,0-5.9,24.58-4.92,32.12s5.24,11.47,5.24,11.47"/>
</g>
<g>
	<path class="st5" d="M227.32,403.93c0,0,3-4.15-1.15-9.46s-14.99-7.61-20.07-6.92c-5.07,0.69-8.53,4.15-12.92,8.3
		c-4.38,4.15-8.77,7.61-8.77,7.61s-6.92-6-9.69-6.92s-12.46,8.3-14.99,10.84c-2.54,2.54-5.07,3,0.69,6.69
		c5.77,3.69,7.38,3.23,12.92,3.46c5.54,0.23,20.53-1.15,23.07-2.54s10.61-0.92,16.61-3C222.88,408.59,222.93,408.31,227.32,403.93z"
		/>
	<path class="st5" d="M152.01,404.45c0,0-6.38,1.06-8.24,2.39c-1.86,1.33-5.58,4.78-3.99,6.64c1.59,1.86,6.11-2.39,6.91-2.39
		s9.3,1.86,9.3,1.86S155.2,405.78,152.01,404.45z"/>
	<path class="st5" d="M159.18,397.01c0,0-8.24,1.59-9.04,3.99c-0.8,2.39,0.27,14.62,1.06,16.21c0.8,1.59,3.19,1.59,4.25-0.27
		s1.06-9.57,1.86-11.43C158.12,403.65,159.18,397.01,159.18,397.01z"/>
	<path class="st5" d="M169.02,395.94c0,0-6.38-2.39-9.3-1.33c-2.92,1.06-4.78,19.4-3.19,20.47c1.59,1.06,4.25,0.27,5.05-2.13
		c0.8-2.39,2.39-8.24,2.39-8.24l3.99-3.19"/>
	<path class="st5" d="M176.6,393.65c0,0,8.43,8.47,10.81,9.83c2.19,1.26,5.01,2.02,7.54,1.93c3.13-0.12,5.82-2.7,8.94-1.07
		c0.82,0.43,1.56,1.14,1.71,2.05c0.22,1.3-0.79,2.46-1.82,3.28c-4.19,3.34-10.05,4.48-15.19,2.95c-0.33-0.1-0.68-0.21-1.02-0.16
		c-0.34,0.05-0.64,0.27-0.92,0.47c-1.7,1.25-3.25,2.55-5.26,3.23c-3.74,1.28-8.51,0.15-8.51,0.15"/>
	<path class="st5" d="M172.88,404.26c0,0,2.29,2.29,5.35-1.02"/>
	<path class="st5" d="M173.8,399.13c0,0-2.39,10.37-3.46,12.23c-1.06,1.86-3.72,2.66-5.32,0.8c-1.59-1.86,2.13-15.95,2.39-18.07
		c0.27-2.13,2.39-2.13,2.39-2.13s3.99-0.53,5.58,0.27s4.25,6.11,4.25,6.11"/>
</g>
<path class="st5" d="M302.11,288.52c-0.98-0.33-3.61-1.31-3.61-1.31l-0.98-9.51c0,0-7.54,3.93-16.39,3.93
	c-8.85,0-21.96-8.85-21.96-8.85l-0.33,3.28l2.62,13.11c0,0-7.13,2.11-15.44,4.41c3.87,8.63,14.46,29.47,27.9,33.61
	c13.21,4.06,32.51-24.54,40.54-37.62C307.56,288.99,302.44,288.63,302.11,288.52z"/>
<g>
	<polygon class="st6" points="263.48,298.91 252.92,291.54 261.47,289.17 	"/>
	<polygon class="st6" points="261.47,289.17 263.48,298.91 279.94,288.66 258.84,276.06 	"/>
</g>
<line class="st4" x1="298.51" y1="287.21" x2="299.63" y2="295.13"/>
<path class="st4" d="M302.6,302.95c0,0-15.92,4.32-18.61,5.13c-2.7,0.81-5.13,1.89-5.67,3.24"/>
<line class="st4" x1="257.27" y1="305.65" x2="269.89" y2="311.34"/>
<path class="st7" d="M305.99,241.12c0,0,1.91-4.37,3.82-0.82c1.91,3.55,3.28,7.92,0.82,12.01c-2.46,4.1-4.64,5.73-4.64,5.73
	l-2.18-17.75L305.99,241.12z"/>
<path class="st5" d="M242.64,251.22c0,0-2.18,5.19,0.27,11.47s9.56,5.73,9.56,5.73s6.55,10.38,11.47,15.02
	c4.91,4.64,19.11,12.29,24.85,10.38c5.73-1.91,13.93-13.65,16.38-23.75s0.27-24.85,0.27-24.85s1.09-9.01-1.91-16.38
	c-3-7.37-6.83-10.38-13.65-9.56c-6.83,0.82-24.3,3.28-33.86,9.83s-11.74,11.47-11.74,14.47S242.64,251.22,242.64,251.22z"/>
<path class="st6" d="M295.89,227.74c0,0,2.73,6.01,5.19,7.65s2.46,1.64,2.46,1.64s1.37,6.01,1.91,8.19
	c0.55,2.18,2.46,1.37,2.73-1.37c0.27-2.73,0.27-6.28,0.27-6.28s3.82-2.73,5.73-8.19s3.82-13.11-2.18-19.39
	c-6.01-6.28-12.56-7.65-15.56-6.83S293.43,219.82,295.89,227.74z"/>
<g>
	<path class="st6" d="M242.64,251.22c0,0,2.18-1.64,4.1,0.55s1.09,5.19,2.18,6.28c1.09,1.09,3.55,1.91,3.82-1.37
		s-1.91-8.46-0.82-10.92c1.09-2.46,4.64-5.19,7.92-3.28s9.01,6.28,13.11,1.09c4.1-5.19,3.82-13.38,6.83-13.65
		c3-0.27,2.46,2.73,9.56,1.91c7.1-0.82,10.1-2.46,10.65-17.47c0.55-15.02-7.1-27.85-17.2-31.13s-37.68,2.18-47.78,16.38
		c-10.1,14.2-9.56,28.67-5.46,34.4C233.63,239.76,243.46,249.86,242.64,251.22z"/>
	<path class="st8" d="M289.12,205.34c0,0-10.65-3.09-15.12,2.06c-4.47,5.16-4.81,16.5-9.97,18.22s-8.94-3.44-12.72,0
		s-1.03,9.28-6.19,11.34s-11.69-3.09-11.69-3.09"/>
	<path class="st8" d="M257.84,214.96c0,0-5.5-1.37-9.97,2.41s-0.34,9.28-6.53,10.31s-10.65-3.44-10.65-3.44"/>
</g>
<path class="st4" d="M286.6,257.78l0.82,6.83c0,0,5.19,6.28-0.55,7.65c-5.73,1.37-5.46-2.18-5.46-2.18"/>
<path class="st4" d="M275.95,276.07c0,0,6.55,3.82,11.47,3c4.91-0.82,7.92-6.55,7.92-6.55"/>
<path class="st9" d="M273.5,259.28c0,1.89-0.98,3.41-2.18,3.41s-2.18-1.53-2.18-3.41s0.98-3.41,2.18-3.41S273.5,257.39,273.5,259.28
	z"/>
<path class="st9" d="M295.61,255.18c0,1.89-0.98,3.41-2.18,3.41c-1.21,0-2.18-1.53-2.18-3.41s0.98-3.41,2.18-3.41
	C294.63,251.77,295.61,253.3,295.61,255.18z"/>
<path class="st4" d="M261.75,252.59c0,0,6.01-4.64,13.38-3.28"/>
<path class="st4" d="M288.51,246.86c0,0,3.82-4.1,9.83-2.18"/>
<path class="st4" d="M277.52,252.56l-15.48,2.91c-1.41,0.27-2.34,1.64-2.05,3.05l1.1,5.41c0.31,1.55,1.83,2.55,3.38,2.21l14.4-3.09
	c1.42-0.3,2.38-1.63,2.23-3.08l-0.54-5.16C280.41,253.33,279.01,252.28,277.52,252.56z"/>
<path class="st4" d="M289.26,250.13l15.93-2.71c1.45-0.25,2.66,0.71,2.67,2.13l0.05,5.45c0.02,1.56-1.28,3.03-2.88,3.26l-14.9,2.17
	c-1.47,0.21-2.7-0.69-2.85-2.1l-0.55-5.02C286.56,251.86,287.73,250.39,289.26,250.13z"/>
<path class="st4" d="M281.21,255.96c0,0,2.03-2.35,5.63-0.94"/>
<line class="st4" x1="260.41" y1="260.65" x2="247.74" y2="254.24"/>
<path class="st1" d="M325.06,329.82l-2.85,53.52c0,0,1.97,0.98,11.14,6.88c9.18,5.9,23.27,6.56,25.24,4.26
	c1.97-2.29-6.33-85.31-6.33-85.31"/>
<g>
	<path class="st5" d="M200.1,405.55c0,0-0.92,0.92-4.38,1.38s-8.07-1.15-9.23,2.31c-1.15,3.46,4.15,5.54,7.15,5.07
		c3-0.46,8.53-2.54,8.53-2.54s6.46,0.23,9.46,1.38s5.31,3,9.92,1.85s8.64-0.36,10.09-2.26c1.44-1.89,5.37-3.97-6.17-6.97
		c-11.53-3-20.53-0.69-20.53-0.69L200.1,405.55z"/>
	<path class="st5" d="M209.56,396.55c0,0-4.15-1.38-6.46,0.23c-2.31,1.61-5.54,13.61-6.46,17.07c-0.92,3.46-0.92,7.15,0.69,7.84
		s3.46-0.69,4.61-3.69s7.61-16.15,8.3-17.76C210.94,398.63,212.32,396.09,209.56,396.55z"/>
	<path class="st5" d="M219.84,397.34c0,0-8.21-1.48-10.28-0.79c-2.08,0.69-7.15,12.92-7.38,15.22c-0.23,2.31-2.77,9.92,0.23,10.61
		c3,0.69,4.84-2.08,6.23-4.84c1.38-2.77,4.15-11.53,5.77-13.61c1.61-2.08,4.38-3.46,4.38-3.46S222.28,398.82,219.84,397.34z"/>
	<path class="st5" d="M357.09,396.99c0,0,8.05-2.51-4.4-9.72c-12.46-7.21-25.24-8.19-29.5-6.56c-4.26,1.64-67.95,22.2-67.95,22.2
		s-30.81-4.92-35.4-5.57c-4.59-0.66-6.88,4.26-8.85,8.19s-4.59,14.75-3.93,16.06s3.93,0.33,4.59-1.31c0.66-1.64,2.62-7.21,3.28-8.19
		s5.57-3.93,5.57-3.93l7.87,1.31c0,0-5.2,6.92-9.35,9.46c-4.15,2.54-2.54,5.31-0.46,5.31c2.08,0,8.3-3.69,10.61-5.54
		s6.46-4.38,6.46-4.38s2.77,1.38,6.23,1.38c3.46,0,11.3-1.38,13.84-2.08c2.54-0.69,58.57-3.7,65.95-5.32
		C329.02,406.69,347.64,403.93,357.09,396.99z"/>
</g>
<g id="Device">
	<g>
		<rect x="78.74" y="422.36" class="st10" width="186.32" height="3.41"/>
		<rect x="198.79" y="422.36" class="st6" width="66.28" height="3.41"/>
		<path class="st6" d="M201.24,422.36H80.88l-14.87-83.64c-0.42-2.38,1.41-4.56,3.82-4.56h112.48c1.88,0,3.49,1.35,3.82,3.2
			L201.24,422.36z"/>
		<path class="st10" d="M199.1,422.36H78.74l-14.87-83.64c-0.42-2.38,1.41-4.56,3.82-4.56h112.48c1.88,0,3.49,1.35,3.82,3.2
			L199.1,422.36z"/>
	</g>
</g>
<g id="Books">
	<g>
		<path class="st7" d="M458.6,409.61h-80.48c-4.5,0-8.14,3.65-8.14,8.14l0,0c0,4.5,3.65,8.14,8.14,8.14h80.48V409.61z"/>
		<path class="st7" d="M377.19,417.76c0-4.5,3.65-8.14,8.14-8.14h-2.46c-4.5,0-8.14,3.65-8.14,8.14c0,4.5,3.65,8.14,8.14,8.14h2.46
			C380.83,425.9,377.19,422.25,377.19,417.76z"/>
		<path class="st7" d="M401.17,417.76c0-4.5,3.65-8.14,8.14-8.14h-2.46c-4.5,0-8.14,3.65-8.14,8.14c0,4.5,3.65,8.14,8.14,8.14h2.46
			C404.81,425.9,401.17,422.25,401.17,417.76z"/>
		<polygon class="st7" points="416.85,409.61 409.73,413.05 408.3,418.28 410.2,422.55 414.92,425.9 458.6,425.9 458.6,409.61 		"/>
		<path class="st7" d="M415.45,423.44c-3.14,0-5.68-2.54-5.68-5.68s2.54-5.68,5.68-5.68h46.03v-2.46h-46.56
			c-4.5,0-8.14,3.65-8.14,8.14c0,4.5,3.65,8.14,8.14,8.14h46.56v-2.46L415.45,423.44L415.45,423.44z"/>
		<line class="st4" x1="412.1" y1="416.38" x2="424.21" y2="416.38"/>
		<line class="st4" x1="420.41" y1="419.23" x2="429.19" y2="419.23"/>
		<line class="st4" x1="457.92" y1="416.14" x2="445.1" y2="416.14"/>
		<line class="st4" x1="450.08" y1="419.94" x2="437.5" y2="419.94"/>
		<line class="st4" x1="443.44" y1="416.38" x2="440.35" y2="416.38"/>
	</g>
	<g>
		<path class="st10" d="M458.6,392.93h-80.48c-4.5,0-8.14,3.65-8.14,8.14l0,0c0,4.5,3.65,8.14,8.14,8.14h80.48V392.93z"/>
		<path class="st7" d="M377.19,401.08c0-4.5,3.65-8.14,8.14-8.14h-2.46c-4.5,0-8.14,3.65-8.14,8.14c0,4.5,3.65,8.14,8.14,8.14h2.46
			C380.83,409.22,377.19,405.57,377.19,401.08z"/>
		<path class="st7" d="M401.17,401.08c0-4.5,3.65-8.14,8.14-8.14h-2.46c-4.5,0-8.14,3.65-8.14,8.14c0,4.5,3.65,8.14,8.14,8.14h2.46
			C404.81,409.22,401.17,405.57,401.17,401.08z"/>
		<polygon class="st7" points="416.85,392.93 409.73,396.37 408.3,401.6 410.2,405.87 414.92,409.22 458.6,409.22 458.6,392.93 		
			"/>
		<path class="st3" d="M415.45,406.76c-3.14,0-5.68-2.54-5.68-5.68s2.54-5.68,5.68-5.68h46.03v-2.46h-46.56
			c-4.5,0-8.14,3.65-8.14,8.14c0,4.5,3.65,8.14,8.14,8.14h46.56v-2.46L415.45,406.76L415.45,406.76z"/>
		<line class="st4" x1="412.1" y1="399.7" x2="424.21" y2="399.7"/>
		<line class="st4" x1="420.41" y1="402.55" x2="429.19" y2="402.55"/>
		<line class="st4" x1="457.92" y1="399.46" x2="445.1" y2="399.46"/>
		<line class="st4" x1="450.08" y1="403.26" x2="437.5" y2="403.26"/>
		<line class="st4" x1="443.44" y1="399.7" x2="440.35" y2="399.7"/>
	</g>
	<g>
		<polygon class="st11" points="416.9,422.65 277.77,422.65 277.77,426.52 310.62,426.52 363.02,424.14 411.01,426.52 416.9,426.52 
					"/>
		<polygon class="st6" points="310.41,422.65 310.41,426.52 357.88,425.9 358.62,426.52 367.42,426.52 368.45,425.76 416.9,426.52 
			416.9,422.65 		"/>
		<path class="st7" d="M277.67,414.07c0,0,26.88-1.27,36.76-3.74s21.68-3.02,26.35-2.47s10.16,1.92,10.16,1.92
			s19.21-1.92,32.39-0.82s14.55,13.45,14.55,13.45H280.67L277.67,414.07z"/>
		<path class="st7" d="M362.37,422.65v-8.16c0,0-14.17-7.73-27.48-4.72s-24.91,4.29-24.91,4.29v8.59H362.37z"/>
		<path class="st7" d="M362.37,422.65v-8.16c0,0,14.17-7.73,27.48-4.72s24.91,4.29,24.91,4.29v8.59H362.37z"/>
		<rect x="277.67" y="414.07" class="st7" width="32.3" height="8.59"/>
		<path class="st4" d="M332.11,416.2c4.66-0.49,9.51-0.97,12.73-1.25c6.61-0.58,15.53,3.16,15.53,3.16"/>
		<path class="st4" d="M320.11,417.54c1.66-0.21,4.47-0.53,7.7-0.88"/>
		<path class="st4" d="M358.93,420.41c0,0-6.9-2.01-12.65-1.15"/>
		<path class="st4" d="M348.58,412.65c0,0-6.61-0.29-11.79,0.86"/>
		<path class="st4" d="M392.27,417.3c-4.86-0.45-10.78-0.91-14.37-0.91c-6.9,0-12.36,1.44-12.36,1.44"/>
		<path class="st4" d="M400.33,418.11c0,0-1.38-0.15-3.5-0.37"/>
		<path class="st4" d="M369.85,414.95c0,0,6.04-2.3,14.09-0.29"/>
		<path class="st4" d="M370.14,420.7c0,0,6.61-1.44,11.79-1.15c5.18,0.29,18.4,1.44,18.4,1.44"/>
	</g>
</g>
<g id="Table">
	<line class="st4" x1="16.7" y1="426.29" x2="485.86" y2="426.29"/>
</g>
</svg>
