<?xml version="1.0" encoding="utf-8"?>
<!-- Generator: Adobe Illustrator 27.5.0, SVG Export Plug-In . SVG Version: 6.00 Build 0)  -->
<svg version="1.1" xmlns="http://www.w3.org/2000/svg" xmlns:xlink="http://www.w3.org/1999/xlink" x="0px" y="0px"
	 viewBox="0 0 750 500" style="enable-background:new 0 0 750 500;" xml:space="preserve">
<g id="BACKGROUND">
	<rect style="fill:#F1F2F2;" width="750" height="500"/>
	<g>
		
			<line style="fill:none;stroke:#A2AAAA;stroke-linecap:round;stroke-linejoin:round;stroke-miterlimit:10;" x1="52.5" y1="357" x2="697.5" y2="357"/>
		
			<line style="fill:none;stroke:#A2AAAA;stroke-linecap:round;stroke-linejoin:round;stroke-miterlimit:10;" x1="52.5" y1="343" x2="697.5" y2="343"/>
		<polygon style="fill:#F1F2F2;" points="332.773,363.528 332.773,259.828 654.968,259.828 654.968,296.528 340.881,296.528 
			340.881,363.955 		"/>
		<polyline style="fill:none;stroke:#A2AAAA;stroke-linecap:round;stroke-linejoin:round;stroke-miterlimit:10;" points="
			696.818,296.528 340.881,296.528 340.881,363.955 332.773,363.528 332.773,259.828 696.818,259.828 		"/>
		
			<rect x="367.136" y="212.434" style="fill:none;stroke:#A2AAAA;stroke-linecap:round;stroke-linejoin:round;stroke-miterlimit:10;" width="75.786" height="44.081"/>
		<polygon style="fill:#F1F2F2;" points="393.396,233.097 381.393,253.202 381.393,259.804 401.498,259.804 401.498,253.202 
			412.301,233.097 		"/>
		<polygon style="fill:none;stroke:#A2AAAA;stroke-linecap:round;stroke-linejoin:round;stroke-miterlimit:10;" points="
			393.396,233.097 381.393,253.202 381.393,259.804 401.498,259.804 401.498,253.202 412.301,233.097 		"/>
		<path style="fill:none;stroke:#A2AAAA;stroke-linecap:round;stroke-linejoin:round;stroke-miterlimit:10;" d="M383.401,253.451
			c0.354,0,15.204,0,15.204,0"/>
		
			<line style="fill:none;stroke:#A2AAAA;stroke-linecap:round;stroke-linejoin:round;stroke-miterlimit:10;" x1="439.975" y1="212.788" x2="439.975" y2="256.28"/>
		
			<line style="fill:none;stroke:#A2AAAA;stroke-linecap:round;stroke-linejoin:round;stroke-miterlimit:10;" x1="341.014" y1="336.006" x2="696.165" y2="336.006"/>
		<polyline style="fill:none;stroke:#A2AAAA;stroke-linecap:round;stroke-linejoin:round;stroke-miterlimit:10;" points="
			698.275,331.182 345.838,331.182 345.838,301.335 698.275,301.335 		"/>
		<path style="fill:none;stroke:#A2AAAA;stroke-linecap:round;stroke-linejoin:round;stroke-miterlimit:10;" d="M489.995,259.415
			v-65.123c0-7.116,5.768-12.884,12.884-12.884h77.692c7.115,0,12.884,5.768,12.884,12.884v65.595"/>
		<path style="fill:none;stroke:#A2AAAA;stroke-linecap:round;stroke-linejoin:round;stroke-miterlimit:10;" d="M570.359,181.643
			c0,0,14.14,7.07,14.14,24.274s0,53.733,0,53.733"/>
		
			<rect x="76" y="71" style="fill:none;stroke:#A2AAAA;stroke-linecap:round;stroke-linejoin:round;stroke-miterlimit:10;" width="79" height="116"/>
		
			<rect x="164" y="71" style="fill:none;stroke:#A2AAAA;stroke-linecap:round;stroke-linejoin:round;stroke-miterlimit:10;" width="79" height="116"/>
		
			<rect x="76" y="193" style="fill:none;stroke:#A2AAAA;stroke-linecap:round;stroke-linejoin:round;stroke-miterlimit:10;" width="79" height="116"/>
		
			<rect x="164" y="193" style="fill:none;stroke:#A2AAAA;stroke-linecap:round;stroke-linejoin:round;stroke-miterlimit:10;" width="79" height="116"/>
	</g>
</g>
<g id="OBJECTS">
	<g>
		<ellipse style="fill:#E6E7E8;" cx="138.359" cy="419.672" rx="39.336" ry="17.032"/>
		<g>
			<g>
				<g>
					<path style="fill:#EC9D7D;" d="M223.789,153.316c0.304-0.405,0.617-0.855,0.603-1.361c-0.02-0.727-0.693-1.263-0.912-1.957
						c-0.268-0.852,0.206-1.778,0.854-2.393c0.648-0.615,1.462-1.026,2.147-1.599c1.198-1.002,1.961-2.507,2.06-4.065
						c0.022-0.345,0.016-0.705,0.167-1.015c0.151-0.311,0.526-0.548,0.843-0.41c0.162,0.07,0.274,0.221,0.372,0.368
						c0.792,1.198,1.177,2.66,1.076,4.092c4.909,0.537,9.817,1.073,14.726,1.61c1.767,0.193,3.635,0.426,5.037,1.52
						c0.574,0.448,1.064,1.077,1.113,1.803c0.07,1.038-0.757,1.916-1.621,2.496c-5.66,3.802-14.017,0.598-19.696,4.371
						c-1.174,0.78-2.152,1.817-3.089,2.87c-1.06,1.191-2.1,2.433-3.433,3.307s-3.037,1.341-4.542,0.815
						c-0.92-0.322-1.946-1.24-2.118-2.249c-0.205-1.204,0.452-1.399,1.257-2.162C220.536,157.553,222.217,155.41,223.789,153.316z"
						/>
					<path style="fill:#843725;" d="M251.037,148.83c-0.015,0-0.029,0-0.046-0.003c-2.341-0.264-3.978-0.454-5.614-0.644
						c-1.643-0.191-3.285-0.382-5.639-0.648c-0.223-0.025-0.384-0.226-0.358-0.451c0.024-0.223,0.204-0.41,0.451-0.358
						c2.354,0.266,3.996,0.455,5.64,0.646c1.634,0.19,3.271,0.381,5.612,0.645c0.223,0.025,0.384,0.226,0.358,0.451
						C251.419,148.677,251.242,148.83,251.037,148.83z"/>
					<path style="fill:#843725;" d="M251.366,151.562c-0.013,0-0.027,0-0.041-0.001c-2.749-0.273-4.121-0.374-5.448-0.472
						c-1.332-0.098-2.709-0.199-5.469-0.473c-0.223-0.023-0.388-0.222-0.365-0.447c0.023-0.222,0.209-0.395,0.447-0.365
						c2.749,0.273,4.121,0.374,5.448,0.472c1.332,0.098,2.709,0.2,5.469,0.474c0.223,0.022,0.388,0.222,0.365,0.447
						C251.751,151.405,251.574,151.562,251.366,151.562z"/>
					<path style="fill:#843725;" d="M248.72,153.764c-0.013,0-0.025,0-0.039-0.001c-0.861-0.083-1.796-0.188-2.754-0.298
						c-1.796-0.204-3.652-0.415-5.258-0.495c-0.225-0.011-0.398-0.204-0.386-0.429c0.011-0.226,0.194-0.423,0.429-0.386
						c1.63,0.083,3.499,0.295,5.307,0.5c0.953,0.108,1.884,0.214,2.742,0.295c0.223,0.021,0.388,0.221,0.367,0.445
						C249.106,153.607,248.928,153.764,248.72,153.764z"/>
					<path style="fill:#843725;" d="M240.509,153.331c-0.001,0-0.003,0-0.004,0c-0.225-0.001-0.406-0.187-0.403-0.412
						c0.053-5.303-1.106-5.746-1.117-5.75c-0.225-0.017-0.371-0.211-0.353-0.436c0.018-0.223,0.24-0.386,0.461-0.37
						c0.443,0.035,1.884,0.613,1.824,6.564C240.915,153.151,240.733,153.331,240.509,153.331z"/>
					<path style="fill:#843725;" d="M230.334,150.951c-0.133,0-0.266-0.066-0.344-0.188c-0.121-0.19-0.065-0.441,0.125-0.563
						c0.344-0.221,0.577-0.683,0.691-1.374c0.197-1.204,0.049-2.491-0.416-3.622c-0.084-0.208,0.014-0.447,0.223-0.533
						c0.207-0.084,0.444,0.014,0.533,0.223c0.528,1.287,0.689,2.692,0.464,4.064c-0.152,0.93-0.507,1.579-1.057,1.931
						C230.486,150.931,230.41,150.951,230.334,150.951z"/>
				</g>
				<path style="fill:#DADEE9;" d="M162.21,144.951c0,0,15.9,16.417,24.079,29.708c0,0,2.568-2.234,3.079,0.577l31.629-19.55
					c0,0,5.879,3.323,7.412,9.968c0,0-27.86,21.982-32.461,26.071c-4.601,4.09-12.269,12.269-22.237-1.022
					s-25.815-33.228-25.815-33.228s-4.09-7.924,0.511-15.336S162.21,144.951,162.21,144.951z"/>
				<path style="fill:#ACBBDD;" d="M183.715,180.398c-0.089,0-0.177-0.028-0.251-0.086c-0.177-0.139-0.208-0.396-0.07-0.573
					c1.596-2.039,3.669-3.718,5.997-4.855c0.201-0.098,0.448-0.013,0.545,0.188c0.098,0.202,0.014,0.445-0.188,0.545
					c-2.216,1.082-4.192,2.681-5.711,4.624C183.955,180.344,183.836,180.398,183.715,180.398z"/>
				<path style="fill:#ACBBDD;" d="M183.017,178.53c-0.1,0-0.201-0.037-0.28-0.111c-0.164-0.155-0.171-0.412-0.017-0.576l3.08-3.271
					c0.15-0.164,0.412-0.174,0.576-0.017c0.164,0.155,0.171,0.412,0.017,0.576l-3.08,3.271
					C183.233,178.488,183.125,178.53,183.017,178.53z"/>
				<path style="fill:#ACBBDD;" d="M224.011,168.137c-0.155,0-0.303-0.089-0.371-0.239c-0.028-0.062-2.881-6.263-6.573-8.48
					c-0.194-0.117-0.256-0.367-0.141-0.559c0.117-0.195,0.37-0.257,0.559-0.141c3.913,2.348,6.777,8.579,6.897,8.843
					c0.094,0.205,0.003,0.447-0.202,0.54C224.125,168.126,224.067,168.137,224.011,168.137z"/>
			</g>
			<path style="fill:#9D3F2D;" d="M154.88,405.532c0,0,7.216,8.558,12.25,13.928c5.034,5.37,8.558,11.075,3.188,11.243
				c-5.37,0.168-11.411-1.51-15.27-6.041s-4.195-5.873-6.88-6.377c-2.685-0.503-5.873-0.671-6.376-3.02s0.168-9.229,0.168-9.229
				L154.88,405.532z"/>
			<path style="fill:#9D3F2D;" d="M119.932,406.457c0,0.503-1.007,6.712-0.168,12.417c0.839,5.705-0.671,16.613-6.88,16.109
				c-6.209-0.503-9.565-7.551-7.215-14.935c2.349-7.383,3.188-14.935,3.188-14.935L119.932,406.457z"/>
			<path style="fill:#242C4D;" d="M170.428,233.13l-12.593,173.992c0,0-10.704,3.518-17.946,0l-0.965-141.3l-14.462,141.62
				c0,0-8.815,4.798-18.575,0l-0.315-183.588C105.571,223.854,163.502,224.174,170.428,233.13z"/>
			<path style="fill:#384775;" d="M137.25,267.073c-0.107,0-0.211-0.042-0.287-0.118c-0.09-0.09-0.133-0.214-0.118-0.337
				c0.025-0.211,2.532-20.889,2.449-24.2c-0.006-0.228,0.173-0.413,0.398-0.419c0.174,0,0.412,0.172,0.417,0.396
				c0.077,3.114-1.991,20.476-2.392,23.798l3.097-0.402c0.91-3.62,4.007-22.755,4.058-23.691c-0.013-0.183,0.097-0.357,0.278-0.419
				c0.222-0.07,0.447,0.045,0.516,0.258c0.185,0.554-3.45,21.929-4.137,24.332c-0.045,0.157-0.178,0.27-0.34,0.292l-3.888,0.506
				C137.285,267.073,137.267,267.073,137.25,267.073z"/>
			<path style="fill:#9D3F2D;" d="M170.428,233.13l-0.51,7.05c-5.711,1.921-31.189,7.737-64.318,0.087l-0.028-16.412
				C105.571,223.854,163.501,224.174,170.428,233.13z"/>
			<polygon style="fill:#242C4D;" points="163.212,236.696 162.769,245.289 160.819,245.201 160.199,236.076 			"/>
			<polygon style="fill:#242C4D;" points="125.913,237.848 125.47,246.441 123.521,246.352 122.901,237.227 			"/>
			<polygon style="fill:#242C4D;" points="155.149,237.759 154.706,246.352 152.757,246.264 152.137,237.139 			"/>
			<polygon style="fill:#242C4D;" points="135.924,238.202 135.481,246.796 133.532,246.707 132.912,237.582 			"/>
			<path style="fill:#DADEE9;" d="M167.471,238.209c-3.555,0.97-7.584,0.963-11.106,1.345c-5.079,0.551-10.178,0.931-15.284,1.111
				c-11.978,0.423-24.365-0.025-35.938-3.408c-0.175-0.051-0.347-6.983-0.429-7.566c-0.56-3.998-0.588-8.035-0.387-12.061
				c0.408-8.146,1.764-16.244,1.527-24.418c-0.277-9.543-2.715-18.829-3.912-28.264c-0.584-4.606-1.045-9.459-0.451-14.09
				c0.519-4.052,3.449-7.287,6.782-9.578c12.536-8.618,38.782-12.536,48.576-1.959c4.35,4.698,9.737,8.875,11.949,14.964
				c2.439,6.715,3.833,12.74,3.884,19.956c0.072,10.113-1.079,20.175-1.65,30.26c-0.515,9.09-1.208,19.193,1.576,27.957
				c0.24,0.755,0.503,1.559,0.292,2.323c-0.229,0.826-0.961,1.406-1.69,1.856C170.064,237.347,168.801,237.846,167.471,238.209z"/>
			<g>
				<path style="fill:#EC9D7D;" d="M127.209,117.47l0.802,21.334c0,0-0.829,8.647,12.36,8.447c0,0,8.378-1.086,8.251-9.479
					l-0.29-19.183L127.209,117.47z"/>
				<path style="fill:#B24F38;" d="M127.29,119.643l-0.082-2.172l21.02,1.114c0.036,0.05,0.069,0.1,0.105,0.149l0.159,10.492
					C143.812,131.566,133.939,134.18,127.29,119.643z"/>
				<path style="fill:#EC9D7D;" d="M123.867,112.793c1.749,5.393,5.1,10.912,9.881,14.115c4.731,3.17,11.463,3.559,15.411-1.054
					c2.27-2.653,3.262-6.189,3.579-9.666c0.165-1.805,0.166-3.626,0.427-5.42c0.211-1.446,0.59-2.863,0.801-4.309
					c0.272-1.859,0.263-3.748,0.151-5.624c-0.13-2.166-0.407-4.356-1.247-6.356c-2.972-7.071-12.551-7.777-18.808-5.257
					c-8.136,3.275-12.411,11.732-11.005,20.301c0.015,0.086,0.029,0.173,0.044,0.259
					C123.269,110.732,123.527,111.746,123.867,112.793z"/>
				<path style="fill:#191D2F;" d="M127.079,108.897c-0.099-1.234-0.404-2.482,0.097-3.59c0.364-0.805,1.092-1.372,1.763-1.945
					c1.017-0.867,1.985-1.849,2.517-3.075c0.532-1.226,0.556-2.743-0.231-3.824c-0.449-0.617-1.173-1.178-1.096-1.938
					c0.04-0.392,0.3-0.728,0.593-0.991c1.215-1.089,2.988-1.216,4.618-1.287c3.189-0.139,6.386-0.271,9.576-0.071
					c1.425,0.089,2.846,0.313,4.259,0.358c1.02,0.033,2.103,0.657,2.32,1.701c0.074,0.354,0.046,0.732,0.189,1.064
					c0.135,0.313,0.404,0.545,0.629,0.802c0.581,0.666,0.873,1.531,1.118,2.381c0.302,1.043,0.555,2.101,0.758,3.167
					c0.335-0.653,0.36-1.296,0.529-1.987c0.131-0.534,0.266-0.964,0.247-1.537c-0.019-0.575-0.122-1.143-0.197-1.714
					c-0.148-1.119-0.19-2.252-0.127-3.379c0.06-1.063,0.319-2.097,0.358-3.155c0.071-1.924-0.227-3.923-1.439-5.482
					c-0.446-0.574-1.273-1.195-2.029-0.842c-0.338,0.158-0.448,0.499-0.744,0.69c-0.376,0.243-0.949,0.248-1.359,0.111
					c-0.345-0.115-0.648-0.335-0.992-0.452c-0.416-0.142-0.867-0.125-1.306-0.108c-6.125,0.249-12.332,0.511-18.188,2.321
					c-0.972,0.301-1.942,0.645-2.955,0.747c-1.054,0.106-2.116-0.056-3.157-0.254c-0.133-0.025-0.277-0.05-0.401,0.005
					c-0.543,0.242,0.044,1.442-0.543,1.534c-0.506-0.254-1.059-0.516-1.614-0.407c-0.555,0.109-1.015,0.786-0.695,1.253
					c0.121,0.178,0.324,0.285,0.456,0.454c0.189,0.243,0.207,0.573,0.216,0.88c0.105,3.772-0.209,7.524-0.209,11.289
					c0.206,4.064,1.426,8,2.637,11.885c0.26,0.835,0.755-0.133,0.928-0.509c0.23-0.501,0.351-1.052,0.344-1.604
					c-0.002-0.143-0.009-0.299,0.075-0.416c0.151-0.21,0.491-0.149,0.69,0.015c0.199,0.165,0.331,0.404,0.544,0.55
					c0.383,0.265,0.942,0.144,1.278-0.179c0.336-0.323,0.485-0.797,0.54-1.259C127.122,109.706,127.111,109.302,127.079,108.897z"/>
				<path style="fill:#EC9D7D;" d="M120.569,110.114c0.517,1.656,1.741,2.966,3.166,3.424c0.299,0.096,0.628,0.154,0.91,0.002
					c2.643-1.42,1.224-7.605-0.691-9.036C121.119,102.384,119.794,107.634,120.569,110.114z"/>
				<circle style="fill:#1E1C1B;" cx="137.825" cy="106.781" r="1.449"/>
				<path style="fill:#1E1C1B;" d="M150.894,106.781c0,0.8-0.649,1.45-1.45,1.45c-0.8,0-1.449-0.649-1.449-1.45
					s0.649-1.45,1.449-1.45C150.245,105.331,150.894,105.98,150.894,106.781z"/>
				<path style="fill:#BF6443;" d="M144.371,116.715c-0.192,0-0.379-0.014-0.556-0.027c-0.156-0.012-0.273-0.147-0.262-0.304
					c0.012-0.156,0.155-0.267,0.304-0.262c0.348,0.025,0.709,0.053,1.032-0.031c0.246-0.064,0.544-0.231,0.639-0.51
					c0.075-0.218,0.021-0.496-0.026-0.741l-1.659-8.581c-0.03-0.154,0.071-0.302,0.225-0.332c0.151-0.029,0.302,0.07,0.332,0.225
					l1.659,8.582c0.058,0.299,0.129,0.671,0.005,1.032c-0.143,0.417-0.529,0.744-1.033,0.875
					C144.812,116.698,144.589,116.715,144.371,116.715z"/>
				<g>
					<path style="fill:#773728;" d="M146.147,119.448c0,0-6.525-0.581-10.949-1.788c0,0,0.447,4.335,4.737,5.184
						C144.226,123.693,146.147,119.448,146.147,119.448z"/>
					<path style="fill:#E25252;" d="M136.127,120.216c0.677,1.106,1.832,2.237,3.809,2.628c1.31,0.259,2.397,0.041,3.278-0.384
						C141.581,120.352,137.779,120.181,136.127,120.216z"/>
					<path style="fill:#F1F2F2;" d="M144.852,120.431l0.319-1.081c-1.98-0.211-6.587-0.766-9.972-1.69c0,0,0.058,0.527,0.308,1.244
						C137.257,119.487,141.715,120.819,144.852,120.431z"/>
				</g>
				<path style="fill:#191D2F;" d="M137.108,102.482c0.917-0.243,1.825-0.519,2.732-0.794c0.225-0.068,0.469-0.15,0.598-0.346
					c0.196-0.298,0.028-0.711-0.229-0.958c-1.049-1.012-3.725-0.541-4.918,0.092c-0.478,0.254-1.391,1.167-1.264,1.761
					C134.245,103.247,136.435,102.661,137.108,102.482z"/>
				<path style="fill:#191D2F;" d="M149.428,102.482c-0.917-0.243-1.825-0.519-2.733-0.794c-0.225-0.068-0.469-0.15-0.598-0.346
					c-0.196-0.298-0.028-0.711,0.229-0.958c1.049-1.012,3.726-0.541,4.918,0.092c0.478,0.254,1.391,1.167,1.264,1.761
					C152.292,103.247,150.102,102.661,149.428,102.482z"/>
				<g>
					<path style="fill:#1E1C1B;" d="M124.115,111.543c0.306,1.021,1.154,1.771,1.964,2.463c0.855,0.731,1.749,1.484,2.835,1.781
						c0.631,0.173,1.475,0.076,1.7-0.539c0.226-0.619-0.343-1.22-0.854-1.635c-1.229-0.998-2.459-1.995-3.688-2.993
						c-0.223-0.181-0.456-0.377-0.543-0.649c-0.363-1.133,0.029-2.004-1.21-2.753c-0.859-0.519-1.73-0.439-2.405,0.317
						C120.396,109.234,121.702,112.195,124.115,111.543z"/>
					<path style="fill:#DADEE9;" d="M122.576,109.666c0.005-0.255,0.011-0.515,0.096-0.755c0.085-0.24,0.265-0.462,0.51-0.529
						c0.246-0.067,0.549,0.068,0.607,0.317c0.038,0.164-0.029,0.331-0.088,0.489c-0.316,0.852-0.147,1.701-0.325,2.526
						C122.502,111.535,122.563,110.333,122.576,109.666z"/>
					<path style="fill:#DADEE9;" d="M129.944,114.599l-4.525-3.232c-1.055-0.754-0.996-2.902-0.993-2.994
						c0.003-0.077,0.065-0.137,0.142-0.137c0.002,0,0.003,0,0.005,0c0.078,0.003,0.139,0.068,0.137,0.146
						c0,0.021-0.057,2.087,0.875,2.753l4.525,3.232L129.944,114.599z"/>
				</g>
			</g>
			<path style="fill:#DADEE9;" d="M126.591,128.524l14.517,10.998l2.493,6.159l5.132-15.251l5.279,6.745l-0.88,8.505l-3.959-4.839
				c0,0-1.613,5.426-4.839,6.892l-2.346,0.293l-3.959-0.147l-3.226,1.613l-10.265-11.291L126.591,128.524z"/>
			<path style="fill:#EC9D7D;" d="M119.871,244.778l3.967,4.79c0,0-3.145,6.773-11.515,5.37l-1.403-5.806L119.871,244.778z"/>
			<path style="fill:#DADEE9;" d="M120.067,156.927c0,0-12.167,31.993-18.024,39.654l19.827,47.089c0,0-3.154,6.309-11.716,7.21
				c0,0-19.602-38.527-22.08-41.907c-2.478-3.38-5.407-8.787-5.407-11.265c0-2.478,13.744-45.061,21.179-51.82
				c7.435-6.759,11.941-4.731,14.194-3.605C120.293,143.408,124.348,149.041,120.067,156.927z"/>
			<path style="fill:#ACBBDD;" d="M120.92,242.201c-0.159,0-0.31-0.093-0.376-0.25l-18.877-45.214
				c-0.045-0.108-0.041-0.229,0.008-0.334c0.15-0.312,15.025-31.21,15.847-34.146c0.129-0.461,0.36-1.055,0.652-1.806
				c1.679-4.329,4.806-12.387-1.855-18.45c-0.167-0.152-0.18-0.41-0.028-0.576c0.152-0.169,0.41-0.178,0.576-0.028
				c7.075,6.44,3.693,15.159,2.067,19.349c-0.273,0.701-0.507,1.307-0.627,1.73c-0.818,2.924-14.514,31.406-15.818,34.115
				l18.807,45.046c0.087,0.208-0.011,0.447-0.219,0.534C121.026,242.193,120.972,242.201,120.92,242.201z"/>
			<path style="fill:#ACBBDD;" d="M89.064,199.639c-0.146,0-0.29-0.079-0.361-0.219c-0.105-0.2-0.027-0.445,0.173-0.549
				c3.835-2,8.326-2.864,12.62-2.425c0.225,0.022,0.388,0.223,0.365,0.447c-0.022,0.223-0.208,0.381-0.447,0.365
				c-4.158-0.421-8.467,0.41-12.162,2.335C89.192,199.625,89.127,199.639,89.064,199.639z"/>
			<path style="fill:#ACBBDD;" d="M99.412,195.939h-6.009c-0.225,0-0.408-0.183-0.408-0.408c0-0.225,0.183-0.408,0.408-0.408h6.009
				c0.225,0,0.408,0.183,0.408,0.408C99.819,195.756,99.636,195.939,99.412,195.939z"/>
			<path style="fill:#ACBBDD;" d="M97.484,199.769c-0.174,0-0.335-0.111-0.389-0.285c-0.067-0.216,0.052-0.444,0.267-0.512
				c0.669-0.208,1.388-0.288,2.081-0.236c0.223,0.017,0.392,0.214,0.374,0.438c-0.017,0.223-0.18,0.406-0.438,0.374
				c-0.585-0.041-1.203,0.025-1.772,0.202C97.565,199.764,97.524,199.769,97.484,199.769z"/>
			<path style="fill:#ACBBDD;" d="M120.308,162.018c-0.077,0-0.156-0.021-0.225-0.068c-0.188-0.125-0.24-0.378-0.115-0.565
				c0.457-0.69,0.77-1.468,1.04-2.208c1.786-4.905,2.326-10.23,1.558-15.395c-0.034-0.223,0.121-0.431,0.343-0.464
				c0.239-0.031,0.433,0.121,0.464,0.343c0.787,5.3,0.235,10.762-1.598,15.796c-0.288,0.787-0.624,1.619-1.127,2.378
				C120.569,161.955,120.44,162.018,120.308,162.018z"/>
			<path style="fill:#ACBBDD;" d="M143.271,147.273c-0.131,0-0.26-0.063-0.339-0.18l-3.631-5.392l-2.904,4.194
				c-0.063,0.091-0.162,0.153-0.273,0.172c-0.107,0.017-0.221-0.011-0.311-0.079c-0.072-0.055-7.183-5.505-10.782-10.667
				c-0.129-0.184-0.084-0.438,0.101-0.568c0.183-0.127,0.437-0.086,0.568,0.101c3.083,4.419,8.824,9.08,10.27,10.221l2.999-4.331
				c0.077-0.111,0.202-0.176,0.336-0.176c0.173-0.024,0.263,0.066,0.339,0.18l3.965,5.888c0.125,0.187,0.076,0.44-0.111,0.566
				C143.429,147.251,143.35,147.273,143.271,147.273z"/>
			<path style="fill:#ACBBDD;" d="M144.713,147.633c-0.05,0-0.102-0.008-0.153-0.029c-0.208-0.084-0.309-0.322-0.225-0.531
				l2.283-5.647c0.052-0.128,0.164-0.221,0.301-0.247c0.136-0.032,0.275,0.018,0.371,0.117l3.139,3.245l2.549-7.537
				c0.072-0.214,0.302-0.325,0.517-0.256c0.214,0.072,0.327,0.304,0.256,0.517l-2.764,8.171c-0.045,0.135-0.159,0.236-0.297,0.267
				c-0.143,0.031-0.285-0.013-0.384-0.114l-3.167-3.274l-2.049,5.066C145.026,147.538,144.874,147.633,144.713,147.633z"/>
			<path style="fill:#ACBBDD;" d="M149.278,239.798c-0.174,0-0.334-0.112-0.389-0.287c-2.975-9.519-4.151-36.632-2.42-55.792
				c1.657-18.34-2.826-35.138-2.871-35.305c-0.059-0.218,0.069-0.441,0.287-0.5c0.215-0.062,0.441,0.07,0.5,0.287
				c0.046,0.169,4.565,17.107,2.896,35.592c-1.723,19.078-0.564,46.038,2.386,55.478c0.067,0.214-0.052,0.444-0.267,0.511
				C149.36,239.793,149.319,239.798,149.278,239.798z"/>
			<path style="fill:#ACBBDD;" d="M123.684,170.814c-0.108,0-0.211-0.042-0.287-0.118c-0.077-0.076-0.121-0.181-0.121-0.289v-3.225
				c0-0.223,0.18-0.406,0.405-0.408l15.996-0.135c0,0,0.001,0,0.003,0c0.212,0,0.389,0.162,0.406,0.374l0.268,3.226
				c0.01,0.112-0.028,0.225-0.105,0.309c-0.076,0.083-0.184,0.132-0.298,0.132l-16.265,0.134
				C123.687,170.814,123.686,170.814,123.684,170.814z M124.092,167.587v2.408l15.415-0.126l-0.201-2.41L124.092,167.587z"/>
			<path style="fill:#ACBBDD;" d="M171.619,194.688c-0.011,0-0.021,0-0.032-0.001c-0.225-0.018-0.392-0.215-0.374-0.439
				c0.02-0.253,2.001-25.301-0.998-33.048l-0.424-1.097c-2.73-7.058-4.234-10.945-5.891-12.839c-0.149-0.17-0.132-0.427,0.038-0.575
				c0.169-0.15,0.427-0.132,0.575,0.038c1.752,2.002,3.184,5.705,6.038,13.081l0.426,1.098c3.066,7.919,1.133,32.371,1.048,33.408
				C172.008,194.527,171.83,194.688,171.619,194.688z"/>
			<path style="fill:#ACBBDD;" d="M107.571,244.93c-0.178,0-0.343-0.118-0.394-0.298c-0.06-0.216,0.068-0.441,0.284-0.503
				c8.009-2.234,10.54-5.404,10.564-5.438c0.141-0.171,0.396-0.205,0.572-0.073c0.178,0.138,0.212,0.393,0.076,0.571
				c-0.107,0.138-2.681,3.406-10.993,5.727C107.645,244.925,107.608,244.93,107.571,244.93z"/>
			<path style="fill:#384775;" d="M129.506,268.034c-0.209,0-0.388-0.16-0.406-0.371c-0.02-0.225,0.146-0.421,0.369-0.444
				c9.758-0.866,16.168-2.178,16.231-2.192c0.223-0.048,0.436,0.096,0.482,0.318c0.046,0.219-0.096,0.436-0.316,0.481
				c-0.065,0.014-6.516,1.335-16.324,2.209C129.53,268.034,129.517,268.034,129.506,268.034z"/>
			<path style="fill:#384775;" d="M113.205,255.646c-2.09,0-4.398-0.514-6.908-1.793c-0.201-0.101-0.28-0.346-0.178-0.548
				c0.104-0.2,0.354-0.275,0.549-0.177c5.028,2.563,9.787,2.262,14.139-0.877c3.27-2.364,5.066-5.517,5.084-5.548
				c0.11-0.197,0.358-0.267,0.555-0.155c0.197,0.11,0.267,0.357,0.156,0.554C126.541,247.209,121.675,255.646,113.205,255.646z"/>
		</g>
	</g>
	<g>
		<ellipse style="fill:#E6E7E8;" cx="621.378" cy="425.672" rx="45.021" ry="17.032"/>
		<g>
			<path style="fill:#414C82;" d="M661.847,212.051c-2.026,0-4.494-0.421-6.693-1.981c-0.184-0.129-0.228-0.382-0.097-0.568
				c0.131-0.186,0.382-0.225,0.569-0.096c4.366,3.091,10.084,1.298,10.14,1.282c0.216-0.079,0.445,0.048,0.513,0.261
				c0.069,0.216-0.048,0.447-0.263,0.514C665.884,211.506,664.148,212.051,661.847,212.051z"/>
			<g>
				<path style="fill:#24262D;" d="M599.636,409.532c0,0-7.216,8.558-12.25,13.928c-5.034,5.37-8.558,11.075-3.188,11.243
					c5.37,0.168,11.411-1.51,15.27-6.041s4.195-5.873,6.88-6.377c2.685-0.503,5.873-0.671,6.377-3.02
					c0.503-2.349-0.168-9.229-0.168-9.229L599.636,409.532z"/>
				<path style="fill:#24262D;" d="M634.584,410.457c0,0.503,1.007,6.712,0.168,12.417c-0.839,5.705,0.671,16.613,6.88,16.109
					c6.209-0.503,9.565-7.551,7.216-14.935c-2.349-7.383-3.188-14.935-3.188-14.935L634.584,410.457z"/>
				<path style="fill:#242C4D;" d="M589.909,231.617l6.773,179.505c0,0,10.704,3.518,17.946,0l5.053-140.353l10.374,140.672
					c0,0,8.815,4.798,18.576,0l0.315-183.588C648.945,227.854,596.835,222.661,589.909,231.617z"/>
				<path style="fill:#384775;" d="M620.937,271.889c-0.017,0-0.035,0-0.052-0.003l-3.888-0.506
					c-0.162-0.023-0.295-0.135-0.34-0.292c-0.687-2.403-4.322-23.778-4.137-24.332c0.07-0.214,0.294-0.329,0.516-0.259
					c0.181,0.062,0.291,0.236,0.278,0.419c0.051,0.936,3.148,20.071,4.058,23.691l3.097,0.402
					c-0.401-3.322-2.468-20.684-2.39-23.798c0.006-0.225,0.197-0.452,0.417-0.396c0.225,0.006,0.403,0.191,0.398,0.419
					c-0.083,3.311,2.422,23.989,2.448,24.2c0.016,0.124-0.028,0.247-0.118,0.337C621.147,271.847,621.043,271.889,620.937,271.889z"
					/>
				<path style="fill:#384775;" d="M628.68,272.85c-0.011,0-0.024,0-0.036,0c-9.808-0.877-16.259-2.195-16.324-2.209
					c-0.221-0.045-0.362-0.261-0.316-0.481c0.044-0.222,0.257-0.363,0.482-0.318c0.063,0.014,6.474,1.324,16.231,2.192
					c0.223,0.023,0.389,0.219,0.37,0.444C629.068,272.69,628.89,272.85,628.68,272.85z"/>
			</g>
			<g>
				<path style="fill:#FBB040;" d="M668.301,269.271c0.182,0,2.123,0.364,2.123,0.364l-0.819,7.672l0.97,0.152l0.849-8.642
					l-2.972-0.606L668.301,269.271z"/>
				<g>
					<polygon style="fill:#17191E;" points="623.69,273.746 636.321,272.788 688.604,279.544 688.311,325.659 636.027,332.121 
						624.278,330.403 					"/>
					<polygon style="fill:#24262D;" points="688.604,279.544 636.321,272.788 636.027,332.121 688.31,325.659 					"/>
				</g>
				<path style="fill:#A05E47;" d="M656.079,263.109c-0.435,0.725-0.937,1.43-1.159,2.245c-0.381,1.401,0.125,2.895,0.833,4.162
					c0.3,0.536,0.745,1.114,1.359,1.105c0.739-0.01,1.172-0.871,1.194-1.609c0.022-0.739-0.187-1.498,0.024-2.206
					c0.211-0.708,1.155-1.261,1.687-0.749c0.279,1.723-0.132,3.549-1.123,4.986c-0.392,0.568-0.885,1.112-0.998,1.793
					c-0.163,0.982,0.548,1.932,1.421,2.41c1.411,0.772,3.201,0.586,4.635-0.143c1.433-0.729,2.565-1.935,3.564-3.196
					c1.161-1.466,2.224-3.157,2.252-5.027c0.026-1.729-0.833-3.333-1.669-4.847c-1.186-2.273-2.19-4.383-3.1-6.777
					c-1.418-0.356-2.896-0.467-4.351-0.328c-0.549,0.053-1.119,0.15-1.562,0.478c-0.564,0.417-0.82,1.122-1.047,1.785
					C657.342,259.233,657.203,261.237,656.079,263.109z"/>
				<path style="fill:#FBB040;" d="M660.099,267.194l-4.777-0.471c0,0-1.334,8.642-1.243,8.582c0.091-0.061,1.334,0.152,1.334,0.152
					l0.97-7.733l3.639,0.534C660.022,268.258,660.118,267.576,660.099,267.194z"/>
			</g>
			<path style="fill:#242C4D;" d="M659.884,145.527c0,0,6.491,8.297,8.76,28.868c2.269,20.571,3.049,55.553,2.198,66.304
				c-0.851,10.751-3.183,18.303-3.183,18.303s-7.114,0.573-11.006-1.122c0,0-1.162-22.377-1.966-30.55
				c-0.804-8.173-0.725-36.821-4.808-49.561C649.88,177.77,651.985,157.689,659.884,145.527z"/>
			<path style="fill:#242C4D;" d="M659.884,145.527c0,0-8.822,29.306-9.269,44.079c-0.251,8.281-0.412,16.565-0.47,24.849
				c-0.068,9.63-0.21,19.395,1.053,28.962c0.255,1.936,0.474,4.258-1.616,4.832c-0.827,0.227-1.841,0.182-2.694,0.261
				c-2.724,0.251-5.451,0.466-8.18,0.649c-7.824,0.524-15.671,0.8-23.513,0.69c-4.836-0.068-9.676-0.246-14.492-0.714
				c-2.352-0.228-4.697-0.524-7.029-0.91c-3.446-0.571-5.03-1.229-5.03-4.868c0-2.358-0.003-4.717-0.007-7.075
				c-0.012-6.558-0.039-13.117-0.093-19.675c-0.074-8.941,0.381-18.199-0.679-27.097c-0.863-7.239-1.966-30.354-7.033-41.688
				c0,0,15.679-17.558,36.588-17.286C638.33,130.809,659.884,145.527,659.884,145.527z"/>
			<path style="fill:#DADEE9;" d="M605.909,132.15c3.591-1.034,7.449-1.666,11.512-1.613c7.03,0.092,14.115,1.829,20.447,4.078
				l-21.688,60.912C616.179,195.527,606.032,150.861,605.909,132.15z"/>
			<path style="fill:#414C82;" d="M651.072,183.57c-0.009,0-0.018,0-0.028,0c-0.225-0.015-0.395-0.211-0.379-0.436
				c0.832-12.181,8.174-36.537,8.248-36.782c0.065-0.218,0.289-0.334,0.509-0.273c0.216,0.066,0.337,0.294,0.273,0.509
				c-0.075,0.245-7.39,24.512-8.215,36.602C651.464,183.406,651.286,183.57,651.072,183.57z"/>
			<path style="fill:#414C82;" d="M585.92,169.618c-0.218,0-0.398-0.17-0.407-0.389c-0.028-0.641-0.67-15.79,1.976-23.312
				c0.074-0.214,0.306-0.327,0.52-0.25c0.214,0.074,0.325,0.308,0.25,0.52c-2.594,7.373-1.938,22.85-1.931,23.006
				c0.01,0.225-0.164,0.416-0.389,0.426C585.932,169.618,585.925,169.618,585.92,169.618z"/>
			<path style="fill:#414C82;" d="M661.691,209.705c-0.079,0-0.159-0.022-0.229-0.07c-2.512-1.7-4.581-2.645-6.148-2.802
				c-0.108-0.008-0.208-0.065-0.275-0.149c-0.069-0.084-0.101-0.191-0.09-0.301c0.06-0.559,0.587-0.919,1.408-0.961
				c2-0.11,4.029,0.242,5.882,0.984c0.209,0.084,0.31,0.323,0.226,0.531c-0.083,0.211-0.32,0.306-0.53,0.228
				c-1.709-0.686-3.586-0.992-5.414-0.933c1.508,0.399,3.287,1.298,5.399,2.729c0.187,0.126,0.235,0.379,0.108,0.565
				C661.949,209.643,661.822,209.705,661.691,209.705z"/>
			<g>
				<path style="fill:#A05E47;" d="M631.558,113.396l-0.802,21.334c0,0,0.828,8.647-12.36,8.447c0,0-8.378-1.086-8.251-9.479
					l0.29-19.183L631.558,113.396z"/>
				<path style="fill:#753B2C;" d="M631.476,118.178l0.082-2.172l-21.02,1.114c-0.036,0.05-0.069,0.1-0.105,0.149l-0.159,10.492
					C614.955,130.101,624.827,132.715,631.476,118.178z"/>
				<path style="fill:#A05E47;" d="M634.9,111.329c-1.749,5.393-5.099,10.911-9.881,14.115c-4.731,3.17-11.463,3.559-15.411-1.054
					c-2.27-2.653-3.261-6.189-3.579-9.666c-0.165-1.805-0.166-3.626-0.427-5.42c-0.211-1.446-0.59-2.863-0.801-4.308
					c-0.272-1.859-0.263-3.748-0.151-5.624c0.172-2.864,0.778-5.814,2.312-8.277c1.612-2.588,4.279-4.176,7.198-4.896
					c6.815-1.681,15.512-0.416,19.833,5.65c1.005,1.411,1.752,3.007,2.174,4.688C637.338,101.201,636.363,106.817,634.9,111.329z"/>
				<path style="fill:#191D2F;" d="M631.282,106.719c-0.665-3.689-0.303-9.07-0.302-9.076c-0.025,0.373-3.732-1.373-3.956-1.557
					c-0.981-0.804-1.612-1.914-1.826-3.163c-0.037-0.217,0.027-0.963-0.104-1.106c-0.295-0.323-0.762,0.07-1.128,0.169
					c-0.959,0.259-2.032,0.124-2.878-0.404c-0.218-0.136-0.436-0.301-0.693-0.321c-0.266-0.021-0.514,0.117-0.754,0.232
					c-1.226,0.586-2.7,0.627-3.956,0.112c-0.195-0.08-0.396-0.175-0.606-0.155c-0.189,0.017-0.356,0.125-0.523,0.214
					c-0.98,0.526-2.207,0.452-3.158-0.1c-0.752-0.437-0.601-0.438-1.373-0.087c-0.535,0.243-1.139,0.307-1.657-0.028
					c-0.165,0.612-0.921,0.986-1.508,0.746c-0.478,0.268-0.832,0.747-0.948,1.283c-0.093,0.429-0.04,0.886-0.181,1.302
					s-0.605,0.785-1.001,0.594c0.393,0.391-0.026,1.158-0.581,1.177c-0.554,0.02-1.012-0.493-1.126-1.036
					c-0.119-0.565,0.139-1.262,0.699-1.403c-0.503-0.291-0.786-0.92-0.671-1.49c0.115-0.57,0.62-1.039,1.197-1.112
					c-0.322-0.5-0.28-1.207,0.101-1.664s1.068-0.628,1.618-0.403c-0.2-0.669,0.016-1.444,0.534-1.913
					c0.517-0.469,1.31-0.609,1.956-0.346c-0.455-0.673-0.193-1.576,0.085-2.34c0.266-0.733,0.407-1.257,1.189-1.547
					c0.306-0.114,1.692-0.255,1.692,0.376c0.198-0.963,0.527-1.98,1.321-2.559c0.794-0.579,2.164-0.413,2.482,0.516
					c0.017-1.131,0.749-2.221,1.79-2.664c1.041-0.443,2.334-0.216,3.161,0.556c0.226-0.688,0.931-1.187,1.654-1.174
					c0.724,0.013,1.409,0.539,1.61,1.235c0.573-0.469,1.209-0.933,1.947-0.995c0.738-0.063,1.571,0.449,1.583,1.189
					c0.538-0.59,1.412-0.851,2.186-0.65c0.773,0.2,1.412,0.852,1.596,1.629c0.752-0.446,1.573-0.909,2.443-0.82
					c0.87,0.089,1.688,1.025,1.313,1.815c0.942-0.324,1.961-0.638,2.915-0.353c0.954,0.285,1.7,1.445,1.191,2.301
					c1.315-0.065,2.374,1.569,1.776,2.742c1.673,0.331,2.809,2.299,2.261,3.914c0.811,0.619,1.512,1.444,1.752,2.435
					c0.24,0.991-0.074,2.156-0.924,2.719c0.622,0.571,0.905,1.486,0.715,2.308c-0.19,0.822-0.846,1.52-1.656,1.76
					c0.814,0.61,1.188,1.749,0.894,2.723c-0.294,0.974-1.237,1.715-2.253,1.772c0.696,0.554,0.975,1.575,0.658,2.405
					c-0.317,0.831-1.205,1.406-2.093,1.355c0.349,0.573,0.45,1.354,0.057,1.898c-0.393,0.544-1.358,0.621-1.697,0.042
					c0.242,0.39,0.012,0.943-0.385,1.174c-0.397,0.231-0.894,0.209-1.34,0.102c-0.443-0.106-0.897-0.312-1.128-0.704
					c-0.362-0.615,0.087-2.025-0.737-2.35c-0.57-0.225-0.77,0.429-1.271,0.617C632.007,109.077,631.456,107.681,631.282,106.719z"/>
				<path style="fill:#A05E47;" d="M638.197,108.65c-0.517,1.656-1.741,2.966-3.166,3.424c-0.299,0.096-0.628,0.154-0.91,0.003
					c-2.642-1.42-1.224-7.605,0.691-9.036C637.648,100.919,638.972,106.17,638.197,108.65z"/>
				<path style="fill:#191D2F;" d="M631.125,104.961l-0.428,5.667l-10.926,8.068c0,0-2.439-4.112-7.358-3.577
					c-4.919,0.535-5.132,3.101-5.132,3.101s-1.069-3.422-1.497-6.843c0,0-0.855,3.422-0.535,5.346
					c0.321,1.925,1.925,11.12,9.837,11.334c7.912,0.214,18.926-4.491,18.07-22.775L631.125,104.961z"/>
				<path style="fill:#A05E47;" d="M617.784,119.448c0,0-4.735-5.868-9.328-0.266c0,0,2.301,5.939,3.691,1.662l1.986-0.054
					C614.134,120.79,616.715,125.864,617.784,119.448z"/>
				<path style="fill:#753B2C;" d="M613.578,115.606c-1.667,0-3.331-0.666-4.215-2.107c-0.876-1.427-0.646-3.161-0.267-4.823
					c0.302-1.319,0.74-2.661,1.304-3.988c0.062-0.144,0.225-0.211,0.372-0.15c0.144,0.061,0.211,0.228,0.149,0.372
					c-0.551,1.296-0.979,2.605-1.272,3.892c-0.353,1.545-0.572,3.147,0.196,4.4c1.286,2.095,4.469,2.32,6.455,1.119
					c1.204-0.726,2.485-2.223,2.134-4.053c-0.029-0.153,0.071-0.302,0.225-0.332c0.162-0.031,0.303,0.071,0.332,0.225
					c0.335,1.742-0.606,3.565-2.397,4.645C615.727,115.33,614.651,115.606,613.578,115.606z"/>
				<path style="fill:#753B2C;" d="M634.802,110.23c-0.121,0-0.233-0.078-0.27-0.2c-1.167-3.778,1.449-6.228,1.475-6.252
					c0.116-0.104,0.293-0.098,0.4,0.018c0.106,0.115,0.098,0.294-0.018,0.4c-0.098,0.09-2.375,2.239-1.317,5.667
					c0.047,0.149-0.037,0.308-0.187,0.354C634.857,110.226,634.829,110.23,634.802,110.23z"/>
				<path style="fill:#753B2C;" d="M636.788,108.941c-0.011,0-0.021-0.001-0.033-0.002c-0.155-0.019-0.267-0.159-0.248-0.315
					c0.187-1.59-1.53-2.359-1.604-2.391c-0.143-0.063-0.209-0.229-0.146-0.373c0.063-0.144,0.231-0.209,0.372-0.147
					c0.089,0.039,2.178,0.966,1.94,2.978C637.053,108.835,636.93,108.941,636.788,108.941z"/>
				<path style="fill:#1E1C1B;" d="M621.327,104.578c0,0.801-0.649,1.449-1.449,1.449c-0.801,0-1.449-0.649-1.449-1.449
					c0-0.8,0.649-1.449,1.449-1.449C620.678,103.128,621.327,103.777,621.327,104.578z"/>
				<path style="fill:#1E1C1B;" d="M609.463,104.578c0,0.801-0.649,1.449-1.45,1.449c-0.8,0-1.449-0.649-1.449-1.449
					c0-0.8,0.649-1.449,1.449-1.449C608.814,103.128,609.463,103.777,609.463,104.578z"/>
				<path style="fill:#191D2F;" d="M618.484,99.64c-0.248,0.304-0.33,0.76-0.132,1.098c0.211,0.36,0.656,0.497,1.062,0.59
					c1.376,0.317,2.788,0.475,4.199,0.471c0.171-0.001,0.355-0.008,0.491-0.112c0.174-0.133,0.21-0.382,0.182-0.599
					c-0.107-0.824-0.898-1.386-1.678-1.671C621.56,99.034,619.314,98.623,618.484,99.64z"/>
				<path style="fill:#191D2F;" d="M610.846,99.963c0.248,0.304,0.33,0.76,0.132,1.098c-0.211,0.359-0.656,0.497-1.062,0.59
					c-1.376,0.317-2.788,0.475-4.199,0.471c-0.171-0.001-0.355-0.008-0.491-0.112c-0.174-0.133-0.21-0.382-0.182-0.599
					c0.107-0.824,0.898-1.386,1.678-1.671C607.77,99.356,610.016,98.945,610.846,99.963z"/>
				<path style="fill:#753B2C;" d="M613.208,119.865c-1.945,0-3.41-0.762-3.502-0.811c-0.139-0.073-0.19-0.245-0.117-0.383
					c0.073-0.138,0.245-0.19,0.383-0.118c0.033,0.018,3.234,1.674,6.333-0.051c0.135-0.076,0.309-0.027,0.386,0.109
					c0.076,0.137,0.026,0.31-0.11,0.386C615.41,119.65,614.241,119.865,613.208,119.865z"/>
			</g>
			<path style="fill:#DADEE9;" d="M633.778,134.282l-2.05-5.404l-8.759,6.15l-3.354,6.709l-2.888-6.988l-7.175-6.15l-1.491,7.92
				c0,0,4.007,7.734,10.622,8.572C625.299,145.929,630.517,143.413,633.778,134.282z"/>
			<path style="fill:#ACBBDD;" d="M626.422,144.766c-0.036,0-0.07-0.01-0.107-0.02c-0.177-0.049-0.304-0.218-0.304-0.402
				c-0.069-0.396-1.782-5.102-2.844-7.966c-0.079-0.211,0.03-0.445,0.24-0.524c0.208-0.077,0.447,0.029,0.524,0.24
				c1,2.698,2.147,5.833,2.645,7.353c1.145-1.761,4.235-6.871,6.354-10.415c0.115-0.195,0.365-0.254,0.559-0.141
				c0.194,0.115,0.256,0.365,0.141,0.559C627.423,143.837,626.786,144.766,626.422,144.766z"/>
			<path style="fill:#ACBBDD;" d="M612.947,142.507c-0.011,0-0.021,0-0.032-0.001c-0.157-0.011-0.294-0.114-0.35-0.261
				l-3.867-10.228c-0.079-0.211,0.027-0.447,0.237-0.527c0.214-0.076,0.447,0.027,0.527,0.238l3.561,9.419l3.063-5.361
				c0.112-0.197,0.361-0.263,0.556-0.152c0.195,0.112,0.264,0.361,0.152,0.556l-3.493,6.113
				C613.228,142.429,613.093,142.507,612.947,142.507z"/>
			<path style="fill:#ACBBDD;" d="M616.066,195.275c-0.222,0-0.403-0.177-0.407-0.399c-0.247-12.973,3.513-52.778,3.551-53.179
				c0.02-0.225,0.229-0.403,0.444-0.368c0.225,0.021,0.389,0.221,0.368,0.444c-0.038,0.4-3.794,40.161-3.548,53.086
				c0.004,0.226-0.174,0.412-0.399,0.416C616.072,195.275,616.069,195.275,616.066,195.275z"/>
			<path style="fill:#414C82;" d="M615.317,205.877c-0.01,0-0.021,0-0.031,0c-0.156-0.011-0.291-0.112-0.349-0.256l-15.718-39.544
				c-0.069-0.176-0.01-0.376,0.146-0.485l4.265-2.986l-5.879-1.525c-0.187-0.049-0.315-0.223-0.305-0.416l1.371-25.823
				c0.011-0.225,0.237-0.384,0.429-0.386c0.225,0.013,0.398,0.204,0.386,0.429l-1.355,25.491l6.413,1.662
				c0.153,0.039,0.271,0.166,0.299,0.322c0.028,0.157-0.038,0.316-0.169,0.408l-4.724,3.308l15.29,38.467l22.699-38.721
				l-5.386-3.162c-0.153-0.09-0.23-0.27-0.191-0.443c0.041-0.174,0.188-0.302,0.365-0.315l7.616-0.596l0.615-25.205
				c0.006-0.225,0.181-0.384,0.417-0.398c0.225,0.006,0.403,0.193,0.398,0.417l-0.624,25.573c-0.004,0.209-0.167,0.381-0.375,0.396
				l-6.689,0.523l4.617,2.712c0.194,0.114,0.258,0.364,0.145,0.558l-23.327,39.792C615.596,205.801,615.461,205.877,615.317,205.877
				z"/>
			<g>
				
					<rect x="597.451" y="139.112" transform="matrix(-0.8196 0.5729 -0.5729 -0.8196 1184.0973 -71.8805)" style="fill:#0C0B0A;" width="11.827" height="22.703"/>
				<path style="fill:#A05E47;" d="M592.45,161.737c0,0,2.79-6.182,3.554-11.297c0.661-4.424,1.281-6.712,5.188-8.623
					c1.286-0.629,2.828-0.492,3.999,0.33c1.756,1.232,4.289,3.36,5.698,6.158c2.305,4.577,0.771,4.846-1.245,4.171
					c0,0-2.617,0.854-3.017,3.533c-0.4,2.679-1.105,4.068-5.615,6.756c0,0-3.334,3.984-4.117,6.731
					C596.894,169.497,590.55,170.292,592.45,161.737z"/>
				<path style="fill:#753B2C;" d="M600.77,144.487c-0.167,0-0.333-0.08-0.433-0.23c-0.162-0.239-0.097-0.564,0.142-0.724
					c2.357-1.585,5.633-1.037,5.772-1.014c0.284,0.049,0.474,0.319,0.424,0.603c-0.048,0.284-0.318,0.482-0.603,0.426
					c-0.028-0.007-3.001-0.496-5.012,0.852C600.972,144.458,600.871,144.487,600.77,144.487z"/>
				<path style="fill:#753B2C;" d="M609.18,146.402c-0.052,0-0.105-0.007-0.157-0.024c-0.044-0.015-4.36-1.348-7.18-0.091
					c-0.257,0.122-0.572-0.001-0.688-0.264c-0.118-0.264,0.001-0.572,0.264-0.689c3.188-1.422,7.728-0.013,7.92,0.049
					c0.274,0.087,0.427,0.379,0.34,0.655C609.607,146.26,609.402,146.402,609.18,146.402z"/>
				<path style="fill:#753B2C;" d="M610.863,150.028c-0.098,0-0.192-0.013-0.282-0.04c-0.175-0.048-4.409-1.205-6.975-0.52
					c-0.563,0.134-1.108-0.187-1.252-0.724c-0.144-0.545,0.18-1.106,0.725-1.251c3.192-0.857,7.867,0.474,8.064,0.531
					c0.261,0.074,0.479,0.246,0.611,0.484c0.134,0.238,0.165,0.514,0.09,0.777C611.724,149.722,611.319,150.028,610.863,150.028z
					 M605.426,148.238c2.544,0,5.28,0.748,5.428,0.789l0.01,0.001c0.002,0,0.016-0.001,0.02-0.014
					c-0.063-0.042-4.619-1.34-7.545-0.554C603.973,148.3,604.691,148.238,605.426,148.238z"/>
			</g>
			<g>
				<path style="fill:#242C4D;" d="M581.206,147.692c-0.458,0.029-0.733,0.622-1.077,1.118c-2.734,3.932-5.002,8.231-7.016,12.566
					c-2.892,6.226-5.191,12.729-6.89,19.38c-5.375,21.034-5.375,45.807,10.75,26.175c16.125-19.631,23.604-33.653,26.175-38.795
					c0.315-0.629-3.431-4.11-4.006-4.596c-1.851-1.569-3.965-3.558-6.583-3.146c-1.041,0.164-2.007,0.642-2.905,1.194
					c-0.602,0.37-3.514,1.943-3.43,2.9c-0.085-0.964-0.169-1.927-0.254-2.891c-0.186-2.112-0.373-4.237-0.93-6.282
					c-0.3-1.102-0.706-2.173-1.153-3.225c-0.477-1.12-1.134-3.515-2.155-4.218C581.53,147.735,581.358,147.682,581.206,147.692z"/>
				<path style="fill:#414C82;" d="M588.099,193.021c-0.083,0-0.166-0.024-0.239-0.076c-0.183-0.132-0.224-0.387-0.093-0.571
					c5.475-7.603,13.448-21.71,14.236-23.109c-0.103-0.824-1.089-6.121-9.42-9.221c-1.579,1.088-13.854,9.878-20.242,24.489
					c-0.093,0.205-0.332,0.302-0.537,0.211c-0.206-0.09-0.301-0.33-0.211-0.537c6.902-15.787,20.572-24.87,20.709-24.96
					c0.105-0.07,0.24-0.09,0.363-0.042c9.739,3.534,10.151,9.86,10.164,10.127c0.004,0.076-0.014,0.152-0.052,0.219
					c-0.084,0.152-8.586,15.297-14.347,23.301C588.351,192.962,588.226,193.021,588.099,193.021z"/>
				<path style="fill:#414C82;" d="M567.176,190.798c-0.065,0-0.129-0.014-0.19-0.046c-0.2-0.104-0.277-0.351-0.171-0.551
					c0.361-0.69,0.596-1.43,0.843-2.216c0.079-0.253,0.159-0.506,0.243-0.756c0.894-2.67,2.34-5.206,4.18-7.338
					c0.149-0.169,0.406-0.187,0.576-0.042c0.17,0.148,0.188,0.406,0.042,0.576c-1.773,2.052-3.166,4.494-4.026,7.062
					c-0.083,0.246-0.16,0.495-0.239,0.743c-0.247,0.784-0.502,1.595-0.898,2.35C567.464,190.72,567.322,190.798,567.176,190.798z"/>
				<path style="fill:#414C82;" d="M570.127,180.217c-0.12,0-0.239-0.052-0.319-0.155c-0.141-0.176-0.111-0.433,0.066-0.572
					l2.404-1.91c0.18-0.139,0.436-0.111,0.573,0.065c0.141,0.177,0.111,0.434-0.065,0.573l-2.407,1.91
					C570.305,180.189,570.216,180.217,570.127,180.217z"/>
				<path style="fill:#414C82;" d="M600.573,172.48c-0.063,0-0.128-0.014-0.188-0.046c-2.247-1.169-4.311-2.691-6.308-4.162
					c-1.884-1.388-3.833-2.824-5.913-3.943c-0.198-0.107-0.273-0.354-0.166-0.554c0.108-0.198,0.357-0.27,0.554-0.166
					c2.129,1.147,4.102,2.601,6.008,4.006c1.971,1.453,4.01,2.955,6.201,4.096c0.2,0.104,0.277,0.35,0.173,0.549
					C600.862,172.4,600.72,172.48,600.573,172.48z"/>
			</g>
			<path style="fill:#414C82;" d="M615.659,250.55c-9.344,0-18.631-0.587-24.428-2.476c-0.214-0.07-0.332-0.301-0.261-0.514
				c0.07-0.214,0.299-0.329,0.514-0.261c15.208,4.952,54.961,0.846,55.362,0.806c0.232-0.034,0.424,0.138,0.448,0.363
				c0.023,0.225-0.139,0.424-0.364,0.447C646.681,248.943,631.093,250.55,615.659,250.55z"/>
			<path style="fill:#414C82;" d="M616.078,250.387c-0.205,0-0.382-0.155-0.405-0.363c-1.806-15.864-0.774-44.285-0.763-44.569
				c0.008-0.222,0.188-0.393,0.407-0.393c0.004,0,0.01,0,0.016,0c0.225,0.008,0.401,0.197,0.392,0.422
				c-0.01,0.287-1.04,28.646,0.757,44.451c0.027,0.222-0.135,0.424-0.358,0.45C616.108,250.387,616.093,250.387,616.078,250.387z"/>
			<path style="fill:#414C82;" d="M647.199,224.735c-0.001,0-0.004,0-0.006,0l-17.579-0.261c-0.212-0.003-0.385-0.166-0.401-0.377
				l-0.261-3.516c-0.01-0.115,0.031-0.228,0.11-0.312c0.079-0.081,0.216-0.093,0.302-0.126l17.58,0.261
				c0.212,0.003,0.385,0.166,0.4,0.376l0.26,3.516c0.008,0.115-0.031,0.228-0.11,0.312
				C647.418,224.69,647.312,224.735,647.199,224.735z M630,223.664l16.759,0.25l-0.199-2.701l-16.761-0.25L630,223.664z"/>
			<path style="fill:#414C82;" d="M589.382,224.083c-0.105,0-0.207-0.039-0.282-0.112c-0.08-0.079-0.125-0.186-0.125-0.295v-3.777
				c0-0.222,0.177-0.405,0.4-0.408l13.674-0.259c0.07-0.02,0.215,0.042,0.292,0.115c0.079,0.079,0.122,0.183,0.122,0.292v3.516
				c0,0.219-0.173,0.399-0.392,0.408l-13.674,0.52C589.392,224.083,589.388,224.083,589.382,224.083z M589.79,220.297v2.954
				l12.859-0.489v-2.706L589.79,220.297z"/>
		</g>
	</g>
	<g>
		<ellipse style="fill:#E6E7E8;" cx="308.597" cy="422.672" rx="32.573" ry="17.032"/>
		<g>
			<g>
				<path style="fill:#A05E47;" d="M244.854,201.103c-0.656-0.275-1.306-0.587-1.798-1.096c-0.475-0.491-0.764-1.127-1.115-1.714
					c-1.381-2.316-2.96-2.682-5.369-3.427c-1.337-0.413-2.541-1.245-3.401-2.349c-0.795,0.375-0.889,1.505-0.565,2.322
					c0.324,0.817,0.933,1.506,1.19,2.347c0.041,0.133,0.065,0.296-0.032,0.395c-0.103,0.105-0.277,0.073-0.419,0.033
					c-2.893-0.807-5.787-1.617-8.66-2.481c-2.392-0.719-5.067-1.003-7.431-0.03c-0.475,0.196-0.964,0.474-1.166,0.947
					c-0.136,0.319-0.12,0.681-0.079,1.025c0.395,3.276,2.86,5.979,5.688,7.68c2.827,1.701,6.046,2.608,9.115,3.82
					c1.586,0.627,3.152,1.343,4.823,1.686c1.671,0.343,3.497,0.277,4.966-0.59c0.342-0.202,0.664-0.447,1.036-0.586
					c0.674-0.253,1.424-0.133,2.133-0.011c1.366,0.236,2.732,0.473,4.098,0.709c0.427,0.074,0.87,0.147,1.289,0.036
					c0.721-0.192,1.187-0.871,1.588-1.502c0.844-1.327,1.933-3.178,0.399-4.446c-0.467-0.386-1.037-0.62-1.597-0.85
					c-1.46-0.596-2.92-1.193-4.381-1.79C245.062,201.189,244.958,201.146,244.854,201.103z"/>
				<path style="fill:#753B2C;" d="M229.117,206.868c-0.011,0-0.024,0-0.036-0.003c-0.288-0.02-0.505-0.27-0.483-0.556
					c0.311-4.425,2.791-7.883,2.896-8.028c0.167-0.233,0.495-0.282,0.728-0.117c0.233,0.17,0.285,0.496,0.117,0.729
					c-0.024,0.034-2.41,3.37-2.701,7.488C229.618,206.657,229.389,206.868,229.117,206.868z"/>
				<path style="fill:#753B2C;" d="M230.712,200.731c-0.065,0-0.129-0.013-0.193-0.038l-12.571-4.997
					c-0.268-0.107-0.399-0.41-0.292-0.677c0.107-0.268,0.412-0.398,0.677-0.292l12.571,4.997c0.268,0.107,0.399,0.41,0.292,0.677
					C231.115,200.606,230.92,200.731,230.712,200.731z"/>
				<path style="fill:#753B2C;" d="M229.368,203.192c-0.065,0-0.129-0.013-0.193-0.038l-12.572-4.997
					c-0.268-0.107-0.399-0.41-0.292-0.677c0.107-0.268,0.412-0.399,0.677-0.292l12.572,4.997c0.268,0.107,0.399,0.41,0.292,0.677
					C229.772,203.067,229.576,203.192,229.368,203.192z"/>
				<path style="fill:#753B2C;" d="M229.079,205.741c-0.061,0-0.124-0.011-0.184-0.034l-10.686-4.01
					c-0.27-0.101-0.406-0.403-0.305-0.673c0.101-0.27,0.402-0.409,0.673-0.305l10.686,4.012c0.27,0.101,0.406,0.403,0.305,0.673
					C229.489,205.611,229.29,205.741,229.079,205.741z"/>
				<path style="fill:#753B2C;" d="M239.772,204.16c-0.049,0-0.1-0.008-0.15-0.022c-2.935-0.881-5.372-3.232-6.36-6.132
					c-0.093-0.274,0.053-0.571,0.326-0.663c0.271-0.089,0.569,0.055,0.663,0.326c0.88,2.588,3.053,4.683,5.671,5.469
					c0.275,0.083,0.433,0.374,0.35,0.651C240.204,204.014,239.997,204.16,239.772,204.16z"/>
			</g>
			<path style="fill:#291E3B;" d="M292.297,122.395c0.184,1.238,0.611,2.55,0.104,3.695c-0.255,0.575-0.718,1.026-1.106,1.521
				c-1.326,1.69-1.788,4.025-1.204,6.092c0.335,1.188,0.988,2.468,0.445,3.576c-0.314,0.642-0.959,1.04-1.534,1.464
				c-4.1,3.024-5.524,9.156-3.177,13.678c0.326,0.627,0.722,1.249,0.789,1.952c0.175,1.813-1.739,3.004-3.064,4.254
				c-2.349,2.216-3.217,5.868-2.115,8.903c0.503,1.387,1.369,2.625,1.817,4.031c0.448,1.406,0.365,3.15-0.766,4.098
				c3.956,0.035,7.917-0.585,11.673-1.827c1.664-0.55,3.341-1.257,4.549-2.527c0.626-0.659,1.101-1.443,1.571-2.221
				c2.25-3.726,4.55-7.586,5.152-11.897c0.598,1.269,2.329,1.382,3.73,1.31c1.35-0.069,2.7-0.138,4.05-0.207
				c0.928-0.048,1.937-0.128,2.621-0.756c0.58-0.533,0.794-1.345,1.191-2.025c1.395-2.389,5.063-3.236,5.514-5.966
				c0.091-0.55,0.03-1.13,0.222-1.654c0.44-1.201,1.912-1.564,3.028-2.188c2.056-1.148,3.178-3.75,2.603-6.034
				c-0.291-1.156-0.968-2.241-0.93-3.433c0.05-1.581,1.314-2.814,2.058-4.21c1.188-2.227,1.046-4.897,0.873-7.415
				c-0.159-2.325-0.326-4.684-1.115-6.877c-1.952-5.42-7.417-8.887-12.99-10.342c-3.589-0.937-7.411-1.204-11.004-0.283
				C299.401,108.617,291.306,115.715,292.297,122.395z"/>
			<path style="fill:#37376D;" d="M291.123,158.857c0,0,6.459,3.465,4.99,17.652c-1.47,14.187-8.919,35.047-10.516,40.42
				c-1.597,5.373-3.227,10.21-16.961,5.699c-13.734-4.511-25.104-13.313-25.104-13.313l2.533-7.584c0,0,16.891,2.536,20.096,3.033
				c3.205,0.497,7.603,1.133,7.603,1.133s5.416-25.788,6.883-30.668C282.113,170.347,285.866,160.803,291.123,158.857z"/>
			<path style="fill:#A05E47;" d="M316.34,335.883c0,0.843-0.422,50.59-0.422,62.816c0,12.226-0.843,23.187-2.951,26.138
				c-2.108,2.951-4.848,7.799,0,7.589c4.848-0.211,10.118-7.589,10.54-11.594c0.422-4.005-1.476-5.902,0-11.594
				c1.476-5.691,10.54-45.531,8.01-73.567L316.34,335.883z"/>
			<path style="fill:#24262D;" d="M311.071,427.578l8.221,0.843c0,0,5.691-5.27,3.794-13.912c0,0,2.74,0.843,2.74,3.794
				c0,2.951-0.211,8.853-0.211,8.853l-1.897-0.422l0.211-2.53c0,0-5.902,11.594-12.648,10.75
				C304.536,434.113,311.071,427.578,311.071,427.578z"/>
			<path style="fill:#A05E47;" d="M296.315,335.883c0,0.843-0.422,50.59-0.422,62.816c0,12.226-0.843,23.187-2.951,26.138
				c-2.108,2.951-4.848,7.799,0,7.589c4.848-0.211,10.118-7.589,10.54-11.594s-1.475-5.902,0-11.594
				c1.476-5.691,10.54-45.531,8.01-73.567L296.315,335.883z"/>
			<path style="fill:#24262D;" d="M291.045,427.578l8.221,0.843c0,0,5.691-5.27,3.794-13.912c0,0,2.74,0.843,2.74,3.794
				c0,2.951-0.211,8.853-0.211,8.853l-1.897-0.422l0.211-2.53c0,0-5.902,11.594-12.648,10.75
				C284.511,434.113,291.045,427.578,291.045,427.578z"/>
			<path style="fill:#4F4F91;" d="M314.273,153.725c0,0-18.788,0-24.969,6.675c-6.18,6.675-3.461,7.911-5.191,18.047
				c-1.73,10.136-5.933,13.597-1.483,27.194c4.45,13.597,6.18,21.508-0.989,32.632c-7.169,11.125-2.472,81.333,3.461,111.741
				c0,0,25.71,5.686,52.904,0.494c0,0,7.169-62.545,7.664-80.097c0.494-17.552-5.933-32.385-9.889-40.296
				c-3.955-7.911-8.9-11.866-3.461-32.879C337.758,176.221,350.366,156.197,314.273,153.725z"/>
			<path style="fill:#2C3863;" d="M312.351,234.963c-15.62,0-25.819-4.159-25.963-4.218c-0.208-0.087-0.306-0.326-0.219-0.534
				c0.087-0.211,0.32-0.312,0.534-0.219c0.202,0.084,20.617,8.397,47.994,1.282c0.212-0.07,0.44,0.073,0.497,0.289
				c0.056,0.219-0.074,0.441-0.292,0.497C326.641,234.21,319.003,234.963,312.351,234.963z"/>
			<path style="fill:#A05E47;" d="M308.629,168.571c16.743,0.881,19.508-5.728,17.618-12.944c-3.218-0.919-7.149-1.572-11.975-1.902
				c0,0-7.277,0.002-14.264,1.611c-0.078,0.096-0.182,0.188-0.253,0.285C299.756,155.621,290.403,167.612,308.629,168.571z"/>
			<g>
				<path style="fill:#A05E47;" d="M305.069,143.347l0.187,16.279c0,0-1.31,5.052,7.672,5.052c8.982,0,5.988-9.917,5.988-9.917
					l-0.374-16.092L305.069,143.347z"/>
				<path style="fill:#753B2C;" d="M318.587,140.632l-0.046-1.963l-13.473,4.678l0.057,4.953
					C309.915,148.473,316.592,147.394,318.587,140.632z"/>
				<path style="fill:#A05E47;" d="M325.02,130.507c-1.749,5.393-5.1,10.911-9.881,14.115c-4.731,3.17-11.463,3.559-15.411-1.054
					c-2.27-2.653-3.262-6.189-3.579-9.666c-0.165-1.805-0.165-3.626-0.427-5.419c-0.211-1.446-0.59-2.863-0.801-4.309
					c-0.272-1.859-0.263-3.748-0.151-5.624c0.172-2.864,0.778-5.814,2.312-8.277c1.611-2.588,4.279-4.176,7.198-4.896
					c6.815-1.681,15.512-0.416,19.833,5.65c1.005,1.411,1.752,3.007,2.174,4.688C327.458,120.379,326.483,125.995,325.02,130.507z"
					/>
				<path style="fill:#291E3B;" d="M294.681,120.33c0,0,4.607-2.943,8.318-6.591c1.493-1.467,2.619-3.389,4.045-4.8
					c1.976,4.314,4.452,7.109,8.518,9.704c1.969,1.256,4.001,2.419,5.891,3.795c1.391,1.013,4.312,2.905,4.334,4.79
					c0.018,1.498-1.09,3.678-1.578,5.083c-0.499,1.437-0.979,2.788-1.748,4.099c1.914,0.837,5.623-4.306,6.442-5.715
					c4.794-8.255,1.351-20.545-6.837-25.272C311.316,99.216,292.953,99.216,294.681,120.33z"/>
				<path style="fill:#A05E47;" d="M328.081,130.223c-0.517,1.656-1.741,2.966-3.166,3.423c-0.299,0.096-0.628,0.154-0.91,0.002
					c-2.643-1.42-1.224-7.605,0.691-9.036C327.532,122.493,328.856,127.743,328.081,130.223z"/>
				<path style="fill:#1E1C1B;" d="M302.387,124.28c0,0.8-0.649,1.45-1.449,1.45c-0.801,0-1.449-0.649-1.449-1.45
					s0.649-1.45,1.449-1.45C301.738,122.83,302.387,123.479,302.387,124.28z"/>
				<circle style="fill:#1E1C1B;" cx="311.045" cy="124.28" r="1.449"/>
				<path style="fill:#753B2C;" d="M305.236,133.12c-0.376,0-0.751-0.118-1.049-0.359c-0.417-0.338-0.681-0.901-0.727-1.544
					c-0.039-0.55,0.069-1.077,0.173-1.587l1.365-6.659c0.032-0.153,0.179-0.253,0.335-0.221c0.153,0.032,0.252,0.182,0.221,0.335
					l-1.365,6.659c-0.097,0.472-0.197,0.961-0.164,1.433c0.034,0.487,0.223,0.905,0.519,1.144c0.429,0.348,1.138,0.299,1.515-0.105
					c0.106-0.116,0.287-0.121,0.4-0.014c0.115,0.107,0.121,0.286,0.014,0.4C306.156,132.944,305.696,133.12,305.236,133.12z"/>
				<path style="fill:#753B2C;" d="M324.674,131.95c-0.106,0-0.207-0.06-0.256-0.162c-1.609-3.381,1.292-6.258,1.321-6.287
					c0.113-0.109,0.292-0.108,0.401,0.005c0.109,0.112,0.106,0.292-0.005,0.401c-0.108,0.106-2.637,2.626-1.205,5.637
					c0.067,0.141,0.007,0.311-0.134,0.377C324.757,131.941,324.715,131.95,324.674,131.95z"/>
				<path style="fill:#753B2C;" d="M326.807,130.686c-0.009,0-0.018-0.001-0.027-0.001c-0.155-0.015-0.27-0.153-0.256-0.308
					c0.001-0.007,0.057-0.699-0.395-1.237c-0.323-0.384-0.833-0.608-1.517-0.665c-0.156-0.013-0.272-0.15-0.259-0.306
					c0.014-0.156,0.163-0.269,0.306-0.259c0.844,0.071,1.486,0.364,1.91,0.872c0.603,0.724,0.524,1.612,0.52,1.65
					C327.074,130.577,326.951,130.686,326.807,130.686z"/>
				<path style="fill:#F1F2F2;" d="M326.176,133.482c0,0.523-0.424,0.948-0.948,0.948c-0.523,0-0.948-0.424-0.948-0.948
					c0-0.523,0.424-0.948,0.948-0.948C325.751,132.534,326.176,132.959,326.176,133.482z"/>
				<path style="fill:#F1F2F2;" d="M315.109,127.213h-7.811c-0.421,0-0.763-0.342-0.763-0.763v-2.143
					c0-0.421,0.342-0.763,0.763-0.763h7.811c0.421,0,0.763,0.342,0.763,0.763v2.143
					C315.872,126.871,315.529,127.213,315.109,127.213z M307.297,123.881c-0.235,0-0.426,0.191-0.426,0.426v2.143
					c0,0.235,0.191,0.426,0.426,0.426h7.811c0.235,0,0.426-0.191,0.426-0.426v-2.143c0-0.235-0.191-0.426-0.426-0.426H307.297z"/>
				<path style="fill:#F1F2F2;" d="M302.948,127.213h-7.811c-0.421,0-0.763-0.342-0.763-0.763v-2.143
					c0-0.421,0.342-0.763,0.763-0.763h7.811c0.421,0,0.763,0.342,0.763,0.763v2.143
					C303.711,126.871,303.369,127.213,302.948,127.213z M295.137,123.881c-0.235,0-0.426,0.191-0.426,0.426v2.143
					c0,0.235,0.191,0.426,0.426,0.426h7.811c0.235,0,0.426-0.191,0.426-0.426v-2.143c0-0.235-0.191-0.426-0.426-0.426H295.137z"/>
				<path style="fill:#F1F2F2;" d="M306.604,125.149c-1.79-0.671-2.964-0.018-2.976-0.012l-0.168-0.291
					c0.052-0.031,1.315-0.744,3.263-0.012L306.604,125.149z"/>
				<rect x="315.784" y="124.902" style="fill:#F1F2F2;" width="7.699" height="0.337"/>
				<g>
					<path style="fill:#7F2817;" d="M303.515,137.782c0,0,1.928-2.705,8.782-0.718C312.297,137.064,309.434,139.315,303.515,137.782
						z"/>
					<path style="fill:#9B3821;" d="M303.515,137.782c0,0,5.096,0.506,8.87-0.739c0,0-1.867,2.84-5.874,2.723
						C306.511,139.766,304.643,140.077,303.515,137.782z"/>
				</g>
				<path style="fill:#291E3B;" d="M311.103,120.357c1.468,0.16,2.844,0.832,4.313,0.989c0.303,0.032,0.694-0.014,0.782-0.306
					c0.039-0.129,0-0.268-0.057-0.39c-0.292-0.627-1-0.931-1.66-1.136c-1.266-0.394-3.11-0.951-4.442-0.665
					c-0.465,0.1-1.023,0.527-0.652,1.018C309.734,120.324,310.599,120.302,311.103,120.357z"/>
				<path style="fill:#291E3B;" d="M301.233,121.745c-1.468,0.16-2.844,0.832-4.313,0.989c-0.303,0.032-0.694-0.014-0.782-0.306
					c-0.039-0.129,0-0.268,0.057-0.39c0.292-0.627,1-0.931,1.66-1.136c1.265-0.394,3.11-0.951,4.442-0.665
					c0.465,0.1,1.023,0.527,0.652,1.018C302.603,121.713,301.737,121.69,301.233,121.745z"/>
			</g>
			<rect x="281.525" y="194.075" style="fill:#DADEE9;" width="35.584" height="45.947"/>
			<g>
				<path style="fill:#A05E47;" d="M303.241,213.819c0,0-3.55-0.033-6.272-0.975c-2.723-0.941-6.233-3.719-8.428-4.368
					c-2.195-0.649-6.608,0.434-7.93,1.1c-1.322,0.666-1.598,7.712,0.843,9.491c0,0,2.605,0.532,3.849,0.592
					c1.244,0.061,0.994,1.829,5.31,0.956c4.316-0.872,8.942,0.366,13.315,1.147L303.241,213.819z"/>
				<path style="fill:#753B2C;" d="M279.612,212.036c-0.232,0-0.444-0.157-0.505-0.391c-0.073-0.278,0.093-0.565,0.372-0.638
					c1.811-0.472,3.682-0.756,5.563-0.84c0.281,0.008,0.53,0.211,0.544,0.5c0.013,0.287-0.211,0.531-0.499,0.545
					c-1.806,0.079-3.604,0.351-5.344,0.807C279.7,212.03,279.655,212.036,279.612,212.036z"/>
				<path style="fill:#753B2C;" d="M279.808,214.841c-0.251,0-0.473-0.183-0.516-0.438c-0.045-0.287,0.148-0.554,0.433-0.599
					c1.506-0.245,3.061-0.455,4.619-0.624c0.319,0.003,0.545,0.18,0.575,0.464c0.031,0.287-0.176,0.545-0.462,0.576
					c-1.54,0.166-3.076,0.371-4.565,0.613C279.863,214.838,279.835,214.841,279.808,214.841z"/>
				<path style="fill:#753B2C;" d="M280.25,217.525c-0.2,0-0.389-0.115-0.476-0.309c-0.118-0.261,0-0.57,0.263-0.689
					c1.512-0.68,3.199-0.742,4.689-0.798c0.007,0,0.014,0,0.02,0c0.28,0,0.512,0.222,0.521,0.503
					c0.011,0.289-0.214,0.531-0.502,0.542c-1.395,0.051-2.975,0.107-4.301,0.703C280.394,217.508,280.321,217.525,280.25,217.525z"
					/>
			</g>
			<path style="fill:#4F4F91;" d="M334.165,160.603c0,0,7.131,1.698,9.338,15.789c2.207,14.091,0.34,36.162,0.17,41.765
				c-0.17,5.603-0.509,10.696-14.94,9.847c-14.431-0.849-27.673-6.451-27.673-6.451l0.509-7.979c0,0,16.978-1.868,20.203-2.207
				c3.226-0.34,7.64-0.849,7.64-0.849s-1.358-26.315-1.188-31.408C328.392,174.015,329.581,163.829,334.165,160.603z"/>
			<path style="fill:#2C3863;" d="M331.745,228.507c-0.949,0-1.96-0.034-3.036-0.095c-14.336-0.843-27.675-6.427-27.808-6.484
				c-0.16-0.067-0.26-0.23-0.249-0.402l0.509-7.979c0.013-0.2,0.166-0.36,0.363-0.379c0,0,16.98-1.869,20.206-2.206
				c2.656-0.281,6.118-0.677,7.255-0.809c-0.166-3.263-1.327-26.341-1.169-31.058c0.007-0.221,0.188-0.393,0.408-0.393
				c0.004,0,0.008,0,0.014,0c0.225,0.007,0.4,0.195,0.393,0.421c-0.167,5.018,1.175,31.109,1.189,31.373
				c0.011,0.214-0.146,0.399-0.361,0.424c0,0-4.415,0.512-7.644,0.852c-2.955,0.309-17.448,1.903-19.861,2.17l-0.468,7.343
				c1.945,0.787,14.194,5.542,27.272,6.312c6.264,0.377,10.308-0.374,12.375-2.262c1.97-1.801,2.053-4.542,2.133-7.189
				c0.03-1.001,0.114-2.524,0.219-4.429c0.497-8.989,1.423-25.72-0.385-37.261c-2.13-13.605-8.961-15.44-9.03-15.457
				c-0.219-0.053-0.353-0.274-0.301-0.492c0.053-0.218,0.275-0.365,0.49-0.301c0.302,0.072,7.424,1.925,9.647,16.123
				c1.821,11.626,0.892,28.414,0.393,37.432c-0.105,1.897-0.188,3.412-0.219,4.407c-0.081,2.689-0.174,5.736-2.397,7.768
				C339.784,227.673,336.59,228.507,331.745,228.507z"/>
			<path style="fill:#2C3863;" d="M335.754,215.706c-0.087,0-0.174-0.028-0.249-0.084c-1.952-1.498-4.012-2.911-6.121-4.202
				c-0.191-0.118-0.251-0.368-0.135-0.562c0.119-0.191,0.368-0.247,0.562-0.135c2.133,1.307,4.216,2.737,6.191,4.252
				c0.178,0.138,0.212,0.394,0.074,0.571C335.997,215.653,335.876,215.706,335.754,215.706z"/>
			<path style="fill:#2C3863;" d="M336.272,212.421c-0.066,0-0.132-0.014-0.193-0.048c-1.768-0.95-3.66-1.633-5.629-2.032
				c-0.221-0.045-0.363-0.258-0.319-0.48c0.045-0.222,0.249-0.365,0.482-0.318c2.046,0.413,4.015,1.124,5.851,2.111
				c0.2,0.107,0.274,0.354,0.167,0.554C336.558,212.342,336.417,212.421,336.272,212.421z"/>
			<path style="fill:#2C3863;" d="M327.559,196.627c-0.185,0-0.353-0.126-0.396-0.313c-1.65-6.956-2.541-14.102-2.649-21.245
				c-0.004-0.225,0.176-0.41,0.402-0.413c0.218-0.021,0.41,0.177,0.413,0.402c0.108,7.082,0.992,14.17,2.626,21.068
				c0.052,0.219-0.083,0.438-0.302,0.49C327.621,196.624,327.59,196.627,327.559,196.627z"/>
			<path style="fill:#2C3863;" d="M332.611,347.163c-0.024,0-0.048-0.003-0.073-0.006c-0.222-0.042-0.368-0.253-0.329-0.475
				c8.882-48.849,7.789-76.928,5.307-91.882c-2.687-16.193-7.532-20.898-7.581-20.943c-0.164-0.154-0.173-0.41-0.02-0.576
				c0.152-0.171,0.413-0.174,0.575-0.02c0.809,0.75,19.632,19.462,2.522,113.566C332.976,347.025,332.805,347.163,332.611,347.163z"
				/>
		</g>
	</g>
	<g>
		<ellipse style="fill:#E6E7E8;" cx="466.597" cy="423.672" rx="32.573" ry="17.032"/>
		<g>
			<path style="fill:#F798B4;" d="M470.344,406.632l-0.539,11.415l1.077,0.108l0.431-3.446c0,0,1.077,9.692,4.415,13.892
				c3.338,4.2,9.584,7.107,10.769,0.862s-2.8-9.584-4.523-11.415c-1.723-1.831-5.492-9.477-6.246-11.2
				C474.975,405.124,471.744,403.186,470.344,406.632z"/>
			<path style="fill:#291E3B;" d="M442.993,134.165c0.286,6.573,1.755,13.27,0.12,19.643c-1.843,7.189-7.522,13.424-7.281,20.842
				c8.437,0.136,16.866,0.833,25.211,2.086c3.902,0.586,8.159,1.232,11.575-0.743c0.521-0.301,1.028-0.681,1.289-1.222
				c0.299-0.619,0.23-1.343,0.196-2.031c-0.139-2.819,0.512-5.809,2.439-7.872c2.18-2.335,5.568-3.099,8.09-5.058
				c2.415-1.876,3.923-4.871,3.992-7.929c0.067-2.998-1.158-5.85-2.189-8.665c-1.651-4.506-2.854-9.176-3.586-13.918
				c-0.442-2.865-0.717-5.771-1.547-8.548s-2.286-5.472-4.628-7.179c-1.914-1.395-4.28-2.033-6.628-2.346
				c-7.209-0.96-14.792,1.038-20.636,5.37C443.968,120.629,442.715,127.769,442.993,134.165z"/>
			<path style="fill:#A05E47;" d="M464.29,267.615c0,0,6.774,49.524,7.967,59.752c1.193,10.228-3.492,21.505-3.012,38.486
				c0.48,16.981-0.073,37.962,1.839,45.786c1.912,7.824,2.516,17.288,9.395,20.545c6.879,3.257,7.447-9.025,2.963-13.178
				c-4.484-4.153-9.694-10.251-6.731-23.429c2.963-13.178,13.058-33.786,10.948-51.882c-2.11-18.096,9.362-26.902,6.566-76.6
				c0,0,1.732-19.451-16.901-20.611C458.691,245.322,464.29,267.615,464.29,267.615z"/>
			<path style="fill:#A05E47;" d="M468.134,270.133c0,0-6.774,49.524-7.967,59.752c-1.193,10.228,3.492,21.505,3.012,38.486
				c-0.206,7.295-0.218,14.593-0.313,21.89c-0.096,7.378-1.211,14.734-1.008,22.133c0.105,3.822,0.595,7.647,0.273,11.456
				c-0.322,3.809-1.571,7.718-4.373,10.318c-0.521,0.483-1.253,0.94-1.899,0.644c-0.304-0.139-0.515-0.42-0.704-0.695
				c-3.539-5.137-3.926-12.025-1.971-17.949c0.676-2.05,1.61-4.012,2.198-6.089c0.446-1.574,0.685-3.198,0.778-4.83
				c0.55-9.654-4.163-19.261-6.949-28.331c-3.025-9.848-5.656-20.331-4.446-30.706c2.11-18.096-9.362-26.902-6.566-76.601
				c0,0-1.732-19.451,16.901-20.611C473.733,247.84,468.134,270.133,468.134,270.133z"/>
			<path style="fill:#FBB040;" d="M462.437,155.106c0,0,18.788,0,24.969,6.675c6.18,6.675,3.461,7.911,5.191,18.047
				s5.933,13.597,1.483,27.194c-4.45,13.597-6.18,21.508,0.989,32.632c7.169,11.125,2.472,81.333-3.461,111.741
				c0,0-25.71,5.686-52.904,0.495c0,0-7.169-62.545-7.664-80.097c-0.494-17.552,5.933-32.385,9.888-40.296
				c3.956-7.911,8.9-11.866,3.461-32.88C438.952,177.602,426.344,157.578,462.437,155.106z"/>
			<path style="fill:#B77318;" d="M471.969,222.601c-0.003,0-0.006,0-0.011,0c-0.225-0.006-0.402-0.194-0.396-0.419
				c0.326-12.925-3.443-37.525-3.479-37.773c-0.036-0.222,0.118-0.43,0.34-0.465c0.228-0.023,0.43,0.119,0.464,0.341
				c0.039,0.247,3.819,24.918,3.491,37.919C472.371,222.427,472.191,222.601,471.969,222.601z"/>
			<path style="fill:#8C4F3E;" d="M474.215,156.214c-6.123-1.101-11.778-1.108-11.778-1.108c-2.764,0.189-5.21,0.493-7.427,0.881
				c0.673,2.446,5.251,18.14,14.44,27.489C469.45,183.476,474.762,170.811,474.215,156.214z"/>
			<path style="fill:#24262D;" d="M492.542,235.058c-2.447-5.349-2.773-10.195-1.812-15.729c-9.978,0.964-29.65,2.367-44.486,0.314
				c-1.02,4.784-3.292,7.807-5.314,11.851c-0.129,0.259-0.279,0.585-0.413,0.858C446.863,234.746,468.283,241.537,492.542,235.058z"
				/>
			<polygon style="fill:#4F4F91;" points="407.468,278.233 451.826,288.315 456.531,260.311 410.156,251.574 			"/>
			<path style="fill:#FBB040;" d="M441.23,162.48c0,0-8.056,4.544-9.009,14.719c-0.953,10.175-3.815,23.926-6.342,33.605
				c-2.527,9.68-6.391,35.418-3.975,55.204c0,0,3.612,0.55,7.934-0.014c0,0,4.55-25.946,6.146-34.744s6.477-30.201,7.418-39.923
				C444.344,181.605,445.938,164.42,441.23,162.48z"/>
			<path style="fill:#A05E47;" d="M421.905,266.008c0,0,3.612,0.55,7.934-0.014c0,0,3.791-21.621,5.665-32.072
				c-5.686-1.994-10.343-1.9-13.237-1.462C421.125,243.098,420.609,255.4,421.905,266.008z"/>
			<path style="fill:#A05E47;" d="M421.479,270.593c-0.2,1.115-0.49,2.225-0.48,3.358c0.018,2.178,1.131,4.177,2.213,6.067
				c1.088,1.9,2.346,3.946,4.416,4.66c1.012,0.349,2.109,0.333,3.179,0.313c0.942-0.018,1.885-0.036,2.827-0.054
				c0.263-0.005,0.553-0.021,0.741-0.204c0.282-0.273,0.177-0.734,0.134-1.124c-0.182-1.633,1.085-3.146,0.994-4.787
				c-0.078-1.424-1.157-2.588-2.299-3.443c-1.279-0.958-3.003-1.659-3.466-3.314c-0.203-0.725-0.212-1.488-0.22-2.241
				c-0.012-1.177-0.023-2.362,0.171-3.524c0.167-0.999,0.485-1.968,0.658-2.966c0.115-0.664,0.137-1.425-0.318-1.922
				c-0.272-0.298-0.669-0.444-1.056-0.557c-1.272-0.371-2.525-0.35-3.825-0.446c-0.405-0.03-0.84-0.047-1.187,0.164
				C421.64,261.991,421.88,268.352,421.479,270.593z"/>
			<path style="fill:#B77318;" d="M443.321,194.332c-0.188,0-0.354-0.128-0.399-0.319c-0.034-0.156-3.513-15.805-3.139-24.031
				c0.011-0.219,0.191-0.389,0.408-0.389c0.006,0,0.011,0,0.02,0c0.225,0.01,0.399,0.201,0.388,0.426
				c-0.371,8.119,3.086,23.66,3.122,23.818c0.048,0.219-0.09,0.437-0.309,0.486C443.38,194.329,443.349,194.332,443.321,194.332z"/>
			<path style="fill:#B77318;" d="M440.713,187.357c-0.163,0-0.318-0.098-0.379-0.258c-2.004-5.132-2.9-10.75-2.594-16.245
				c0.011-0.226,0.188-0.388,0.43-0.385c0.225,0.013,0.396,0.205,0.385,0.43c-0.301,5.38,0.579,10.88,2.538,15.902
				c0.081,0.211-0.023,0.447-0.231,0.528C440.811,187.348,440.763,187.357,440.713,187.357z"/>
			<path style="fill:#B77318;" d="M470.151,241.152c-17.32,0-29.621-5.281-29.79-5.357c-0.208-0.09-0.301-0.332-0.211-0.537
				c0.093-0.211,0.334-0.295,0.537-0.211c0.236,0.101,23.939,10.266,51.882,2.142c0.23-0.067,0.447,0.062,0.506,0.275
				c0.065,0.216-0.059,0.444-0.276,0.506C484.753,240.315,477.053,241.152,470.151,241.152z"/>
			<path style="fill:#B77318;" d="M470.741,353.1c-0.008,0-0.02,0-0.031,0c-0.225-0.017-0.393-0.214-0.377-0.438
				c2.844-38.032,2.521-113.957,2.518-114.718c-0.003-0.225,0.18-0.41,0.405-0.41c0.003,0,0.003,0,0.003,0
				c0.225,0,0.408,0.18,0.408,0.405c0.003,0.764,0.326,76.72-2.518,114.786C471.132,352.937,470.952,353.1,470.741,353.1z"/>
			<g>
				<path style="fill:#8C4F3E;" d="M471.691,143.136l-0.187,16.279c0,0,1.31,5.052-7.672,5.052c-8.982,0-5.988-9.917-5.988-9.917
					l0.374-16.092L471.691,143.136z"/>
				<path style="fill:#753B2C;" d="M458.173,145.675l0.046-1.963l13.473,4.678l-0.057,4.953
					C466.845,153.516,460.169,152.438,458.173,145.675z"/>
				<path style="fill:#A05E47;" d="M451.74,135.55c1.749,5.393,5.1,10.911,9.881,14.115c4.731,3.17,11.463,3.559,15.411-1.054
					c2.27-2.653,3.262-6.189,3.579-9.665c0.165-1.805,0.166-3.626,0.427-5.42c0.211-1.446,0.59-2.863,0.801-4.308
					c0.272-1.859,0.263-3.748,0.151-5.624c-0.172-2.864-0.778-5.814-2.312-8.277c-1.611-2.588-4.279-4.176-7.198-4.896
					c-6.815-1.681-15.512-0.416-19.833,5.65c-1.005,1.411-1.752,3.007-2.174,4.688C449.302,125.422,450.277,131.038,451.74,135.55z"
					/>
				<path style="fill:#291E3B;" d="M482.616,125.35c-0.117,0.635-0.331,1.16-0.67,1.518c-0.459-1.187-1.424-1.954-2.559-2.471
					c-1.136-0.517-2.38-0.854-3.357-1.631c-1.301-1.037-1.937-2.734-2.05-4.394c-0.114-1.66,0.232-3.313,0.576-4.941
					c-1.342-0.409-2.788,0.323-3.789,1.306c-1.152,1.132-1.942,2.626-2.231,4.215c-0.251,1.382-0.131,2.821-0.478,4.182
					c-0.689,2.708-3.152,4.678-5.807,5.55c-2.856,0.938-6.936-0.344-9.465,0.858c-2.922,1.39-1.001,5.612-0.236,7.813
					c0.499,1.437,0.979,2.788,1.748,4.099c-1.914,0.837-5.623-4.306-6.442-5.715c-4.794-8.255-1.351-20.545,6.837-25.272
					c5.075-2.93,11.606-4.549,17.394-3.073c4.029,1.027,7.102,3.862,8.699,7.667C481.607,117.01,483.164,122.383,482.616,125.35z"/>
				<path style="fill:#A05E47;" d="M448.443,132.871c0.517,1.656,1.741,2.966,3.166,3.423c0.299,0.096,0.628,0.154,0.91,0.002
					c2.642-1.42,1.224-7.605-0.691-9.036C448.992,125.141,447.668,130.391,448.443,132.871z"/>
				<path style="fill:#753B2C;" d="M474.987,139.536c-0.519,0-1.035-0.211-1.39-0.598c-0.105-0.115-0.098-0.294,0.018-0.4
					c0.114-0.105,0.296-0.098,0.4,0.018c0.349,0.38,0.95,0.518,1.431,0.329c0.113-0.045,0.188-0.096,0.224-0.153
					c0.037-0.06,0.049-0.155,0.058-0.241c0.134-1.313-0.353-2.559-0.869-3.877c-0.465-1.189-0.945-2.418-0.94-3.718
					c0-0.156,0.127-0.283,0.283-0.283h0.001c0.156,0.001,0.283,0.128,0.282,0.285c-0.004,1.192,0.457,2.37,0.902,3.509
					c0.518,1.323,1.053,2.691,0.905,4.141c-0.017,0.159-0.045,0.328-0.14,0.482c-0.102,0.164-0.265,0.29-0.497,0.382
					C475.441,139.496,475.214,139.536,474.987,139.536z"/>
				<path style="fill:#1E1C1B;" d="M480.301,130.788c0,0.801-0.649,1.449-1.449,1.449s-1.449-0.649-1.449-1.449
					c0-0.801,0.649-1.449,1.449-1.449S480.301,129.987,480.301,130.788z"/>
				<path style="fill:#1E1C1B;" d="M469.72,130.788c0,0.801-0.649,1.449-1.449,1.449c-0.801,0-1.449-0.649-1.449-1.449
					c0-0.801,0.649-1.449,1.449-1.449C469.071,129.338,469.72,129.987,469.72,130.788z"/>
				<path style="fill:#291E3B;" d="M468.644,127.301c0.298-0.029,0.645-0.026,0.835,0.204c0.173,0.211,0.112,0.571-0.122,0.712
					c-0.126,0.076-0.28,0.09-0.427,0.103c-0.896,0.078-1.789,0.203-2.672,0.374c-0.331,0.064-1.785,0.576-1.817,0.221
					C464.342,127.836,467.98,127.366,468.644,127.301z"/>
				<path style="fill:#291E3B;" d="M476.906,127.46c-0.298-0.029-0.645-0.026-0.835,0.204c-0.173,0.211-0.112,0.571,0.122,0.712
					c0.126,0.076,0.28,0.09,0.427,0.103c0.896,0.078,1.789,0.203,2.672,0.374c0.331,0.064,1.785,0.576,1.818,0.221
					C481.209,127.995,477.57,127.525,476.906,127.46z"/>
				<path style="fill:#753B2C;" d="M451.818,134.827c-0.024,0-0.05-0.003-0.075-0.01c-0.151-0.042-0.239-0.198-0.198-0.349
					c1.188-4.302-1.386-5.31-1.412-5.319c-0.146-0.054-0.222-0.217-0.167-0.364c0.054-0.147,0.218-0.223,0.364-0.167
					c0.031,0.011,3.086,1.203,1.762,6.001C452.056,134.745,451.942,134.827,451.818,134.827z"/>
				<path style="fill:#753B2C;" d="M450.126,133.98c-0.123,0-0.235-0.08-0.272-0.203c-0.018-0.06-0.424-1.477,0.2-2.547
					c0.31-0.53,0.81-0.879,1.488-1.036c0.154-0.039,0.306,0.059,0.341,0.212c0.035,0.152-0.06,0.305-0.212,0.34
					c-0.519,0.121-0.898,0.379-1.126,0.768c-0.502,0.857-0.151,2.092-0.147,2.104c0.043,0.15-0.043,0.308-0.193,0.351
					C450.178,133.977,450.152,133.98,450.126,133.98z"/>
				<path style="fill:#FBB040;" d="M451.949,144.863c-0.636,0-1.151-0.221-1.538-0.66c-1.739-1.977-0.048-7.85,0.024-8.099
					c0.044-0.15,0.203-0.235,0.352-0.192c0.15,0.044,0.237,0.201,0.193,0.352c-0.018,0.058-1.678,5.822-0.144,7.565
					c0.352,0.398,0.848,0.54,1.52,0.434c0.669-0.106,1.107-0.403,1.34-0.907c1.017-2.208-2.141-7.395-2.172-7.447
					c-0.082-0.133-0.04-0.308,0.093-0.39c0.131-0.081,0.309-0.04,0.39,0.093c0.138,0.223,3.347,5.498,2.204,7.98
					c-0.313,0.68-0.907,1.093-1.767,1.229C452.272,144.849,452.106,144.863,451.949,144.863z"/>
				<g>
					<path style="fill:#7F2614;" d="M475.579,143.479c0,0-0.366-1.701-1.544-1.178c0,0-0.968-0.838-2.015-0.131
						c-1.047,0.707-4.45-0.209-4.45-0.209S471.758,144.238,475.579,143.479z"/>
					<path style="fill:#9B3821;" d="M475.579,143.479c0,0-4.764-0.209-8.009-1.518c0,0,2.408,2.696,4.764,2.827
						C474.689,144.919,475.579,143.479,475.579,143.479z"/>
				</g>
			</g>
			<g>
				<path style="fill:#FBB040;" d="M487.855,162.583c0.458,0.03,0.732,0.622,1.077,1.118c2.734,3.932,5.002,8.231,7.016,12.566
					c2.892,6.226,5.191,12.729,6.89,19.38c5.375,21.034,5.375,45.807-10.751,26.175c-7.306-8.895-14.167-18.197-20.165-28.029
					c-2-3.279-3.852-6.452-5.253-10.011c-0.082-0.208-0.164-0.42-0.176-0.642c-0.022-0.436,0.229-0.836,0.488-1.188
					c0.823-1.123,1.6-2.352,2.659-3.274c1.083-0.944,2.283-1.785,3.569-2.434c0.587,1.221,1.178,2.449,1.964,3.552
					c0.988,1.386,2.259,2.542,3.542,3.66c1.857,1.618,3.763,3.182,5.712,4.689c-0.201-0.155-0.335-1.339-0.424-1.624
					c-0.186-0.594-0.39-1.182-0.54-1.787c-0.304-1.224-0.285-2.484-0.251-3.737c0.074-2.746,0.359-5.487,0.851-8.19
					c0.461-2.53,0.952-8.447,3.266-10.042C487.53,162.626,487.703,162.573,487.855,162.583z"/>
				<path style="fill:#A05E47;" d="M490.946,197.711c-1.645-3.29-4.779-7.435-6.607-9.744c0.029,0.069,0.056,0.153,0.088,0.178
					c-1.949-1.507-3.854-3.07-5.712-4.689c-1.283-1.118-2.555-2.274-3.542-3.66c-0.786-1.103-1.377-2.331-1.964-3.552
					c-1.286,0.649-2.486,1.49-3.569,2.434c-1.058,0.922-1.836,2.152-2.659,3.274c-0.258,0.352-0.51,0.752-0.488,1.188
					c0.012,0.223,0.094,0.435,0.176,0.642c1.401,3.559,3.253,6.732,5.253,10.011c5.385,8.828,11.488,17.21,17.963,25.271
					C494.588,217.298,492.751,201.322,490.946,197.711z"/>
				<path style="fill:#B77318;" d="M484.523,183.817c-0.003,0-0.006,0-0.009,0c-0.225-0.004-0.405-0.19-0.399-0.416
					c0.093-4.745,0.778-9.478,2.037-14.067c0.062-0.219,0.298-0.346,0.5-0.285c0.219,0.059,0.346,0.284,0.287,0.502
					c-1.242,4.523-1.917,9.19-2.009,13.868C484.928,183.64,484.745,183.817,484.523,183.817z"/>
				<g>
					<path style="fill:#A05E47;" d="M477.149,183.695c0,0-2.635-3.529-3.752-6.924c-1.117-3.395-1.014-8.947-2.023-11.602
						c-1.009-2.655-5.394-6.197-7.046-7.002c-1.652-0.805-8.814,4.219-8.736,7.965c0,0,1.433,2.971,2.308,4.245
						c0.875,1.273-1.058,2.355,3.047,5.96c4.105,3.605,6.36,9.102,8.875,14.006L477.149,183.695z"/>
					<path style="fill:#753B2C;" d="M466.582,163.921c-0.149,0-0.298-0.063-0.402-0.187c-1.439-1.727-3.066-3.304-4.834-4.685
						c-0.228-0.178-0.267-0.506-0.09-0.734c0.174-0.226,0.506-0.266,0.731-0.09c1.827,1.428,3.507,3.056,4.997,4.839
						c0.183,0.222,0.155,0.551-0.067,0.735C466.818,163.882,466.7,163.921,466.582,163.921z"/>
					<path style="fill:#753B2C;" d="M463.108,165.527c-0.138,0-0.275-0.053-0.379-0.163c-1.296-1.369-2.656-2.73-4.041-4.048
						c-0.208-0.198-0.216-0.528-0.02-0.738c0.202-0.209,0.531-0.214,0.739-0.018c1.397,1.329,2.771,2.705,4.081,4.088
						c0.197,0.208,0.188,0.54-0.02,0.738C463.367,165.481,463.237,165.527,463.108,165.527z"/>
					<path style="fill:#753B2C;" d="M460.846,167.787c-0.152,0-0.301-0.065-0.405-0.19c-1.104-1.348-2.358-2.875-3.963-3.748
						c-0.253-0.138-0.346-0.454-0.208-0.707c0.138-0.254,0.455-0.349,0.708-0.209c1.782,0.97,3.105,2.58,4.272,4.001
						c0.183,0.223,0.149,0.552-0.073,0.735C461.079,167.749,460.964,167.787,460.846,167.787z"/>
				</g>
				<path style="fill:#B77318;" d="M501.073,210.958c-0.166,0-0.323-0.101-0.382-0.267c-3.583-9.769-12.332-16.418-12.419-16.484
					c-0.18-0.135-0.216-0.391-0.082-0.57c0.132-0.18,0.391-0.218,0.57-0.082c0.09,0.067,9.03,6.856,12.694,16.855
					c0.079,0.211-0.031,0.447-0.242,0.523C501.166,210.95,501.121,210.958,501.073,210.958z"/>
				<path style="fill:#B77318;" d="M501.75,208.507c-0.166,0-0.323-0.101-0.382-0.267c-0.905-2.482-2.127-4.842-3.631-7.015
					c-0.129-0.186-0.084-0.441,0.101-0.568c0.188-0.129,0.441-0.081,0.568,0.101c1.546,2.231,2.799,4.654,3.727,7.2
					c0.079,0.214-0.031,0.447-0.242,0.523C501.843,208.499,501.798,208.507,501.75,208.507z"/>
				<path style="fill:#B77318;" d="M493.415,218.757c-0.023,0-0.048-0.003-0.073-0.006c-0.222-0.039-0.368-0.253-0.329-0.475
					c0.843-4.662,1.023-9.417,0.528-14.128c-0.025-0.225,0.138-0.424,0.363-0.447c0.225-0.036,0.424,0.138,0.447,0.363
					c0.503,4.786,0.323,9.617-0.534,14.358C493.78,218.619,493.609,218.757,493.415,218.757z"/>
				<path style="fill:#B77318;" d="M495.07,218.29c-0.031,0-0.065-0.003-0.096-0.011c-0.219-0.053-0.354-0.273-0.301-0.492
					c0.177-0.725,0.247-1.473,0.214-2.217c-0.011-0.225,0.163-0.416,0.388-0.427c0.008,0,0.014,0,0.02,0
					c0.216,0,0.396,0.169,0.408,0.388c0.039,0.823-0.042,1.647-0.236,2.448C495.422,218.167,495.253,218.29,495.07,218.29z"/>
			</g>
			<path style="fill:#F798B4;" d="M474.006,425.165c0,0,5.687-3.345,11.82-2.453c0,0,2.676,8.363-2.119,9.924
				C483.707,432.636,477.352,434.197,474.006,425.165z"/>
			<path style="fill:#F798B4;" d="M451.928,425.5c0,0,3.68-2.342,10.036,0.223c0,0-1.227,8.698-5.575,9.255
				C452.039,435.535,451.928,425.5,451.928,425.5z"/>
		</g>
	</g>
</g>
</svg>
